<svg width="401" height="391" viewBox="0 0 401 391" fill="none" xmlns="http://www.w3.org/2000/svg">
<path d="M169.3 54.4C166.4 55.8 162.1 58.7 159.6 61C154.6 65.6 147.7 75.1 147.5 77.8C147.4 78.7 146.1 83.2 144.6 87.8C143 92.4 142.1 96.4 142.4 96.7C142.7 97.1 143 96.7 143 95.9C143.1 92.6 148 82.9 153.4 75.7C161.2 65.2 169 57.6 175.3 54.6C180.1 52.3 180.3 52.1 177.5 52C175.9 52 172.2 53.1 169.3 54.4Z" fill="#FF3300"/>
<path d="M247.1 67C240.6 68.4 233.2 70.9 227.5 73.8C212.5 81.3 197.5 99.5 191.6 117.5C189.4 124.4 187.2 140 187.6 145.7C188.1 151.5 191.2 161.6 194 166.3L196.1 169.8L190.3 170.4C187.1 170.7 174.8 171.7 163 172.5C102.7 176.8 51.7 182.4 37.8 186.1C33.4 187.2 31.3 191.2 28.6 203.1C25.6 216.7 22.9 254 24.6 258.4C25.1 259.6 26.6 260 31 260C37.8 260 105.7 255.5 120.5 254C126 253.5 141.8 252.1 155.5 251C169.3 249.9 182.8 248.8 185.5 248.5C188.3 248.3 189.9 248.3 189.2 248.6C187.6 249.4 184.9 255.7 185.6 257.4C185.9 258.1 183.8 263.6 180.9 269.6C176.5 278.8 175.7 281.5 175.5 286.8C175.4 291 175.8 293.6 176.6 294.5C177.7 295.6 177.7 296.4 176.5 299.4C174.8 303.4 174.7 304.3 175.8 303.6C176.2 303.4 176.6 306.1 176.7 309.7C176.8 313.2 177.4 316.8 178.1 317.7C179.8 319.7 185.2 318.8 189.5 315.9C193.5 313.1 197.4 307.5 196.4 305.9C195.9 305 196.2 304.9 197.4 305.3C198.4 305.7 199.3 306 199.5 306C199.7 306 199.3 307.5 198.6 309.3C197.7 311.3 197.5 314.3 197.9 317.5L198.5 322.5L200.4 315.7C201.4 312 202.6 308.8 203 308.5C203.4 308.2 206.8 309.4 210.4 311.1L217 314.2L215.3 317.1C213 321 208 325.6 205.3 326.4C203.8 326.9 202.5 326.5 201.1 325.1C199.2 323.2 199.2 323.2 198.7 325.1C198 327.7 201.6 330.1 204.9 329.3C209.7 328.2 217.4 321.5 218.5 317.5C219 315.8 219.8 315.5 223.3 315.8C228.2 316.1 234 313.1 234 310.1C234 308.4 235.9 304.1 246.5 281.5C248.3 277.6 251.2 271.3 253 267.5C259.5 253.1 261.2 250 262.1 250C263.2 250 267.1 242.4 266.3 241.7C265.5 240.8 269.2 240.2 285.5 238.5C303.4 236.7 328.4 233.2 331.3 232.1C334 231.1 336.5 222.9 338.9 207.5C341.3 192 343.3 171.5 342.9 167L342.5 163.5L336.8 163.2L331 162.9L330.9 159.2V155.5L329.7 159C328.5 162.6 326.3 163.7 320.5 163.9C318.2 164 317.1 163.3 315.8 161C313.7 157.2 312.8 157.3 309.7 161C307.5 163.6 306.5 164 302 164H296.9L302 157.4C304.7 153.8 307 150.6 307 150.2C307 149.8 304.6 147 301.6 144.1C298.1 140.6 296.1 139.3 295.8 140.2C295.5 140.9 293.1 144.3 290.5 147.8L285.8 154L290.9 158.6C293.7 161.1 296 163.6 296 164.1C296 164.6 293 165 289.4 165C285.8 165 283.1 164.6 283.4 164.1C283.7 163.6 282.9 162.5 281.6 161.6C279.3 160.1 279 160.2 276 163C273.7 165.1 271.8 166 269.4 166C267.5 166 266 165.7 266 165.4C266 165 267.9 162.7 270.1 160.2C273.4 156.7 274 155.6 272.9 154.9C268.6 152 258 146 257.2 146C256.7 146 252.6 148.5 248.1 151.5C236 159.6 234.5 158.9 244 149.5C247.3 146.2 250 143.3 250 142.9C250 142.6 247.2 141.5 243.8 140.4C239.3 139 234.5 138.5 226.8 138.5C220.8 138.5 216 138.3 216 138C216.1 137 220.7 134.3 224.4 133C229.5 131.4 245.2 132.2 250.4 134.4C252.5 135.3 254.6 136 255.1 136C256.1 136 266 121.6 266 120.2C266 119 260.1 116.6 252 114.5C244.6 112.6 235.2 112.1 229.6 113.4C224.2 114.6 225.2 112.3 231.5 109C238.3 105.6 251 105.7 262.3 109.3L270.2 111.8L271.6 108.5C272.3 106.7 273.3 102.7 273.6 99.7L274.3 94.2L268.9 93.2C256.2 90.7 252.5 90.8 242 93.6L239.5 94.3L241.5 92.1C246.4 86.5 258.2 83.4 268.8 84.8C274.8 85.6 274.8 85.6 275.3 83.1C275.6 81.7 275.6 80.2 275.4 79.8C274.5 78.3 261.3 77.8 253.8 78.9C232.5 82.2 216.4 92.1 205.9 108.3C199.9 117.6 197.7 125.6 197.8 137.5C197.8 148.2 199.6 155 204.5 163.8C205.9 166.2 207 168.6 207 169.1C207 169.6 205.3 170 203.3 170C199.6 170 199.4 169.8 196.8 163.5C192.6 153.9 191 146.5 191 137.2C191 126.5 192.2 121.6 197.7 110.1C201.5 102.2 203.6 99.3 210.1 92.8C216.7 86.4 219.7 84.2 228.3 80.1C242.9 73 250.4 71.6 269.8 72.3C281.4 72.7 285.7 73.2 286.5 74.3C287 75 290.1 76.8 293.2 78.2C301.5 82 309.8 88 316 94.7C322.5 101.7 329 110.6 329 112.4C329 113.2 329.7 115.7 330.5 118.1C331.4 120.5 332.7 126.7 333.5 132C334.3 137.2 335.4 142.8 335.8 144.5L336.7 147.5L337.2 145C337.6 143.6 338.2 138.6 338.5 133.9C339.1 127.2 338.8 124 337.4 118.9C331.1 95.8 312.8 77.5 288 69.4C280.7 67.1 277.6 66.6 265.5 66.4C257.8 66.2 249.5 66.5 247.1 67ZM336.6 167.7C338.1 169.2 338.2 171.1 337.7 183.5C337.1 197.8 334.1 217.5 331.5 223.6C330.6 225.9 328.9 227.5 326.8 228.4C322.1 230.4 289.5 234.4 237.5 239.5C223.2 240.9 207 242.4 201.5 243C196 243.5 188.6 244.2 185 244.5C181.4 244.7 171.1 245.7 162 246.5C131.7 249.3 57.7 255 43.4 255.7L29.2 256.3L28.5 253.9C27.2 250 27.8 227.4 29.5 214.6C30.4 208.1 32.1 200.2 33.3 197.1C35.2 192.3 36 191.3 39.3 190.3C45.9 188.1 65.8 185.2 91.5 182.6C127.7 178.9 149.2 177.2 204.5 173.5C246.9 170.7 257.7 170 278.5 168.9C305.8 167.5 328.8 166.3 332.2 166.1C333.7 166.1 335.6 166.8 336.6 167.7ZM260.7 242.2C251 265.3 232.1 304.6 229.3 307.7C224.5 312.9 221.1 312.4 201.8 303.4C176.8 291.8 175.5 289.5 183.5 272.2C194.5 248.5 195.3 247.1 198.3 247.1C199.8 247 201 247.4 201 248C201 248.5 198.3 254.9 194.9 262.2C184.8 284.1 184.8 284.1 186.8 288.1C188.7 291.8 189.9 292.5 206.3 299.9C219.7 305.9 222.6 306 225.9 300.6C227.7 297.8 249.5 251.6 252.3 244.8C253.3 242.3 254.5 241.7 259.9 241.1C260.6 241.1 261 241.6 260.7 242.2ZM243.4 247.7C242.6 250.4 241.5 254.3 240.9 256.5C240.3 258.7 237.7 265.6 235.2 271.9C231.8 280.5 229.6 284.4 226.4 287.8L222.1 292.2L214.1 291.9C207.4 291.6 205.7 291.1 203.9 289.3C201.1 286.5 202.1 285.1 210.1 280.9C219.7 275.7 226.2 263.4 227.2 248.3C227.4 244.8 227.1 245 236 243.7C237.4 243.4 239.9 243.2 241.7 243.1L244.9 243L243.4 247.7ZM188.4 301L195.1 304.1L193.3 307.1C192.3 308.8 189.9 311.5 187.9 313.1C181.9 317.9 178 316.6 178 309.8C178 306.7 180.6 298 181.5 298C181.6 298 184.7 299.4 188.4 301Z" fill="#FF3300"/>
<path d="M224.9 179.7C221.7 180.1 221.1 180.5 220.6 183.2C219.7 187.9 219.7 188 224.4 188C228.5 188 228.8 187.8 229.4 184.9C230.2 180.7 230.2 179 229.3 179.2C228.8 179.3 226.9 179.5 224.9 179.7Z" fill="black"/>
<path d="M309.4 182.6C303.5 184 303.2 184.2 302.7 187.7C302.3 189.7 302.3 191.6 302.5 191.8C302.7 192.1 304.7 191.5 307 190.6C311.8 188.7 315.2 188.6 316.8 190.2C319.1 192.5 318 193.5 311.5 195.4C304.6 197.4 300.6 200.3 299 204.5C295.2 214.5 302.9 221.4 311.8 216C315.4 213.8 316.4 213.5 315.5 215C314.8 216.2 320.9 216.4 322.7 215.2C323.9 214.4 326 198.6 326 190.2C326 182.2 320.9 179.8 309.4 182.6ZM317 202.4C317 206.2 316 208 312.8 209.6C310 211 309.6 211 308.2 209.6C305.7 207.2 307.7 203 312 201.4C316.9 199.7 317 199.7 317 202.4Z" fill="black"/>
<path d="M283 185.7C282.2 186 280.5 187.2 279.3 188.3C277.3 190.1 277 190.1 277 188.7C277 186.6 270.8 186.3 269.2 188.2C268.7 188.9 267.7 194.2 267.1 200C266.6 205.8 265.8 213.1 265.4 216.2C264.8 221.6 264.9 222 266.8 222C267.9 222 269.9 221.6 271.3 221.1C273.5 220.2 273.7 219.4 274.8 208.5C275.7 199.3 276.3 196.5 277.7 195.4C280.2 193.6 283.9 193.7 284.7 195.6C285 196.5 284.8 202.2 284.1 208.3C283.5 214.4 283.2 219.5 283.4 219.7C283.6 219.9 285.5 219.8 287.8 219.4L291.8 218.8L293 205.9C294.3 192.5 294 189.2 291.4 186.6C289.9 185 286 184.6 283 185.7Z" fill="black"/>
<path d="M245.5 189.5C245 189.7 242.6 190.4 240.3 191C236.1 192 236 192.2 236 196C236 200.5 236 200.6 240.1 198.4C241.8 197.6 244.8 197 246.8 197.2C249.8 197.4 250.6 198 250.8 199.7C251.1 201.4 250.6 202 249.2 202C245.5 202 237.9 205.3 235.1 208.1C232 211.2 230.8 215.9 232.1 220.4C233.8 226.3 239.3 227.6 245.4 223.5C248.2 221.6 249 221.4 249 222.6C249 223.8 249.8 224 252.8 223.4C254.8 223 256.6 222.6 256.8 222.5C257 222.3 257.8 216.4 258.6 209.4C260.1 195.1 259.6 192.1 255.4 190.1C253 189.1 247.7 188.7 245.5 189.5ZM250 211.2C250 215.2 247.5 218 243.8 218C238.2 218 239.3 210.8 245.2 209.1C250 207.7 250 207.7 250 211.2Z" fill="black"/>
<path d="M121.8 191.7C119.5 192.1 119 192.7 118.6 196.3C117.9 201.5 114 237.2 114 238.3C114 238.8 115.9 239 118.3 238.8L122.5 238.5L123.7 228.5C124.3 223 124.9 217.5 124.9 216.3C125 213.2 130.5 210.3 132.7 212.1C133.9 213.2 134.1 214.9 133.5 222C133.2 226.7 132.6 232 132.3 233.8L131.8 237.1L136.1 236.8L140.5 236.5L141.7 227C143.6 211.3 143.4 207.3 140.5 204.5C139.2 203.1 137.3 202 136.3 202C134.6 202 133.4 202.6 128.1 205.8C125.9 207.1 125.9 207.1 126.6 199C127.3 190.4 127.6 190.8 121.8 191.7Z" fill="black"/>
<path d="M219.6 195.2C218.9 198.6 215.9 227.3 216.2 227.6C216.4 227.7 218.3 227.5 220.5 227.1L224.5 226.5L226.2 212C228.6 191.5 228.7 193 224 193C220.7 193 220 193.4 219.6 195.2Z" fill="black"/>
<path d="M198.7 196.4C196.1 197.7 194 198.3 194 197.8C194 197.3 192.1 197 189.8 197.2L185.5 197.5L184.3 207C183.7 212.2 182.9 219.9 182.5 224L181.8 231.6L185.9 231.2C188.2 231 190 230.7 190 230.6C190 230.6 190.7 225.1 191.5 218.5C193 205.6 194.1 203.6 199 204.2C201.3 204.5 201.5 204.9 201.5 209.5C201.5 212.2 201.1 217.8 200.7 221.8L199.9 229.1L204.2 228.8L208.5 228.5L209.8 216C211.1 203.2 210.9 197.9 208.7 196.2C205.9 194 203.3 194 198.7 196.4Z" fill="black"/>
<path d="M158.5 200.7C152.4 204 149 209.7 148.3 218C147.3 228.5 151.5 235 159.1 235C170.2 235 176.9 227 177 213.7C177 203.2 173.6 198.9 165.2 199C163.2 199.1 160.2 199.8 158.5 200.7ZM166.5 207.4C167.9 208.4 168.3 210 168.3 214.6C168.3 224.7 163 231.1 158.8 226C155.4 221.8 157.2 209.7 161.7 207.1C164.1 205.7 164.3 205.8 166.5 207.4Z" fill="black"/>
<path d="M51.3 201.7C47.9 202 46.9 202.6 46.5 204.3C45.3 209.6 42 245.2 42.6 246.2C43.6 247.8 58.5 246.3 63.5 244.1C72 240.3 77.3 230.7 77.4 218.9C77.4 212.7 76.9 210.7 75 207.6C71.3 201.5 66.5 200.4 51.3 201.7ZM65.1 211.9C67.6 214.5 68 215.6 68 220.5C68 230.4 63.6 236.7 56 237.7L51.8 238.3L52.5 230.9C53.3 221.7 54.9 210.9 55.6 209.8C56.8 207.9 62.2 209.1 65.1 211.9Z" fill="black"/>
<path d="M89.3 209.9C79.3 217.2 78.7 237.1 88.4 241.2C92.6 242.9 99.2 242.5 103.8 240.3C107.1 238.7 107.5 238 107.8 234.2L108.1 230L103.4 232.5C100.8 233.9 97.6 235 96.4 235C93.5 235 90 231.7 90 229.1C90 227.5 91.1 227.1 97.8 226.5C110.8 225.4 110.3 225.7 109.8 218.4C109.3 209.6 106.8 207 99 207C94.3 207 92.6 207.5 89.3 209.9ZM99.2 214.2C101 215.7 102.2 218.8 101.2 219.4C100.8 219.6 98.1 220.1 95.3 220.5C89.1 221.3 88.5 220.3 92.9 215.9C96.2 212.7 96.9 212.5 99.2 214.2Z" fill="black"/>
<path d="M188.2 70.5C183.1 72.7 174.2 82.3 171.4 88.6C167.9 96.5 168.8 97.2 173.5 90.3C179 82.3 185.7 75.2 190.9 71.8C195.8 68.8 194.1 67.9 188.2 70.5Z" fill="#FF3300"/>
<path d="M367.4 84C375.6 97.2 381 118.6 381 137.6C381 143.2 381.4 148.1 381.9 148.4C382.3 148.7 383.5 146 384.5 142.4C388 129.3 384.9 108.2 377.1 92.4C373.4 85 366.6 77 364.1 77C363.5 77 365.1 80.1 367.4 84Z" fill="#FF3300"/>
<path d="M287.5 86.1C287.1 87.8 287 89.3 287.2 89.4C287.9 90.1 296 94 296.1 93.8C296.1 93.6 296.4 92.1 296.6 90.5C297 87.7 296.7 87.2 292.6 85.3L288.1 83.1L287.5 86.1Z" fill="#FF3300"/>
<path d="M346.4 93.3C353.1 102 357.9 118.8 358.7 136L359.3 148.5L361.2 144.5C362.8 141.2 363 138.9 362.6 130.5C362 115.9 357.1 101.7 349.9 93.5C345.8 88.9 342.9 88.7 346.4 93.3Z" fill="#FF3300"/>
<path d="M308.1 99C308.1 102 308.9 103.2 313.6 107.4C316.6 110.1 319.3 112 319.6 111.7C320.6 110.8 317.3 105.5 312.6 100.4L308.1 95.5V99Z" fill="#FF3300"/>
<path d="M282.9 106.8C281.6 111 280.4 115 280.2 115.6C279.9 116.6 290.6 124 292.3 124C293 124 295 112.1 295 107.9C295 104.9 294.5 104.2 290.1 101.8L285.3 99L282.9 106.8Z" fill="#FF3300"/>
<path d="M305 118.1C304.4 120.5 303.2 124.4 302.3 126.8L300.7 131.1L306.3 136.8L311.9 142.4L313.5 138.7C314.3 136.7 315.5 132.7 316.1 129.9L317.2 124.7L311.7 119.2L306.2 113.7L305 118.1Z" fill="#FF3300"/>
<path d="M269.4 131.8L263.3 139.5L269.4 142.8C272.7 144.7 276.3 146.9 277.2 147.7C278.8 149.1 279.3 148.6 283.4 142.2C286 138.3 288 134.5 288 133.7C288 132.4 286.4 131.2 278 125.7C275.5 124.1 275.5 124.1 269.4 131.8Z" fill="#FF3300"/>
<path d="M321.4 143.6L318.4 150.1L320.4 153C321.6 154.6 322.8 156 323.2 156C324.1 156 325.8 150 326.6 144.5C327 141.9 326.7 139.9 325.8 138.8C324.6 137.3 324.2 137.8 321.4 143.6Z" fill="#FF3300"/>
<path d="M158 145.5C157.5 146.9 156.7 149.2 156.4 150.6C156 152.1 154.6 153.6 153.1 154.2L150.5 155.2L152.8 156.1C154.6 156.8 154.9 157.5 154.4 159.5C153.9 161.4 154.2 162 155.3 162C156.3 162 157 160.9 157.2 158.7C157.4 156.3 158 155.4 159.8 155.2C161.2 155 162 155.4 162 156.3C162 157.1 162.9 158.5 164.1 159.6C166 161.3 166.3 161.4 169.1 159.8C170.7 158.8 172 158.5 172 159C172 160.5 178.4 160.2 180.5 158.6C183 156.8 181.8 154 178.5 154C175.4 154 175.2 152.4 178.2 151.6C179.9 151.2 180.2 150.8 179.3 149.9C177.7 148.3 173.3 151.1 172 154.4C171.2 156.6 169.1 158 166.7 158C166.1 158 166.7 156.9 168 155.6C171.9 151.3 168.3 148 163.6 151.5C162.5 152.3 160.8 153 159.9 153C158.2 153 158.2 152.7 159.5 148.2C161.3 142.6 161.2 143 160 143C159.4 143 158.5 144.1 158 145.5ZM166.6 154.7C165.6 155.7 164.7 154.2 165.6 152.9C166.2 151.8 166.4 151.8 166.8 152.9C167 153.6 166.9 154.4 166.6 154.7ZM177 157C177 158.3 175.9 158.3 174 157C172.8 156.2 172.9 156 174.8 156C176 156 177 156.4 177 157Z" fill="black"/>
<path d="M67.3 152.3C66.8 152.9 65.8 155.5 65.1 157.9C64.3 160.7 63.2 162.4 61.9 162.7C59.6 163.3 59.4 165 61.6 165C62.7 165 63 165.8 62.8 167.7C62.3 171.7 64.8 171.7 65.5 167.7C66 165.1 66.8 164.1 68.5 163.8C70.5 163.4 70.7 163.7 70.6 166.4C70.5 168.9 70.9 169.6 72.7 169.8C74.4 170.1 75.4 169.3 76.6 166.7C79.1 161.4 78.2 160.1 72.3 161C69.7 161.4 67.3 161.6 67 161.3C66.8 161.1 67.3 158.9 68.2 156.4C69.7 152.1 69.2 149.7 67.3 152.3ZM74.1 166.3C73.3 167.1 73 167 73 165.9C73 163.9 74.3 162.5 74.8 164C75.1 164.7 74.7 165.7 74.1 166.3Z" fill="black"/>
<path d="M87 153.6C86.4 155 86 157 86 158C86 159.1 84.8 160.6 83.1 161.4C80.7 162.7 77 166.9 77 168.5C77 169.6 80.7 168.9 82.9 167.4C84.5 166.2 85.4 166.1 85.9 166.8C86.9 168.5 93.1 167.4 95.4 165.1L97.4 163.1L98.4 165.2C100.3 168.8 101.5 167.2 101.1 161.7C101 158.9 100.6 156.3 100.4 156.1C99.6 155.2 93.3 159.9 91.3 162.9C89.4 165.6 88.9 165.9 88.4 164.6C87.8 163 88.1 160.5 89.6 153.7C90.4 150.2 88.3 150 87 153.6ZM97 160.3C97 160.5 96.1 161.5 95 162.5C92.6 164.6 92.3 163.9 94.6 161.6C96.1 160.1 97 159.6 97 160.3ZM83 165C83 165.5 82.5 166 81.9 166C81.4 166 81.2 165.5 81.5 165C81.8 164.4 82.3 164 82.6 164C82.8 164 83 164.4 83 165Z" fill="black"/>
<path d="M148.3 152.9C147.2 154 145.4 154.8 144.4 154.7C142.9 154.5 142.4 155.3 142.2 158.7C141.8 163.9 143.1 164.2 145.9 159.7C147 157.9 148.8 155.5 150 154.5C152.1 152.6 152.6 151 151.2 151C150.7 151 149.5 151.9 148.3 152.9Z" fill="black"/>
<path d="M134.7 154.6C129.6 158 126.7 164 130.1 164C130.5 164 132.2 162.9 133.8 161.5L136.8 159L137.4 161.5C138.5 166 139.9 164.1 139.6 158.5C139.5 155.5 139.1 152.8 138.9 152.5C138.6 152.3 136.7 153.2 134.7 154.6ZM134.3 158.4C133.3 159.7 132.3 160.6 132.1 160.4C131.7 160 135 156 135.7 156C135.9 156 135.3 157.1 134.3 158.4Z" fill="black"/>
<path d="M40.2 155.1C38.9 155.6 37.4 155.8 36.9 155.5C36.5 155.2 34.9 155.7 33.5 156.6C31.7 157.8 31.1 158.8 31.6 160.2C31.9 161.2 31.7 162.6 31.2 163.3C30.5 164.1 30.5 166.1 31.2 169.3C32.3 174.7 33.5 175.1 38.7 171.9C41.6 170.1 42.4 169.9 43.1 171.1C43.9 172.2 44.4 172 45.8 170.1C46.7 168.7 48.3 166.7 49.3 165.6C51 163.5 51.1 163.5 50.9 166.5C50.7 171 50.9 172 52 172C52.6 172 53 169.3 53 166C53 160.4 52 158.5 50.5 161.1C50.1 161.6 48.7 162.5 47.4 163C46.1 163.5 45 164.6 45 165.3C45 166.9 35.8 171.1 34.7 170C34.2 169.6 34 168.2 34.2 166.9C34.4 165.3 35.6 164.3 38.8 163.2C42.9 161.9 44.9 159.3 41 160.4C39.9 160.7 38.1 161.3 37 161.6C35.6 162 35 161.7 35 160.7C35 159.8 36.8 158.6 39.2 157.8C41.5 157 43.6 155.8 43.8 155.2C44.2 153.8 43.4 153.8 40.2 155.1Z" fill="black"/>
<path d="M121.5 156.2C119.8 161.1 118 170.5 118.4 171.7C119.3 174 120.7 172.3 121.4 168.1C121.8 165.1 122.7 163.7 125 162.3C128.1 160.5 129.6 157.8 128.5 156C127.6 154.6 122 154.8 121.5 156.2ZM126 158.4C126 159.9 124.2 161.5 123.4 160.7C122.7 160 124.1 157 125.1 157C125.6 157 126 157.6 126 158.4Z" fill="black"/>
<path d="M106.4 157C102.7 158.5 102.7 160.9 106.3 162.4L109.5 163.8L106.2 163.9C104 164 103 164.4 103.3 165.2C104.2 167.8 113 165.7 113 162.9C113 162.4 111.5 161.4 109.8 160.7C106.7 159.4 106.6 159.3 108.8 158.6C111.1 157.8 111.9 156 109.8 156.1C109.1 156.1 107.6 156.5 106.4 157Z" fill="black"/>
<path d="M348 243.2C340.1 247.3 339.6 252 347.5 248.2C350 247 352.3 246 352.6 246C354 246 350.6 250.2 348.1 251.5C343.4 253.9 341.7 256 343.1 257.6C343.7 258.4 345.3 259 346.5 259C347.7 259 349.4 259.7 350.1 260.6C351.2 262 351.1 262.4 349.5 263.6C346.8 265.6 345 265.4 339.6 262.5C334.3 259.7 333 259.9 333 263.6C333 265.3 334 266.6 336.3 268C342.1 271.5 350.5 269.9 354.8 264.5C357.6 261 357.6 259.8 354.5 256.2L352 253.2L354.4 251.7C357.1 249.9 359.5 244.7 358.6 242.5C357.8 240.3 353.1 240.6 348 243.2Z" fill="black"/>
<path d="M317.4 245.1C316.4 246.3 312.1 250 308 253.3C299.3 260.3 297 262.6 297 264.7C297 266 297.9 266.2 302.3 265.6C305.1 265.3 308.5 264.7 309.8 264.4C311.9 263.8 312 263.9 311 266.4C309.7 270 309.7 273.7 311.2 274.6C312.8 275.6 315 272.2 315 268.7C315 264.3 316.6 262.4 321.4 261C323.9 260.3 326.7 258.9 327.6 257.9C329.2 256.2 329.2 256 327.5 255.4C326.6 255 324.2 255.2 322.2 255.8C320.2 256.4 318.4 256.8 318.3 256.6C318.1 256.4 318.8 253.5 320 250.1C321.1 246.8 322 243.8 322 243.5C322 242.2 319.1 243.2 317.4 245.1ZM314 255.5C314 257 311.1 259 308.9 259C308.2 259 308.7 257.9 310 256.5C312.7 253.7 314 253.3 314 255.5Z" fill="black"/>
<path d="M285.2 247.1C277.2 255.3 274.1 271.9 280.1 275.1C284.6 277.5 291.5 272.9 295.7 264.7C301.9 252.3 293.7 238.4 285.2 247.1ZM293 255.2C294 258.6 293.8 259.8 291.9 263.6C287.7 272.5 282 273 282 264.5C282 256.7 287.5 247.5 290.6 250C291.3 250.7 292.5 253 293 255.2Z" fill="black"/>
<path d="M276.8 246.7C273.7 250.5 271.6 254.7 270.9 258.5C270.5 260.7 269.6 265.5 268.9 269.2C266.6 281.1 271.1 279 274 266.9C274.9 262.8 276.9 256.5 278.3 252.8C280.6 246.7 280.8 245 279 245C278.6 245 277.6 245.8 276.8 246.7Z" fill="black"/>
<path d="M389.8 252.1L387.5 258.1L387 254.3C386.3 248.9 383.7 248.7 381.1 253.8C380 256 378.6 258 378.1 258.2C376.8 258.6 376.3 264.8 377.5 265.2C378.1 265.4 379.4 263.6 380.5 261.3C383.6 254.8 384.3 255 383.5 262.2C382.4 272.3 385.4 271 389.6 259.5L391.4 254.6L392.2 257.8C392.6 259.6 393.4 262.5 393.8 264.2C394.6 267.8 397.7 268.9 397.2 265.5C395 248.9 394.5 246 393.4 246C392.7 246 391.1 248.7 389.8 252.1Z" fill="black"/>
<path d="M375.7 249.1C374.7 249.7 373.4 249.9 372.7 249.7C372 249.5 370.3 249.9 368.8 250.6C366.8 251.6 366.1 252.7 366.1 254.8C366.1 256.3 366 260 365.8 263C365.6 267.4 365.8 268.5 367 268.5C367.9 268.5 368.4 267.7 368.3 266.5C367.7 261.5 369 259.2 373.2 257.8C377.5 256.5 380.2 253.2 376.1 254.4C375 254.7 373 255.3 371.9 255.6C368.5 256.6 370.1 253.8 373.6 252.7C376.9 251.6 379 250.1 379 248.9C379 247.7 377.9 247.8 375.7 249.1Z" fill="black"/>
<path d="M325.2 268.2C323.8 269.6 323.6 271.7 325 272.5C326.2 273.3 330.3 269.2 329.5 268C328.7 266.6 326.6 266.8 325.2 268.2Z" fill="black"/>
</svg>
