<svg width="450" height="353" viewBox="0 0 450 353" fill="none" xmlns="http://www.w3.org/2000/svg">
<path d="M220.77 339.586L26.7075 219.625C20.5312 216.001 15.2325 210.035 21.2512 206.14L216 88.7324C218.925 86.838 223.357 85.6025 226.327 87.4028L430.065 211.059C436.241 214.812 437.355 225.296 431.19 229.05L246.375 339.398C242.492 341.756 238.087 343.014 233.596 343.047C229.106 343.081 224.685 341.887 220.77 339.586Z" fill="#BCBCF7"/>
<path style="mix-blend-mode:multiply" d="M70.5937 194.279C67.1287 196.397 36.9225 216.636 31.5787 219.872C35.6287 222.39 56.6325 235.016 57.0825 235.333L97.5825 210.4C96.6037 209.847 74.9137 196.503 70.5937 194.279Z" fill="url(#paint0_linear_2_43)"/>
<path style="mix-blend-mode:multiply" d="M381.646 203.532L378.687 208.073L329.795 234.949L350.798 247.268L388.925 214.769C386.112 209.38 385.988 207.744 381.646 203.532Z" fill="url(#paint1_linear_2_43)"/>
<path d="M370.961 198.151L374.009 213.012C374.103 213.515 374.305 213.989 374.602 214.397C374.898 214.805 375.281 215.137 375.719 215.365C377.486 216.271 381.142 217.225 388.094 215.907C388.72 215.79 389.299 215.481 389.757 215.021C390.216 214.56 390.534 213.968 390.67 213.318L393.798 198.21" fill="#68E1FD"/>
<path d="M382.368 203.034C388.668 203.034 393.776 200.848 393.776 198.151C393.776 195.454 388.668 193.268 382.368 193.268C376.068 193.268 370.961 195.454 370.961 198.151C370.961 200.848 376.068 203.034 382.368 203.034Z" fill="#124577"/>
<path d="M375.742 187.149C375.204 186.844 374.747 186.403 374.414 185.866L367.991 175.476C365.009 170.664 363.929 136.141 371.726 135.693C377.913 135.352 384.281 150.484 386.497 154.908C388.784 159.059 390.668 163.438 392.122 167.981C393.989 174.794 389.759 180.748 385.743 186.149C383.831 188.749 378.318 188.632 375.742 187.149Z" fill="#66C652"/>
<path d="M379.567 193.962C380.429 194.597 381.277 195.256 382.109 195.939C382.754 180.545 380.71 165.158 376.079 150.531C375.975 150.182 375.742 149.89 375.432 149.72C375.122 149.55 374.76 149.516 374.426 149.625C374.091 149.734 373.812 149.978 373.65 150.302C373.487 150.627 373.455 151.005 373.559 151.355C377.92 165.083 379.953 179.502 379.567 193.962Z" fill="#124577"/>
<path d="M388.634 184.36C388.49 183.988 388.436 183.583 388.477 183.184L389.354 175.335C389.759 171.699 402.652 154.261 406.657 157.356C409.841 159.815 407.084 169.97 406.454 173.088C405.96 176.095 405.18 179.044 404.126 181.889C402.393 186.031 397.994 187.161 393.922 188.114C391.964 188.573 389.321 186.196 388.634 184.36Z" fill="#49B230"/>
<path d="M400.492 166.899C394.749 177.044 390.158 187.857 386.812 199.116C387.464 199.491 388.092 199.912 388.691 200.375C392.013 189.043 396.613 178.165 402.393 167.969C403.102 166.722 401.201 165.651 400.492 166.899Z" fill="#124577"/>
<path d="M177.469 78.6131C177.678 79.3225 177.709 80.0762 177.559 80.8017C177.356 82.3314 175.995 81.0606 175.995 81.0606" fill="#4F2D12"/>
<path d="M110.374 143.977V175.323C110.372 176.974 109.955 178.595 109.166 180.025C108.376 181.454 107.241 182.64 105.874 183.466L52.3687 216.507C50.6137 217.589 48.105 216.613 48.105 214.483L48.0487 181.889C48.0487 178.218 48.3075 176.594 51.3337 174.759L106.222 141.447C106.645 141.192 107.124 141.058 107.612 141.059C108.099 141.06 108.578 141.196 109 141.453C109.421 141.71 109.77 142.078 110.011 142.522C110.253 142.965 110.378 143.467 110.374 143.977Z" fill="#4F2D12"/>
<path d="M125.336 152.214L109.417 141.8L54.9113 186.019L49.6575 216.754L65.7225 227.803L65.3175 203.975" fill="#4F2D12"/>
<path d="M126.889 154.802V186.113C126.887 187.764 126.471 189.385 125.681 190.815C124.891 192.244 123.756 193.431 122.389 194.256L68.8838 227.356C67.1288 228.438 64.62 227.461 64.62 225.332L64.5638 192.738C64.5638 189.067 64.8225 187.443 67.8488 185.607L122.737 152.296C123.158 152.042 123.635 151.908 124.121 151.908C124.607 151.908 125.084 152.042 125.505 152.296C125.925 152.55 126.275 152.915 126.518 153.355C126.761 153.795 126.889 154.294 126.889 154.802Z" fill="#754C24"/>
<path d="M125.336 156.591V185.784C125.337 187.318 124.956 188.826 124.23 190.159C123.504 191.492 122.458 192.604 121.196 193.385L69.4463 225.379C69.0746 225.606 68.6524 225.727 68.2219 225.729C67.7915 225.732 67.368 225.616 66.994 225.393C66.6201 225.17 66.3088 224.848 66.0916 224.459C65.8743 224.07 65.7586 223.629 65.7563 223.178V193.62C65.7553 191.939 66.1767 190.286 66.9783 188.828C67.7799 187.37 68.9335 186.158 70.3238 185.313L121.5 154.261C121.891 154.032 122.332 153.913 122.779 153.917C123.227 153.92 123.666 154.046 124.054 154.281C124.441 154.516 124.763 154.853 124.988 155.258C125.213 155.663 125.333 156.122 125.336 156.591Z" fill="#68E1FD"/>
<path d="M94.2251 201.945C99.5347 191.835 99.2963 181.029 93.6927 177.81C88.089 174.59 79.2421 180.176 73.9325 190.286C68.6229 200.396 68.8612 211.202 74.4649 214.421C80.0685 217.641 88.9154 212.055 94.2251 201.945Z" fill="white"/>
<path d="M108.274 193.976C109.349 192.029 109.217 189.844 107.98 189.097C106.742 188.35 104.868 189.322 103.793 191.27C102.718 193.217 102.85 195.401 104.087 196.149C105.325 196.896 107.199 195.923 108.274 193.976Z" fill="#2D2F33"/>
<path d="M110.441 190.997L107.662 189.373C107.478 189.266 107.263 189.228 107.055 189.267C106.088 189.443 103.489 190.326 103.68 194.844C103.687 194.998 103.729 195.149 103.804 195.282C103.878 195.415 103.982 195.527 104.107 195.609L106.875 197.445" fill="#D53446"/>
<path d="M111.468 195.011C112.45 193.224 112.321 191.22 111.181 190.535C110.04 189.849 108.32 190.742 107.338 192.528C106.356 194.315 106.485 196.319 107.626 197.004C108.766 197.69 110.487 196.798 111.468 195.011Z" fill="#FF9494"/>
<path d="M118.229 189.388C119.304 187.441 119.172 185.256 117.935 184.509C116.697 183.761 114.822 184.734 113.748 186.681C112.673 188.629 112.805 190.813 114.042 191.56C115.28 192.308 117.154 191.335 118.229 189.388Z" fill="#2D2F33"/>
<path d="M120.375 186.396L117.63 184.737C117.445 184.63 117.231 184.592 117.022 184.631C116.055 184.807 113.456 185.69 113.647 190.208C113.654 190.362 113.697 190.512 113.771 190.646C113.846 190.779 113.95 190.891 114.075 190.973L116.887 192.82" fill="#D53446"/>
<path d="M121.411 190.371C122.393 188.585 122.264 186.58 121.124 185.895C119.983 185.209 118.263 186.102 117.281 187.888C116.299 189.675 116.428 191.679 117.569 192.365C118.709 193.05 120.43 192.158 121.411 190.371Z" fill="#FF9494"/>
<path d="M122.096 161.203V167.428C122.098 167.847 121.995 168.26 121.798 168.625C121.601 168.991 121.316 169.296 120.971 169.511L100.485 181.948C100.299 182.059 100.089 182.117 99.8746 182.116C99.6605 182.116 99.4503 182.057 99.2649 181.945C99.0795 181.833 98.9252 181.672 98.8176 181.479C98.7099 181.285 98.6526 181.066 98.6513 180.842V174.488C98.6504 174.158 98.7319 173.833 98.8878 173.547C99.0437 173.26 99.2685 173.02 99.54 172.852L120.251 160.121C120.436 160.008 120.645 159.947 120.859 159.945C121.073 159.943 121.284 160 121.47 160.109C121.657 160.219 121.813 160.377 121.922 160.569C122.032 160.761 122.092 160.98 122.096 161.203Z" fill="white"/>
<path d="M120.375 166.792V169.687C120.375 169.784 120.338 169.877 120.273 169.945C120.207 170.013 120.119 170.052 120.026 170.052C119.934 170.052 119.845 170.013 119.78 169.945C119.714 169.877 119.677 169.784 119.677 169.687V166.792C119.677 166.696 119.714 166.603 119.78 166.535C119.845 166.466 119.934 166.428 120.026 166.428C120.119 166.428 120.207 166.466 120.273 166.535C120.338 166.603 120.375 166.696 120.375 166.792Z" fill="#4F2D12"/>
<path d="M117.934 164.898V171.193C117.934 171.29 117.897 171.383 117.832 171.451C117.766 171.52 117.677 171.558 117.585 171.558C117.492 171.558 117.404 171.52 117.338 171.451C117.273 171.383 117.236 171.29 117.236 171.193V164.898C117.236 164.801 117.273 164.709 117.338 164.64C117.404 164.572 117.492 164.533 117.585 164.533C117.677 164.533 117.766 164.572 117.832 164.64C117.897 164.709 117.934 164.801 117.934 164.898Z" fill="#4F2D12"/>
<path d="M115.875 168.534V172.382C115.875 172.478 115.838 172.571 115.773 172.64C115.707 172.708 115.619 172.746 115.526 172.746C115.434 172.746 115.345 172.708 115.28 172.64C115.214 172.571 115.177 172.478 115.177 172.382V168.534C115.177 168.437 115.214 168.344 115.28 168.276C115.345 168.208 115.434 168.169 115.526 168.169C115.619 168.169 115.707 168.208 115.773 168.276C115.838 168.344 115.875 168.437 115.875 168.534Z" fill="#4F2D12"/>
<path d="M112.556 171.582V174.476C112.556 174.573 112.519 174.666 112.454 174.734C112.389 174.802 112.3 174.841 112.207 174.841C112.115 174.841 112.026 174.802 111.961 174.734C111.895 174.666 111.859 174.573 111.859 174.476V171.582C111.859 171.485 111.895 171.392 111.961 171.324C112.026 171.255 112.115 171.217 112.207 171.217C112.3 171.217 112.389 171.255 112.454 171.324C112.519 171.392 112.556 171.485 112.556 171.582Z" fill="#4F2D12"/>
<path d="M110.081 169.652V175.947C110.081 176.044 110.044 176.136 109.979 176.205C109.914 176.273 109.825 176.312 109.732 176.312C109.64 176.312 109.551 176.273 109.486 176.205C109.42 176.136 109.384 176.044 109.384 175.947V169.652C109.384 169.555 109.42 169.462 109.486 169.394C109.551 169.325 109.64 169.287 109.732 169.287C109.825 169.287 109.914 169.325 109.979 169.394C110.044 169.462 110.081 169.555 110.081 169.652Z" fill="#4F2D12"/>
<path d="M108 173.323V177.171C108 177.267 107.963 177.36 107.898 177.429C107.832 177.497 107.744 177.535 107.651 177.535C107.559 177.535 107.47 177.497 107.405 177.429C107.339 177.36 107.302 177.267 107.302 177.171V173.323C107.302 173.226 107.339 173.133 107.405 173.065C107.47 172.997 107.559 172.958 107.651 172.958C107.744 172.958 107.832 172.997 107.898 173.065C107.963 173.133 108 173.226 108 173.323Z" fill="#4F2D12"/>
<path d="M114.221 167.193V173.488C114.221 173.584 114.184 173.677 114.119 173.746C114.054 173.814 113.965 173.852 113.872 173.852C113.78 173.852 113.691 173.814 113.626 173.746C113.56 173.677 113.524 173.584 113.524 173.488V167.193C113.524 167.096 113.56 167.003 113.626 166.935C113.691 166.866 113.78 166.828 113.872 166.828C113.965 166.828 114.054 166.866 114.119 166.935C114.184 167.003 114.221 167.096 114.221 167.193Z" fill="#4F2D12"/>
<path d="M106.099 172.099V178.394C106.099 178.491 106.062 178.584 105.997 178.652C105.931 178.721 105.842 178.759 105.75 178.759C105.657 178.759 105.569 178.721 105.503 178.652C105.438 178.584 105.401 178.491 105.401 178.394V172.099C105.401 172.003 105.438 171.91 105.503 171.841C105.569 171.773 105.657 171.734 105.75 171.734C105.842 171.734 105.931 171.773 105.997 171.841C106.062 171.91 106.099 172.003 106.099 172.099Z" fill="#4F2D12"/>
<path d="M102.127 174.582V180.877C102.127 180.974 102.091 181.067 102.025 181.135C101.96 181.204 101.871 181.242 101.779 181.242C101.686 181.242 101.598 181.204 101.532 181.135C101.467 181.067 101.43 180.974 101.43 180.877V174.582C101.43 174.485 101.467 174.393 101.532 174.324C101.598 174.256 101.686 174.217 101.779 174.217C101.871 174.217 101.96 174.256 102.025 174.324C102.091 174.393 102.127 174.485 102.127 174.582Z" fill="#4F2D12"/>
<path d="M104.175 175.806V179.653C104.175 179.75 104.138 179.843 104.073 179.911C104.007 179.98 103.919 180.018 103.826 180.018C103.734 180.018 103.645 179.98 103.58 179.911C103.514 179.843 103.478 179.75 103.478 179.653V175.806C103.478 175.709 103.514 175.616 103.58 175.548C103.645 175.479 103.734 175.441 103.826 175.441C103.919 175.441 104.007 175.479 104.073 175.548C104.138 175.616 104.175 175.709 104.175 175.806Z" fill="#4F2D12"/>
<path d="M111.375 166.086V175.323C111.375 175.42 111.338 175.513 111.273 175.581C111.207 175.65 111.119 175.688 111.026 175.688C110.934 175.688 110.845 175.65 110.78 175.581C110.714 175.513 110.677 175.42 110.677 175.323V166.086C110.677 165.99 110.714 165.897 110.78 165.829C110.845 165.76 110.934 165.722 111.026 165.722C111.119 165.722 111.207 165.76 111.273 165.829C111.338 165.897 111.375 165.99 111.375 166.086Z" fill="#D53446"/>
<path d="M107.404 150.06C109.044 150.06 110.374 149.307 110.374 148.378C110.374 147.448 109.044 146.695 107.404 146.695C105.763 146.695 104.434 147.448 104.434 148.378C104.434 149.307 105.763 150.06 107.404 150.06Z" fill="#A2ABBA"/>
<path d="M107.269 149.754L53.9325 150.613L108.259 146.942C108.259 146.942 109.665 149.707 107.269 149.754Z" fill="#C7CEDB"/>
<path d="M55.0688 153.096C56.3797 153.096 57.4425 151.985 57.4425 150.613C57.4425 149.242 56.3797 148.131 55.0688 148.131C53.7578 148.131 52.695 149.242 52.695 150.613C52.695 151.985 53.7578 153.096 55.0688 153.096Z" fill="#4F2D12"/>
<path d="M218.014 186.855L186.458 204.222L185.524 212.388L218.914 192.667" fill="#E27623"/>
<path d="M219.307 173.535L232.301 222.578L229.916 224.014C229.298 223.666 228.704 223.273 228.139 222.837C227.441 222.272 211.264 171.299 211.264 171.299" fill="#E27623"/>
<path d="M189.315 163.98L180.439 192.938L181.204 250.865L183.195 252.23L185.94 250.442L187.988 192.903L195.998 163.98" fill="#E27623"/>
<path d="M224.156 160.509C224.156 160.509 225.135 166.922 223.031 170.487C220.928 174.053 215.325 165.18 215.325 165.18" fill="#FFB469"/>
<path d="M194.749 125.503L195.998 148.954L190.114 152.143L189.023 126.998" fill="#CA6B00"/>
<path d="M157.815 142.765L153.877 174.476L149.884 221.119L152.449 222.708L154.991 221.037L160.684 175.206L164.497 142.765" fill="#E27623"/>
<path d="M161.809 146.719C160.155 147.248 156.6 144.518 155.531 142.765C149.704 133.187 151.38 120.173 161.876 114.101C166.522 111.419 171.315 108.736 175.939 105.982C180.045 103.523 184.399 101.44 188.37 98.7694C188.889 98.3967 189.443 98.0813 190.024 97.8281C191.109 97.5175 192.258 97.5544 193.323 97.9341C194.388 98.3138 195.32 99.0187 195.997 99.9578" fill="#FFB469"/>
<path d="M161.381 146.319C158.58 146.213 156.96 142.33 156.139 140.035C153.889 133.752 153.416 121.785 160.268 118.196C160.398 118.136 160.511 118.042 160.596 117.922C160.68 117.802 160.734 117.662 160.751 117.514L173.902 109.571L184.027 103.429C185.805 102.358 187.493 101.076 189.27 100.052C191.048 99.0283 192.802 97.6986 194.749 98.9459C196.897 100.299 197.201 102.841 197.528 105.218C198.413 110.704 198.137 116.328 196.717 121.691C195.592 125.221 192.949 127.692 189.967 129.516L180.518 135.234L163.001 145.824C162.721 146.011 162.418 146.157 162.101 146.26C161.865 146.314 161.623 146.334 161.381 146.319Z" fill="#FCBD4C"/>
<path d="M159.469 171.711L158.94 172.029C157.461 172.794 156.133 173.844 155.025 175.123C152.37 178.653 154.935 182.595 157.567 185.043C164.689 191.667 175.489 197.092 185.152 194.644C193.556 192.514 201.409 188.396 208.778 183.76C214.819 179.959 222.379 175.37 223.954 167.522C224.239 165.773 224.128 163.978 223.63 162.282C223.132 160.586 222.26 159.035 221.085 157.756C205.92 139.376 184.579 156.579 169.583 165.628L159.469 171.711Z" fill="#FFB469"/>
<path d="M154.204 172.429C154.08 172.546 153.405 177.63 153.889 179.147C154.883 181.618 156.367 183.84 158.242 185.666C160.009 187.149 158.951 176.782 158.951 176.782" fill="#FFB469"/>
<path d="M159.469 167.287L158.94 167.604C157.461 168.37 156.133 169.42 155.025 170.699C152.37 174.229 154.935 178.171 157.567 180.618C164.689 187.243 175.489 192.667 185.152 190.22C193.556 188.09 201.409 183.972 208.778 179.336C214.819 175.535 222.379 170.946 223.954 163.098C224.239 161.349 224.128 159.554 223.63 157.858C223.132 156.161 222.26 154.611 221.085 153.331C205.92 134.952 184.579 152.155 169.583 161.203L159.469 167.287Z" fill="#FCBD4C"/>
<path style="mix-blend-mode:multiply" d="M268.402 180.865C258.401 186.972 171.281 245.5 155.902 254.689C167.557 262.091 228.127 298.356 229.444 299.168L346.106 227.273C343.406 225.791 280.867 187.314 268.402 180.865Z" fill="url(#paint2_linear_2_43)"/>
<path d="M199.35 116.313C199.35 116.313 202.545 132.399 208.35 133.105C214.155 133.811 235.474 110.477 235.474 110.477L236.734 105.253L213.75 117.231C212.243 109.524 206.336 98.334 206.336 98.334C206.336 98.334 203.254 94.804 197.505 96.0866C191.756 97.3692 193.5 107.277 193.5 107.277" fill="#E89574"/>
<path d="M205.627 97.5104C205.627 97.5104 214.762 114.89 215.437 117.514C216.112 120.138 212.906 119.867 212.906 119.867L207.99 121.597" fill="#A0391A"/>
<path d="M208.564 128.821C208.564 128.821 211.601 147.554 211.939 150.119C212.276 152.684 237.172 151.366 241.909 162.933C246.645 174.5 243.315 221.107 243.315 221.107C243.315 221.107 237.926 224.426 233.516 223.014C229.106 221.602 229.815 171.64 229.815 171.64L201.375 155.802L198.405 134.493L208.564 128.821Z" fill="#311F1D"/>
<path d="M179.854 138.517C179.01 140.776 169.549 169.369 182.509 177.253C195.469 185.137 218.43 177.253 218.43 177.253C218.43 177.253 214.92 205.117 226.305 222.519C226.305 222.519 231.638 224.155 235.451 222.425L235.125 174.688C235.125 174.688 234.563 162.709 225.81 159.991C217.058 157.273 204.604 153.531 204.604 153.531C204.604 153.531 202.95 133.069 201.735 133.14C200.52 133.21 179.854 138.517 179.854 138.517Z" fill="#311F1D"/>
<path d="M246.071 238.193C251.471 243.699 252.686 250.912 251.798 251.983C250.909 253.054 245.194 253.831 239.794 250.724C234.394 247.618 235.44 238.863 234 237.204C232.56 235.545 233.629 246.182 233.629 246.182L230.738 244.747V229.262C230.738 225.285 233.662 220.213 233.662 220.213L242.809 220.119L246.06 238.193" fill="#311F1D"/>
<path d="M237.184 224.367L235.901 224.473C236.397 228.1 237.295 231.654 238.579 235.063C240.671 239.616 246.071 238.193 246.071 238.193L243.349 223.061C241.372 223.83 239.291 224.271 237.184 224.367Z" fill="#F5A580"/>
<path d="M238.725 240.499C244.125 246.006 245.34 253.219 244.451 254.289C243.562 255.36 237.847 256.137 232.447 253.03C227.047 249.924 228.094 241.181 226.676 239.499C225.259 237.816 226.305 248.477 226.305 248.477L223.38 247.018V231.568C223.38 227.591 226.305 222.519 226.305 222.519L235.451 222.425L238.702 240.499" fill="#311F1D"/>
<path d="M228.094 223.72C228.487 226.638 229.59 233.792 231.232 237.369C233.325 241.923 238.725 240.499 238.725 240.499L235.834 224.473C233.232 224.783 230.596 224.527 228.094 223.72Z" fill="#F5A580"/>
<path d="M185.31 152.249C191.039 151.736 196.71 150.673 202.253 149.072C208.631 147.119 206.888 148.166 210.926 144.236C211.669 131.292 208.8 101.005 205.616 97.4986C200.891 92.2977 184.241 94.9805 176.738 100.205C165.69 107.853 175.061 151.531 176.591 152.249C176.625 152.272 185.254 152.225 185.31 152.249Z" fill="#FF1D1D"/>
<path d="M226.451 92.7566L241.211 83.661C241.445 83.5172 241.713 83.4472 241.984 83.4593C242.255 83.4714 242.517 83.5652 242.738 83.7293C242.959 83.8934 243.13 84.1209 243.231 84.3844C243.331 84.6478 243.356 84.936 243.304 85.2142L238.264 112.278C238.224 112.487 238.141 112.685 238.02 112.858C237.9 113.031 237.745 113.174 237.566 113.278L223.504 121.444C223.271 121.579 223.007 121.643 222.741 121.628C222.476 121.613 222.22 121.519 222.003 121.358C221.786 121.196 221.617 120.974 221.517 120.716C221.416 120.459 221.387 120.176 221.434 119.902L225.776 93.745C225.815 93.5395 225.895 93.345 226.012 93.1746C226.128 93.0041 226.278 92.8616 226.451 92.7566Z" fill="#311F1D"/>
<path d="M240.84 98.4635C240.84 98.4635 238.23 95.3806 237.6 96.3808C237.431 96.779 237.344 97.2099 237.344 97.6457C237.344 98.0814 237.431 98.5123 237.6 98.9106C237.6 98.9106 236.475 99.1224 236.363 99.9696C236.25 100.817 237.218 100.887 237.218 100.887C237.218 100.887 236.216 101.993 236.351 102.558C236.486 103.123 238.421 103.817 238.23 103.958C238.039 104.1 236.678 104.17 237.218 104.865C237.758 105.559 239.636 107.277 240.165 106.771C240.694 106.265 240.435 104.935 240.435 104.935C240.435 104.935 241.436 103.959 241.56 103.394C241.513 102.882 241.326 102.396 241.02 101.993C241.02 101.993 241.684 101.817 241.819 101.523C241.954 101.229 241.976 100.534 240.84 98.4635Z" fill="#E89574"/>
<path d="M204.536 85.2848C204.604 84.9671 207.911 83.461 207.979 78.8602C208.046 74.2594 202.59 65.9169 193.939 65.3168C185.287 64.7167 179.82 72.7768 180.765 78.366C181.71 83.9552 183.139 90.6739 191.464 90.2974" fill="#F78F38"/>
<path d="M181.586 72.9533C181.586 72.9533 170.617 91.3329 178.717 95.6865C186.817 100.04 194.467 97.428 196.38 94.6864C198.292 91.9447 187.627 73.424 181.586 72.9533Z" fill="#F78F38"/>
<path d="M204.885 80.6134C205.324 80.4134 204.739 94.6275 196.369 96.1337C187.999 97.6398 187.875 86.9439 187.875 86.9439C187.875 86.9439 184.905 84.3435 185.85 82.2372C186.795 80.131 188.944 81.6136 188.944 81.6136C188.944 81.6136 194.13 78.6719 193.916 73.8711C193.702 69.0703 196.571 84.3317 204.885 80.6134Z" fill="#FECAB5"/>
<path d="M180.664 114.466C180.664 114.466 190.553 125.056 196.594 124.633C202.635 124.209 219.195 112.783 219.195 112.783C219.195 112.783 219.33 104.182 224.494 101.535V106.865C224.494 106.865 231.176 102.747 232.369 104.57C233.561 106.394 230.49 113.984 229.208 116.419C227.925 118.855 223.324 118.926 223.324 118.926C223.324 118.926 206.134 137.67 195.345 138.305C184.556 138.941 175.736 123.668 175.736 123.668L180.664 114.466Z" fill="#FECAB5"/>
<path d="M183.926 110.477L194.321 119.891C194.321 119.891 187.571 139.529 184.95 139.529C182.329 139.529 175.736 128.115 175.736 128.115C175.736 128.115 174.409 123.009 175.736 118.867C177.064 114.725 183.926 110.477 183.926 110.477Z" fill="#FF0000"/>
<path d="M193.41 122.973C188.91 121.291 185.85 115.278 183.566 111.207C183.467 111.055 183.316 110.947 183.145 110.907C182.973 110.866 182.793 110.894 182.64 110.987C182.488 111.079 182.375 111.228 182.323 111.404C182.272 111.581 182.286 111.771 182.363 111.936C184.725 116.184 187.808 121.985 192.364 124.115C190.684 128.461 188.88 132.748 186.952 136.976C182.902 134.199 178.931 131.222 176.94 126.386C176.58 125.527 175.388 126.268 175.736 127.115C177.896 132.328 182.34 135.528 186.739 138.529C186.819 138.585 186.911 138.62 187.007 138.633C187.103 138.646 187.2 138.635 187.292 138.602C187.383 138.569 187.466 138.515 187.534 138.443C187.602 138.371 187.653 138.284 187.684 138.188C187.771 138.165 187.852 138.121 187.92 138.059C187.988 137.998 188.042 137.921 188.077 137.835C190.125 133.348 192.037 128.798 193.815 124.185C193.838 124.085 193.838 123.98 193.815 123.879C193.868 123.703 193.856 123.512 193.781 123.344C193.706 123.177 193.573 123.044 193.41 122.973Z" fill="#A0391A"/>
<path d="M200.959 70.7883C201.655 71.3631 202.41 71.8563 203.209 72.2591C203.37 72.2178 203.52 72.1397 203.649 72.0305C203.778 71.9212 203.882 71.7835 203.954 71.6272C204.026 71.4709 204.064 71.2998 204.066 71.1263C204.067 70.9528 204.032 70.7811 203.963 70.6235C202.253 66.0934 197.269 65.1403 193.196 66.7758C188.752 68.5644 186.21 72.7415 184.781 77.2717C183.096 77.3366 181.493 78.0524 180.283 79.281C179.073 80.5096 178.342 82.1637 178.23 83.9237C178.117 85.6836 178.633 87.4246 179.677 88.8101C180.72 90.1957 182.218 91.1275 183.88 91.4255C185.542 91.7236 187.251 91.3667 188.676 90.4238C190.102 89.4809 191.142 88.019 191.597 86.3204C192.052 84.6219 191.888 82.8074 191.139 81.2274C190.389 79.6474 189.106 78.4141 187.538 77.7659C188.199 75.4303 189.405 73.3033 191.048 71.5766C193.174 69.4233 198.889 66.9759 200.959 70.7883Z" fill="#4F2D12"/>
<path d="M347.265 172.97C347.164 201.822 347.029 227.791 347.029 227.791C347.029 227.791 346.444 230.144 342.293 228.214V171.299C343.935 171.876 345.6 172.44 347.265 172.97Z" fill="#5B434D"/>
<path d="M231.919 243.158C231.817 272.01 231.683 297.979 231.683 297.979C231.683 297.979 231.097 300.332 226.946 298.403V241.476C228.6 242.052 230.254 242.605 231.919 243.158Z" fill="#5B434D"/>
<path d="M160.875 199.445C160.774 228.297 160.639 254.266 160.639 254.266C160.639 254.266 160.054 256.619 155.902 254.69V197.751C157.5 198.339 159.21 198.857 160.875 199.445Z" fill="#5B434D"/>
<path d="M348.233 171.299V176.206L229.208 248.241L156.004 197.962L155.891 192.467" fill="#68E1FD"/>
<path opacity="0.36" d="M348.233 171.299V176.206L229.208 248.241L156.004 197.962L155.891 192.467" fill="#06489E"/>
<path d="M348.233 171.299L271.654 125.609L155.891 192.467L229.624 243.311L348.233 171.299Z" fill="#68E1FD"/>
<path d="M291.803 172.217L305.359 163.78C305.643 163.61 305.965 163.52 306.293 163.52C306.62 163.52 306.942 163.61 307.226 163.78L314.437 167.946C314.733 168.115 314.98 168.364 315.152 168.668C315.324 168.971 315.414 169.317 315.414 169.669C315.414 170.022 315.324 170.368 315.152 170.671C314.98 170.975 314.733 171.224 314.437 171.393L301.219 179.089C300.784 179.331 300.299 179.457 299.807 179.457C299.314 179.457 298.83 179.331 298.395 179.089L291.904 175.641C291.608 175.48 291.359 175.239 291.182 174.943C291.005 174.648 290.906 174.309 290.896 173.96C290.885 173.611 290.964 173.266 291.123 172.96C291.283 172.654 291.517 172.397 291.803 172.217Z" fill="#311F1D"/>
<path d="M304.324 174.406L324.169 81.8842L267.806 52.3617L240.592 99.4989" stroke="#4D4D4D" stroke-width="2" stroke-miterlimit="10"/>
<path d="M300.364 173.347L319.59 84.2964L269.302 57.9626L242.089 105.088" stroke="#4D4D4D" stroke-width="2" stroke-miterlimit="10"/>
<path d="M320.962 89.0266C323.858 89.0266 326.205 86.5717 326.205 83.5433C326.205 80.515 323.858 78.0601 320.962 78.0601C318.067 78.0601 315.72 80.515 315.72 83.5433C315.72 86.5717 318.067 89.0266 320.962 89.0266Z" fill="#311F1D"/>
<path d="M268.684 61.1631C271.511 61.1631 273.802 58.7661 273.802 55.8093C273.802 52.8525 271.511 50.4555 268.684 50.4555C265.857 50.4555 263.565 52.8525 263.565 55.8093C263.565 58.7661 265.857 61.1631 268.684 61.1631Z" fill="#311F1D"/>
<path opacity="0.32" d="M265.646 169.275L307.001 193.373C300.083 197.939 272.284 213.589 265.601 218.507L222.851 189.902L229.894 172.005L265.646 169.275Z" fill="url(#paint3_linear_2_43)"/>
<path d="M231.491 195.162L201.386 176.806L240.626 153.214L271.395 169.781" fill="#B3B3B3"/>
<path d="M239.288 158.956C239.288 158.956 231.413 195.609 231.491 195.162C231.57 194.715 270.495 172.805 270.754 172.076C271.013 171.346 281.036 134.14 281.036 134.14L239.288 158.956Z" fill="white"/>
<g style="mix-blend-mode:darken" filter="url(#filter0_f_2_43)">
<path d="M245.083 311.169C246.971 310.003 248.589 309.498 249.939 309.656C251.286 309.809 252.383 310.616 253.23 312.076C253.718 312.918 253.998 313.706 254.069 314.44C254.141 315.166 254.04 315.853 253.765 316.5C253.492 317.139 253.062 317.742 252.475 318.306C251.892 318.868 251.186 319.405 250.358 319.917L246.489 322.306L245.791 321.104L246.117 320.902C246.254 320.818 246.352 320.732 246.411 320.647C246.468 320.557 246.497 320.469 246.501 320.381C246.501 320.289 246.48 320.195 246.437 320.099C246.398 320.001 246.347 319.898 246.284 319.79C246.276 319.776 246.229 319.695 246.143 319.546C246.054 319.393 245.938 319.199 245.795 318.963C245.657 318.724 245.5 318.453 245.325 318.152C245.149 317.85 244.972 317.543 244.791 317.233L243.349 314.746C243.294 314.651 243.235 314.571 243.173 314.505C243.115 314.437 243.047 314.387 242.969 314.356C242.895 314.322 242.809 314.314 242.711 314.332C242.615 314.342 242.505 314.386 242.381 314.463L242.055 314.664L241.361 313.468L245.083 311.169ZM248.826 319.082L249.783 318.491C250.271 318.19 250.661 317.866 250.953 317.52C251.251 317.172 251.444 316.795 251.535 316.39C251.627 315.978 251.616 315.535 251.503 315.06C251.395 314.583 251.179 314.065 250.854 313.506C250.243 312.452 249.556 311.833 248.793 311.649C248.032 311.458 247.158 311.668 246.169 312.278L245.219 312.865L248.826 319.082ZM259.507 302.259L260.934 304.719L259.638 305.52L259.477 305.243C259.351 305.026 259.233 304.873 259.12 304.784C259.008 304.694 258.898 304.649 258.789 304.649C258.678 304.644 258.562 304.673 258.442 304.735C258.321 304.797 258.19 304.872 258.048 304.959L255.822 306.335L257.245 308.788L258.554 307.979C258.652 307.919 258.731 307.863 258.792 307.813C258.856 307.756 258.9 307.692 258.925 307.621C258.95 307.551 258.953 307.463 258.935 307.358C258.921 307.251 258.881 307.116 258.817 306.954L259.382 306.605L260.77 308.997L260.199 309.35C260.088 309.222 259.993 309.125 259.912 309.059C259.832 308.992 259.755 308.954 259.683 308.943C259.608 308.928 259.535 308.937 259.463 308.969C259.389 308.996 259.303 309.04 259.205 309.101L257.896 309.909L259.421 312.538L261.741 311.105C261.905 311.004 262.035 310.908 262.133 310.817C262.231 310.726 262.291 310.622 262.313 310.504C262.339 310.384 262.327 310.244 262.277 310.085C262.225 309.922 262.129 309.721 261.991 309.482L261.865 309.266L263.148 308.473L264.661 311.082L257.038 315.791L256.34 314.588L256.832 314.284C256.947 314.213 257.024 314.138 257.062 314.059C257.105 313.978 257.121 313.891 257.11 313.8C257.104 313.706 257.077 313.613 257.029 313.52C256.986 313.424 256.934 313.325 256.874 313.221L254.051 308.356C253.993 308.256 253.934 308.159 253.872 308.062C253.81 307.966 253.741 307.889 253.666 307.832C253.59 307.774 253.506 307.744 253.414 307.74C253.323 307.728 253.215 307.761 253.091 307.838L252.626 308.125L251.936 306.936L259.507 302.259ZM260.703 301.52C260.77 301.479 260.886 301.411 261.053 301.314C261.221 301.21 261.407 301.095 261.611 300.969C261.819 300.84 262.029 300.714 262.24 300.59C262.452 300.458 262.636 300.345 262.791 300.249C262.893 300.186 263.017 300.109 263.164 300.019C263.31 299.929 263.467 299.832 263.635 299.728C263.806 299.616 263.984 299.503 264.17 299.388C264.353 299.269 264.536 299.153 264.718 299.041L265.416 300.244L265.183 300.387C265.01 300.494 264.886 300.592 264.812 300.681C264.741 300.767 264.701 300.853 264.691 300.939C264.678 301.021 264.69 301.105 264.728 301.191C264.771 301.275 264.82 301.364 264.875 301.459L265.969 303.344L269.478 301.176L268.314 299.169C268.254 299.066 268.193 298.987 268.131 298.933C268.074 298.877 268.008 298.844 267.931 298.837C267.859 298.826 267.774 298.842 267.678 298.883C267.579 298.92 267.461 298.98 267.323 299.065L267.091 299.209L266.393 298.006C266.828 297.75 267.227 297.509 267.59 297.285C267.954 297.06 268.306 296.843 268.647 296.632C268.731 296.58 268.838 296.514 268.966 296.435C269.099 296.353 269.245 296.262 269.405 296.164C269.562 296.061 269.729 295.955 269.906 295.845C270.081 295.731 270.252 295.622 270.421 295.518L271.119 296.721L270.906 296.852C270.733 296.959 270.606 297.056 270.524 297.143C270.439 297.226 270.389 297.31 270.371 297.394C270.356 297.471 270.363 297.551 270.395 297.636C270.428 297.714 270.471 297.8 270.526 297.895L273.483 302.99C273.558 303.12 273.626 303.232 273.685 303.323C273.742 303.411 273.809 303.474 273.885 303.512C273.963 303.543 274.06 303.545 274.176 303.516C274.294 303.48 274.448 303.403 274.638 303.285L274.851 303.154L275.549 304.357C275.389 304.455 275.234 304.551 275.084 304.644C274.935 304.73 274.783 304.821 274.628 304.917C274.473 305.013 274.306 305.115 274.129 305.225C273.954 305.327 273.76 305.444 273.547 305.575C273.148 305.821 272.786 306.048 272.461 306.255C272.14 306.459 271.827 306.656 271.521 306.845L270.823 305.642L271.056 305.498C271.215 305.4 271.334 305.314 271.412 305.241C271.495 305.166 271.544 305.09 271.559 305.013C271.577 304.929 271.565 304.841 271.524 304.75C271.485 304.652 271.427 304.535 271.348 304.4L270.152 302.339L266.643 304.506L267.913 306.696C267.992 306.831 268.062 306.931 268.124 306.997C268.188 307.055 268.257 307.086 268.331 307.089C268.403 307.088 268.485 307.065 268.579 307.019C268.67 306.969 268.783 306.902 268.915 306.82L269.148 306.677L269.846 307.879C269.682 307.981 269.522 308.079 269.367 308.175C269.214 308.264 269.056 308.359 268.892 308.46C268.732 308.558 268.561 308.664 268.38 308.776C268.195 308.884 267.993 309.006 267.771 309.143C267.563 309.271 267.373 309.391 267.203 309.503C267.035 309.607 266.873 309.707 266.718 309.802C266.563 309.898 266.414 309.993 266.27 310.088C266.128 310.176 265.982 310.266 265.831 310.359L265.133 309.156L265.339 309.029C265.517 308.92 265.644 308.817 265.72 308.721C265.794 308.62 265.834 308.522 265.839 308.427C265.848 308.329 265.829 308.234 265.781 308.141C265.735 308.041 265.681 307.937 265.618 307.829L262.642 302.7C262.59 302.61 262.538 302.535 262.485 302.476C262.435 302.409 262.372 302.368 262.297 302.353C262.222 302.339 262.129 302.35 262.019 302.388C261.913 302.423 261.775 302.492 261.607 302.596L261.401 302.723L260.703 301.52ZM276.059 291.806C276.79 291.355 277.505 291.072 278.204 290.959C278.907 290.843 279.571 290.873 280.197 291.049C280.825 291.218 281.401 291.52 281.924 291.956C282.452 292.389 282.903 292.927 283.277 293.571C283.65 294.215 283.897 294.88 284.018 295.564C284.142 296.246 284.132 296.913 283.987 297.566C283.842 298.218 283.558 298.838 283.133 299.424C282.709 300.011 282.134 300.528 281.407 300.977C280.671 301.432 279.95 301.718 279.242 301.837C278.535 301.956 277.867 301.931 277.239 301.762C276.609 301.588 276.03 301.285 275.502 300.852C274.971 300.415 274.516 299.87 274.137 299.216C273.764 298.572 273.516 297.911 273.394 297.234C273.269 296.552 273.28 295.887 273.428 295.239C273.577 294.584 273.868 293.964 274.299 293.38C274.732 292.788 275.319 292.263 276.059 291.806ZM276.813 293.121C276.432 293.357 276.147 293.633 275.958 293.952C275.774 294.267 275.676 294.622 275.663 295.015C275.653 295.401 275.723 295.823 275.874 296.28C276.027 296.731 276.25 297.208 276.542 297.713C276.848 298.24 277.164 298.681 277.491 299.036C277.817 299.391 278.151 299.656 278.493 299.83C278.833 300 279.181 300.076 279.537 300.058C279.891 300.035 280.252 299.91 280.62 299.683C280.992 299.453 281.27 299.18 281.454 298.864C281.64 298.542 281.737 298.185 281.745 297.794C281.758 297.401 281.688 296.976 281.537 296.518C281.388 296.053 281.165 295.564 280.867 295.051C280.255 293.997 279.61 293.3 278.931 292.96C278.25 292.616 277.544 292.67 276.813 293.121ZM283.515 287.43C283.541 287.414 283.595 287.381 283.674 287.332C283.754 287.282 283.847 287.225 283.953 287.159C284.064 287.091 284.179 287.02 284.299 286.946C284.423 286.869 284.538 286.798 284.645 286.732C284.756 286.664 284.851 286.605 284.931 286.556C285.015 286.504 285.07 286.469 285.097 286.453L292.668 290.616L292.681 290.608L289.926 285.875C289.853 285.749 289.786 285.655 289.727 285.594C289.665 285.529 289.597 285.491 289.525 285.48C289.453 285.47 289.37 285.487 289.276 285.533C289.184 285.572 289.069 285.633 288.932 285.718L288.626 285.907L287.928 284.704C288.261 284.499 288.559 284.318 288.823 284.161C289.091 284.001 289.334 283.854 289.551 283.72C289.582 283.701 289.631 283.671 289.697 283.63C289.768 283.586 289.848 283.537 289.937 283.482C290.025 283.427 290.121 283.368 290.223 283.305C290.322 283.238 290.422 283.173 290.524 283.11C290.764 282.962 291.024 282.798 291.305 282.618L292.003 283.821L291.664 284.031C291.513 284.124 291.408 284.213 291.349 284.298C291.288 284.379 291.256 284.463 291.252 284.551C291.251 284.631 291.272 284.719 291.315 284.815C291.36 284.903 291.413 284.999 291.473 285.103C291.478 285.112 291.541 285.22 291.661 285.427C291.782 285.635 291.938 285.905 292.132 286.238C292.323 286.567 292.54 286.941 292.783 287.36C293.026 287.779 293.274 288.207 293.528 288.644L295.551 292.131L293.364 293.481L285.441 289.178L285.427 289.186L288.265 294.061C288.346 294.201 288.417 294.307 288.477 294.38C288.539 294.445 288.606 294.483 288.678 294.494C288.755 294.502 288.84 294.483 288.934 294.437C289.028 294.391 289.148 294.323 289.294 294.233L289.62 294.032L290.318 295.234C290.065 295.39 289.807 295.547 289.543 295.704C289.283 295.858 288.983 296.041 288.642 296.251C288.451 296.369 288.28 296.478 288.127 296.578C287.972 296.674 287.824 296.766 287.682 296.853C287.545 296.938 287.411 297.024 287.28 297.111C287.148 297.193 287.01 297.278 286.868 297.365L286.17 296.162L286.516 295.949C286.68 295.848 286.795 295.755 286.861 295.672C286.931 295.585 286.968 295.498 286.971 295.411C286.975 295.323 286.951 295.23 286.901 295.133C286.847 295.031 286.783 294.915 286.707 294.784L283.818 289.804C283.739 289.669 283.671 289.561 283.612 289.481C283.551 289.397 283.484 289.343 283.411 289.321C283.34 289.292 283.257 289.294 283.162 289.328C283.065 289.357 282.943 289.417 282.797 289.508L282.451 289.721L281.753 288.518L283.515 287.43ZM292.156 282.093C292.358 281.974 292.542 281.867 292.708 281.77C292.872 281.669 293.025 281.574 293.167 281.487C293.309 281.399 293.444 281.315 293.573 281.236C293.705 281.154 293.836 281.073 293.965 280.994C294.231 280.83 294.465 280.685 294.669 280.559C294.878 280.43 295.068 280.312 295.241 280.206C295.418 280.096 295.587 279.992 295.746 279.894C295.907 279.788 296.075 279.678 296.25 279.564L296.948 280.767L296.669 280.939C296.509 281.038 296.392 281.132 296.317 281.221C296.244 281.302 296.2 281.388 296.186 281.476C296.173 281.558 296.183 281.643 296.217 281.732C296.253 281.814 296.299 281.905 296.357 282.004L299.36 287.18C299.43 287.302 299.494 287.401 299.55 287.476C299.603 287.547 299.666 287.594 299.739 287.616C299.81 287.634 299.894 287.624 299.993 287.588C300.097 287.548 300.233 287.476 300.401 287.372L300.68 287.2L301.378 288.403C301.214 288.504 301.055 288.603 300.9 288.698C300.742 288.79 300.581 288.886 300.417 288.987C300.258 289.086 300.085 289.192 299.899 289.307C299.714 289.415 299.514 289.536 299.297 289.67C298.889 289.922 298.529 290.147 298.217 290.346C297.91 290.542 297.598 290.737 297.284 290.932L296.586 289.729L296.852 289.565C297.025 289.458 297.148 289.36 297.223 289.271C297.298 289.182 297.339 289.092 297.347 289.002C297.355 288.911 297.333 288.818 297.283 288.72C297.237 288.62 297.177 288.507 297.104 288.381L294.261 283.482C294.186 283.351 294.116 283.241 294.052 283.152C293.986 283.058 293.912 282.994 293.831 282.958C293.748 282.918 293.65 282.911 293.539 282.937C293.428 282.963 293.288 283.028 293.119 283.132L292.853 283.296L292.156 282.093ZM302.844 275.491C303.846 276.316 304.76 277.067 305.586 277.744C305.941 278.033 306.291 278.321 306.639 278.609C306.983 278.892 307.301 279.154 307.592 279.397C307.885 279.632 308.136 279.835 308.344 280.007C308.549 280.173 308.686 280.285 308.754 280.34C309.045 280.583 309.274 280.775 309.441 280.917C309.607 281.059 309.756 281.154 309.886 281.202C310.02 281.247 310.157 281.249 310.295 281.206C310.43 281.159 310.612 281.068 310.841 280.933L311.535 282.129C311.273 282.291 311.017 282.446 310.766 282.595C310.52 282.741 310.235 282.914 309.912 283.114C309.53 283.349 309.157 283.582 308.792 283.814C308.429 284.039 308.036 284.284 307.613 284.552L306.966 283.437C306.984 283.426 307.008 283.411 307.039 283.392C307.075 283.37 307.11 283.348 307.145 283.326C307.181 283.304 307.214 283.283 307.245 283.264C307.274 283.241 307.294 283.225 307.308 283.216C307.515 283.076 307.648 282.963 307.707 282.878C307.766 282.793 307.769 282.705 307.717 282.615C307.686 282.561 307.637 282.502 307.57 282.439C307.501 282.372 307.419 282.297 307.323 282.216L306.157 281.201L303.092 283.094C303.108 283.152 303.133 283.268 303.168 283.442C303.2 283.612 303.235 283.796 303.271 283.993C303.312 284.188 303.351 284.369 303.388 284.536C303.424 284.703 303.449 284.808 303.461 284.849C303.475 284.926 303.491 284.995 303.509 285.058C303.529 285.113 303.548 285.156 303.567 285.188C303.624 285.287 303.692 285.336 303.771 285.337C303.851 285.33 303.963 285.285 304.108 285.202C304.121 285.194 304.151 285.178 304.198 285.156C304.243 285.128 304.291 285.098 304.344 285.065C304.398 285.032 304.446 285.002 304.491 284.975C304.539 284.945 304.573 284.924 304.59 284.913L305.233 286.022C304.963 286.188 304.689 286.355 304.412 286.52C304.135 286.685 303.836 286.866 303.517 287.063C303.362 287.159 303.216 287.249 303.079 287.334C302.946 287.416 302.816 287.499 302.69 287.583C302.562 287.662 302.432 287.745 302.302 287.832C302.169 287.914 302.027 288.002 301.877 288.095L301.179 286.892C301.328 286.775 301.447 286.68 301.537 286.607C301.631 286.53 301.701 286.453 301.746 286.376C301.789 286.295 301.814 286.203 301.821 286.101C301.825 285.994 301.815 285.856 301.79 285.689C301.776 285.581 301.75 285.407 301.713 285.167C301.676 284.927 301.63 284.646 301.576 284.324C301.526 284 301.473 283.648 301.414 283.268C301.354 282.883 301.293 282.492 301.231 282.096C301.17 281.699 301.109 281.309 301.048 280.924C300.987 280.539 300.932 280.185 300.882 279.86C300.83 279.532 300.785 279.247 300.748 279.007C300.708 278.762 300.68 278.584 300.663 278.472L300.271 277.08L302.844 275.491ZM302.888 282.027L305.341 280.512L302.089 277.692L302.072 277.694L302.888 282.027ZM308.507 271.993C308.533 271.977 308.586 271.944 308.666 271.895C308.746 271.846 308.839 271.788 308.945 271.722C309.056 271.654 309.171 271.583 309.291 271.509C309.415 271.432 309.53 271.361 309.637 271.295C309.747 271.227 309.843 271.168 309.922 271.119C310.007 271.067 310.062 271.033 310.089 271.016L317.659 275.179L317.673 275.171L314.918 270.438C314.845 270.312 314.778 270.218 314.719 270.157C314.656 270.092 314.589 270.054 314.517 270.043C314.445 270.033 314.362 270.05 314.268 270.096C314.176 270.135 314.061 270.196 313.924 270.281L313.618 270.47L312.92 269.267C313.252 269.062 313.551 268.881 313.815 268.724C314.083 268.564 314.326 268.417 314.543 268.283C314.574 268.264 314.623 268.234 314.689 268.193C314.76 268.149 314.84 268.1 314.929 268.045C315.017 267.99 315.113 267.931 315.214 267.868C315.314 267.801 315.414 267.736 315.516 267.673C315.756 267.525 316.016 267.361 316.297 267.182L316.995 268.384L316.656 268.594C316.505 268.687 316.4 268.776 316.341 268.861C316.28 268.942 316.247 269.026 316.244 269.114C316.243 269.195 316.264 269.283 316.307 269.378C316.352 269.466 316.405 269.562 316.465 269.666C316.47 269.675 316.533 269.783 316.653 269.99C316.774 270.198 316.93 270.468 317.124 270.801C317.315 271.13 317.532 271.504 317.775 271.923C318.018 272.342 318.266 272.77 318.52 273.207L320.543 276.694L318.356 278.045L310.433 273.741L310.419 273.749L313.257 278.624C313.338 278.764 313.408 278.87 313.469 278.943C313.531 279.008 313.598 279.047 313.67 279.057C313.747 279.065 313.832 279.046 313.926 279C314.02 278.954 314.14 278.886 314.286 278.796L314.612 278.595L315.31 279.797C315.057 279.953 314.799 280.11 314.535 280.267C314.275 280.421 313.975 280.604 313.634 280.814C313.443 280.932 313.272 281.041 313.119 281.141C312.964 281.237 312.816 281.329 312.674 281.417C312.536 281.501 312.403 281.587 312.272 281.674C312.139 281.756 312.002 281.841 311.86 281.928L311.162 280.725L311.508 280.512C311.672 280.411 311.787 280.318 311.853 280.235C311.923 280.148 311.96 280.061 311.963 279.974C311.966 279.886 311.943 279.794 311.892 279.696C311.839 279.594 311.775 279.478 311.699 279.347L308.81 274.367C308.731 274.232 308.663 274.124 308.604 274.044C308.543 273.96 308.476 273.906 308.403 273.884C308.332 273.855 308.249 273.857 308.154 273.891C308.057 273.92 307.935 273.98 307.789 274.071L307.443 274.284L306.745 273.081L308.507 271.993ZM322.558 263.314C323.56 264.139 324.475 264.89 325.301 265.567C325.655 265.856 326.006 266.144 326.353 266.432C326.698 266.714 327.016 266.977 327.307 267.219C327.6 267.455 327.85 267.658 328.058 267.829C328.263 267.996 328.4 268.108 328.468 268.163C328.759 268.406 328.988 268.598 329.155 268.74C329.321 268.882 329.47 268.977 329.6 269.025C329.735 269.07 329.871 269.072 330.009 269.029C330.144 268.982 330.326 268.891 330.555 268.756L331.249 269.952C330.987 270.114 330.731 270.269 330.481 270.418C330.234 270.564 329.949 270.737 329.626 270.936C329.245 271.172 328.872 271.405 328.506 271.637C328.143 271.862 327.75 272.107 327.327 272.375L326.68 271.26C326.698 271.249 326.722 271.234 326.753 271.214C326.789 271.193 326.824 271.171 326.86 271.149C326.895 271.127 326.928 271.106 326.959 271.087C326.988 271.064 327.009 271.048 327.022 271.039C327.23 270.899 327.363 270.786 327.422 270.701C327.48 270.616 327.484 270.528 327.431 270.438C327.4 270.384 327.351 270.325 327.284 270.262C327.215 270.195 327.133 270.12 327.037 270.039L325.871 269.024L322.807 270.917C322.822 270.975 322.847 271.091 322.882 271.265C322.915 271.435 322.949 271.618 322.985 271.816C323.026 272.011 323.065 272.192 323.102 272.359C323.139 272.526 323.163 272.631 323.175 272.672C323.189 272.749 323.206 272.818 323.224 272.881C323.244 272.936 323.263 272.979 323.281 273.01C323.339 273.11 323.407 273.159 323.485 273.16C323.565 273.153 323.678 273.108 323.822 273.025C323.836 273.017 323.866 273.001 323.913 272.978C323.957 272.951 324.006 272.921 324.059 272.888C324.112 272.855 324.161 272.825 324.205 272.798C324.254 272.768 324.287 272.747 324.305 272.736L324.948 273.844C324.677 274.011 324.404 274.177 324.126 274.343C323.849 274.508 323.551 274.689 323.232 274.886C323.077 274.982 322.93 275.072 322.793 275.157C322.66 275.239 322.531 275.322 322.405 275.406C322.276 275.485 322.147 275.568 322.016 275.655C321.884 275.737 321.742 275.825 321.591 275.918L320.893 274.715C321.042 274.598 321.162 274.503 321.251 274.429C321.345 274.353 321.415 274.276 321.461 274.199C321.504 274.118 321.529 274.026 321.536 273.923C321.54 273.817 321.529 273.679 321.504 273.511C321.49 273.404 321.464 273.23 321.427 272.99C321.39 272.75 321.345 272.469 321.29 272.147C321.241 271.823 321.187 271.471 321.129 271.09C321.068 270.706 321.007 270.315 320.945 269.919C320.884 269.522 320.823 269.132 320.762 268.747C320.701 268.362 320.646 268.008 320.597 267.683C320.544 267.355 320.5 267.07 320.462 266.83C320.423 266.585 320.395 266.407 320.378 266.295L319.986 264.903L322.558 263.314ZM322.603 269.85L325.055 268.335L321.803 265.515L321.786 265.517L322.603 269.85ZM334.735 255.793L338.773 262.753C338.857 262.897 338.93 263.014 338.994 263.103C339.06 263.185 339.137 263.235 339.226 263.253C339.315 263.272 339.424 263.257 339.552 263.208C339.678 263.155 339.847 263.063 340.059 262.931L340.518 262.648L341.192 263.81C341.024 263.914 340.86 264.016 340.701 264.114C340.541 264.213 340.375 264.315 340.202 264.422C340.031 264.522 339.85 264.63 339.66 264.748C339.471 264.858 339.266 264.982 339.044 265.119C338.783 265.28 338.547 265.429 338.337 265.565C338.129 265.694 337.932 265.815 337.745 265.93C337.559 266.045 337.379 266.16 337.204 266.274C337.027 266.383 336.843 266.497 336.653 266.615L335.978 265.452L336.603 265.066C336.789 264.951 336.923 264.85 337.005 264.763C337.089 264.669 337.138 264.577 337.153 264.488C337.167 264.4 337.153 264.308 337.11 264.212C337.064 264.112 337.004 263.999 336.931 263.873L333.975 258.777C333.888 258.929 333.792 259.08 333.687 259.231C333.586 259.379 333.483 259.522 333.377 259.661C333.272 259.793 333.168 259.918 333.063 260.038C332.96 260.151 332.862 260.248 332.771 260.329L331.983 258.97C332.384 258.625 332.706 258.245 332.948 257.833C333.194 257.417 333.367 256.999 333.465 256.577L334.735 255.793ZM341.908 251.132C342.449 250.798 342.994 250.596 343.543 250.526C344.094 250.449 344.635 250.51 345.166 250.708C345.693 250.903 346.205 251.235 346.701 251.706C347.199 252.169 347.665 252.775 348.099 253.523C348.551 254.302 348.858 255.034 349.02 255.717C349.181 256.401 349.216 257.031 349.124 257.608C349.033 258.178 348.825 258.692 348.501 259.149C348.176 259.607 347.755 259.996 347.237 260.316C346.696 260.65 346.149 260.853 345.595 260.926C345.043 260.991 344.5 260.926 343.965 260.73C343.434 260.532 342.919 260.198 342.419 259.73C341.92 259.255 341.454 258.643 341.02 257.895C340.599 257.17 340.304 256.474 340.134 255.808C339.964 255.142 339.918 254.522 339.994 253.949C340.068 253.371 340.265 252.845 340.587 252.371C340.909 251.89 341.35 251.477 341.908 251.132ZM342.669 252.443C342.102 252.794 341.843 253.318 341.893 254.015C341.944 254.706 342.276 255.578 342.887 256.632C343.216 257.2 343.533 257.677 343.836 258.065C344.139 258.453 344.438 258.749 344.731 258.954C345.021 259.154 345.309 259.26 345.594 259.274C345.881 259.281 346.175 259.191 346.476 259.005C347.061 258.644 347.318 258.111 347.247 257.409C347.174 256.701 346.818 255.798 346.181 254.699C345.54 253.595 344.935 252.858 344.365 252.488C343.793 252.113 343.227 252.098 342.669 252.443ZM352.621 244.745L355.53 249.759L356.793 248.979L357.436 250.087L356.173 250.867L356.812 251.968C356.88 252.086 356.942 252.176 356.997 252.24C357.057 252.301 357.123 252.337 357.195 252.347C357.264 252.353 357.348 252.336 357.444 252.294C357.545 252.25 357.673 252.181 357.828 252.085L358.207 251.851L358.826 252.918C358.747 252.968 358.614 253.05 358.427 253.165C358.243 253.272 358.04 253.395 357.819 253.532C357.597 253.668 357.373 253.807 357.147 253.946C356.919 254.081 356.722 254.2 356.559 254.301C356.346 254.432 356.157 254.552 355.991 254.661C355.827 254.762 355.672 254.858 355.526 254.948C355.384 255.036 355.245 255.124 355.111 255.213C354.978 255.296 354.836 255.383 354.685 255.476L354.066 254.408L354.571 254.096C354.726 254.001 354.853 253.913 354.951 253.834C355.05 253.755 355.12 253.678 355.161 253.604C355.204 253.522 355.22 253.441 355.21 253.362C355.2 253.282 355.165 253.191 355.105 253.087L354.439 251.939L350.557 254.336C350.386 254.124 350.215 253.914 350.047 253.706C349.878 253.498 349.705 253.293 349.527 253.091L350.614 245.985L352.621 244.745ZM350.85 252.678L353.827 250.838L351.604 247.007L350.85 252.678ZM360.885 249.526C361.058 249.42 361.225 249.344 361.386 249.3C361.551 249.253 361.703 249.235 361.843 249.247C361.984 249.252 362.111 249.289 362.224 249.36C362.339 249.424 362.432 249.516 362.503 249.638C362.641 249.877 362.659 250.135 362.555 250.413C362.449 250.687 362.21 250.939 361.838 251.168C361.474 251.393 361.149 251.496 360.862 251.478C360.578 251.457 360.361 251.316 360.21 251.054C360.074 250.82 360.063 250.563 360.178 250.284C360.291 250.001 360.526 249.748 360.885 249.526ZM364.486 245.586C364.834 246.166 365.229 246.504 365.669 246.599C366.114 246.691 366.618 246.564 367.181 246.216C367.407 246.076 367.6 245.917 367.761 245.738C367.924 245.552 368.044 245.355 368.123 245.148C368.205 244.937 368.238 244.718 368.22 244.491C368.204 244.256 368.128 244.021 367.992 243.787C367.83 243.508 367.641 243.3 367.424 243.165C367.211 243.027 366.978 242.951 366.723 242.937C366.47 242.916 366.2 242.954 365.913 243.052C365.624 243.145 365.326 243.283 365.017 243.468L364.413 242.427C364.688 242.215 364.919 242.007 365.109 241.805C365.296 241.598 365.434 241.39 365.524 241.181C365.613 240.973 365.65 240.761 365.633 240.545C365.62 240.326 365.545 240.097 365.406 239.859C365.294 239.665 365.155 239.509 364.99 239.39C364.825 239.272 364.643 239.198 364.445 239.167C364.249 239.129 364.039 239.136 363.816 239.188C363.598 239.237 363.378 239.33 363.157 239.467C362.895 239.629 362.695 239.802 362.555 239.986C362.412 240.166 362.321 240.357 362.282 240.558C362.247 240.757 362.258 240.968 362.314 241.19C362.375 241.409 362.473 241.64 362.607 241.881L361.194 242.699L360.158 240.897C360.365 240.414 360.686 239.956 361.121 239.522C361.557 239.081 362.086 238.669 362.706 238.286C363.198 237.982 363.669 237.762 364.119 237.625C364.569 237.487 364.988 237.437 365.376 237.472C365.764 237.508 366.115 237.631 366.429 237.841C366.748 238.048 367.018 238.343 367.241 238.725C367.526 239.216 367.627 239.708 367.545 240.199C367.463 240.69 367.204 241.153 366.77 241.586C367.086 241.477 367.392 241.413 367.688 241.395C367.987 241.37 368.269 241.401 368.536 241.487C368.803 241.573 369.053 241.715 369.288 241.912C369.521 242.106 369.728 242.36 369.911 242.675C370.157 243.099 370.295 243.528 370.324 243.962C370.355 244.39 370.283 244.814 370.106 245.235C369.933 245.654 369.661 246.061 369.288 246.456C368.918 246.844 368.453 247.211 367.895 247.556C367.527 247.783 367.137 247.962 366.726 248.094C366.315 248.225 365.901 248.27 365.485 248.227C365.071 248.177 364.663 248.019 364.262 247.753C363.865 247.484 363.493 247.065 363.145 246.497L364.486 245.586ZM375.154 230.827L376.62 233.354L375.331 234.151L375.142 233.826C375.017 233.61 374.898 233.457 374.786 233.367C374.674 233.278 374.564 233.229 374.457 233.221C374.348 233.209 374.24 233.23 374.133 233.284C374.027 233.331 373.919 233.389 373.809 233.457L371.555 234.849L372.982 237.308L374.152 236.586C374.263 236.517 374.355 236.458 374.428 236.407C374.502 236.348 374.557 236.287 374.592 236.223C374.624 236.154 374.633 236.071 374.62 235.976C374.607 235.88 374.566 235.758 374.498 235.61L374.997 235.302L376.294 237.539L375.796 237.847C375.709 237.729 375.63 237.644 375.557 237.591C375.484 237.538 375.413 237.508 375.343 237.502C375.271 237.492 375.192 237.507 375.107 237.547C375.024 237.58 374.929 237.63 374.823 237.695L373.633 238.43L374.892 240.599C374.962 240.721 375.031 240.813 375.098 240.876C375.162 240.935 375.232 240.968 375.309 240.975C375.383 240.978 375.466 240.961 375.558 240.922C375.654 240.881 375.767 240.821 375.895 240.741L376.301 240.491L376.999 241.694C376.808 241.812 376.624 241.925 376.447 242.035C376.27 242.144 376.086 242.258 375.895 242.375C375.706 242.486 375.508 242.605 375.3 242.734C375.089 242.858 374.859 242.997 374.611 243.15C374.394 243.284 374.2 243.407 374.03 243.518C373.862 243.622 373.702 243.721 373.552 243.814C373.405 243.904 373.263 243.995 373.123 244.087C372.986 244.172 372.84 244.263 372.685 244.358L371.987 243.155L372.432 242.88C372.552 242.807 372.648 242.738 372.72 242.675C372.789 242.608 372.83 242.534 372.843 242.452C372.86 242.368 372.848 242.269 372.805 242.154C372.763 242.04 372.691 241.895 372.589 241.719L369.758 236.84C369.672 236.691 369.596 236.57 369.529 236.476C369.463 236.383 369.393 236.319 369.319 236.285C369.242 236.247 369.156 236.242 369.058 236.272C368.963 236.294 368.842 236.35 368.696 236.441L368.264 236.707L367.57 235.511L375.154 230.827ZM375.785 230.437C375.847 230.399 375.957 230.334 376.115 230.242C376.274 230.144 376.451 230.038 376.644 229.925C376.834 229.807 377.027 229.688 377.222 229.568C377.417 229.447 377.583 229.345 377.721 229.26C377.84 229.186 377.98 229.1 378.139 229.001C378.303 228.9 378.474 228.794 378.651 228.685C378.83 228.568 379.011 228.454 379.192 228.342C379.371 228.225 379.545 228.114 379.713 228.01L382.519 230.481C382.868 230.792 383.21 231.095 383.544 231.391C383.882 231.684 384.183 231.948 384.446 232.183C384.706 232.414 384.917 232.602 385.079 232.746C385.243 232.884 385.325 232.952 385.325 232.952C385.276 232.774 385.211 232.496 385.13 232.118C385.047 231.735 384.955 231.302 384.855 230.819C384.757 230.329 384.655 229.814 384.546 229.275C384.438 228.736 384.335 228.222 384.237 227.731C384.137 227.236 384.044 226.792 383.96 226.397C383.88 226 383.816 225.703 383.768 225.506C383.928 225.408 384.106 225.3 384.304 225.184C384.503 225.061 384.704 224.94 384.906 224.822C385.11 224.696 385.305 224.575 385.491 224.46C385.677 224.345 385.836 224.247 385.969 224.165C386.076 224.099 386.215 224.013 386.388 223.906C386.565 223.797 386.743 223.687 386.92 223.578C387.094 223.464 387.253 223.363 387.394 223.275C387.534 223.183 387.628 223.122 387.676 223.092L388.374 224.295L388.035 224.504C387.898 224.589 387.796 224.667 387.729 224.739C387.664 224.804 387.624 224.869 387.607 224.934C387.593 224.992 387.598 225.053 387.623 225.117C387.648 225.181 387.683 225.251 387.727 225.328L389.288 228.017C389.74 228.797 390.256 229.68 390.835 230.669C390.906 230.79 390.971 230.888 391.032 230.961C391.092 231.033 391.157 231.082 391.225 231.107C391.296 231.125 391.376 231.118 391.466 231.087C391.556 231.056 391.668 230.999 391.801 230.917L392.127 230.716L392.825 231.918C392.656 232.022 392.492 232.124 392.333 232.222C392.171 232.316 392.003 232.417 391.83 232.523C391.662 232.627 391.482 232.738 391.292 232.856C391.103 232.966 390.9 233.089 390.683 233.223C390.493 233.341 390.323 233.448 390.175 233.546C390.029 233.636 389.889 233.722 389.756 233.804C389.628 233.884 389.503 233.964 389.381 234.045C389.262 234.119 389.136 234.197 389.003 234.279L388.305 233.076L388.577 232.908C388.728 232.815 388.835 232.724 388.898 232.636C388.963 232.541 388.997 232.444 389 232.344C389.004 232.238 388.981 232.126 388.932 232.01C388.882 231.893 388.819 231.768 388.74 231.633L385.435 225.936L385.672 227.231L387.208 235.388L385.985 236.143C385.882 236.06 385.726 235.93 385.515 235.754C385.305 235.578 385.06 235.374 384.781 235.142C384.504 234.904 384.204 234.645 383.881 234.368C383.554 234.086 383.225 233.803 382.892 233.519C382.556 233.231 382.224 232.95 381.896 232.675C381.573 232.397 381.271 232.143 380.992 231.911C380.715 231.672 380.472 231.465 380.261 231.289C380.053 231.106 379.897 230.972 379.794 230.889L379.302 230.477C379.244 230.427 379.183 230.379 379.12 230.333C379.058 230.279 379.004 230.232 378.958 230.194C378.902 230.149 378.849 230.105 378.8 230.062L382.246 236.002C382.325 236.137 382.394 236.241 382.454 236.314C382.517 236.379 382.579 236.42 382.643 236.436C382.711 236.449 382.786 236.439 382.869 236.406C382.957 236.37 383.065 236.313 383.193 236.234L383.512 236.036L384.21 237.239C384.082 237.319 383.958 237.395 383.838 237.469C383.716 237.539 383.59 237.613 383.462 237.692C383.333 237.772 383.196 237.857 383.05 237.947C382.905 238.03 382.747 238.125 382.574 238.232C382.388 238.347 382.221 238.453 382.073 238.55C381.922 238.643 381.78 238.731 381.647 238.813C381.514 238.895 381.385 238.978 381.259 239.062C381.135 239.139 381.007 239.218 380.874 239.3L380.176 238.097L380.501 237.896C380.661 237.798 380.774 237.707 380.84 237.623C380.903 237.535 380.934 237.449 380.933 237.364C380.932 237.279 380.907 237.19 380.859 237.097C380.816 237.001 380.762 236.894 380.699 236.774L377.757 231.688C377.694 231.58 377.632 231.493 377.57 231.427C377.512 231.359 377.447 231.314 377.374 231.292C377.302 231.262 377.22 231.261 377.128 231.288C377.035 231.314 376.924 231.367 376.796 231.447L376.483 231.64L375.785 230.437Z" fill="black"/>
</g>
<defs>
<filter id="filter0_f_2_43" x="237.263" y="218.911" width="159.664" height="107.571" filterUnits="userSpaceOnUse" color-interpolation-filters="sRGB">
<feFlood flood-opacity="0" result="BackgroundImageFix"/>
<feBlend mode="normal" in="SourceGraphic" in2="BackgroundImageFix" result="shape"/>
<feGaussianBlur stdDeviation="2" result="effect1_foregroundBlur_2_43"/>
</filter>
<linearGradient id="paint0_linear_2_43" x1="55.8675" y1="224.802" x2="48.6178" y2="232.184" gradientUnits="userSpaceOnUse">
<stop stop-color="#FFD53F"/>
<stop offset="1" stop-color="white"/>
</linearGradient>
<linearGradient id="paint1_linear_2_43" x1="383.66" y1="207.779" x2="362.479" y2="222.662" gradientUnits="userSpaceOnUse">
<stop stop-color="#FFD53F"/>
<stop offset="1" stop-color="white"/>
</linearGradient>
<linearGradient id="paint2_linear_2_43" x1="286.976" y1="216.73" x2="197.244" y2="267.99" gradientUnits="userSpaceOnUse">
<stop stop-color="#FFD53F"/>
<stop offset="1" stop-color="white"/>
</linearGradient>
<linearGradient id="paint3_linear_2_43" x1="272.543" y1="201.151" x2="239.757" y2="163.676" gradientUnits="userSpaceOnUse">
<stop stop-opacity="0"/>
<stop offset="0.99" stop-color="#1A1A1A"/>
</linearGradient>
</defs>
</svg>
