<svg width="547" height="452" viewBox="0 0 547 452" fill="none" xmlns="http://www.w3.org/2000/svg">
<path d="M514.275 276.835L325.465 396.961C320.748 399.961 315.397 401.541 309.95 401.541C304.504 401.541 299.154 399.961 294.437 396.961L33.3396 230.881C31.4345 229.667 29.8528 227.921 28.7533 225.82C27.6537 223.719 27.0749 221.336 27.0749 218.911C27.0749 216.485 27.6537 214.103 28.7533 212.003C29.8528 209.901 31.4345 208.156 33.3396 206.94L220.687 87.1456C225.131 84.3111 230.177 82.8185 235.312 82.8185C240.449 82.8185 245.493 84.3111 249.938 87.1456L514.275 255.215C515.997 256.312 517.425 257.888 518.417 259.785C519.411 261.683 519.933 263.835 519.933 266.024C519.933 268.215 519.411 270.367 518.417 272.264C517.425 274.161 515.997 275.737 514.275 276.835Z" fill="#BCBCF7"/>
<path d="M204.756 119.509L206.329 89.481L202.95 87.6127L198.438 90.626V120.85L201.651 121.904C202.559 120.922 203.608 120.112 204.756 119.509Z" fill="#6D0D4D"/>
<path d="M149.385 152.927C149.424 152.789 149.496 152.667 149.596 152.572C149.695 152.479 149.817 152.419 149.947 152.4C150.056 152.023 150.138 151.631 150.206 151.239C150.219 151.136 150.254 151.039 150.309 150.955C150.364 150.871 150.437 150.803 150.52 150.757L153.502 93.7448L150.315 92.1176L145.612 95.2515V152.881C146.732 153.424 147.731 153.921 148.825 154.539C148.982 153.989 149.17 153.451 149.385 152.927Z" fill="#6D0D4D"/>
<path d="M163.239 146.027C163.272 145.952 163.32 145.885 163.38 145.833C163.439 145.781 163.507 145.744 163.581 145.725L167.095 78.5877L163.977 76.84L159.218 80.004V146.147C160.585 146.689 161.214 146.9 162.431 147.428C162.528 147.036 163.101 146.388 163.239 146.027Z" fill="#6D0D4D"/>
<path d="M174.671 136.865C174.848 136.157 175.027 136.248 175.533 135.736C175.601 135.671 175.682 135.623 175.769 135.595C175.857 135.565 175.948 135.557 176.039 135.569L178.65 85.5184L175.518 83.8159L170.759 86.8292V136.865C171.991 137.121 172.757 137.393 173.974 137.664L174.671 136.865Z" fill="#6D0D4D"/>
<path d="M190.451 128.232L192.49 89.27L189.111 87.5524L184.599 90.5657V129.453C185.816 129.86 186.581 130.055 187.813 130.417C188.628 129.599 189.511 128.868 190.451 128.232Z" fill="#6D0D4D"/>
<path d="M138.322 158.877C138.352 158.775 138.403 158.68 138.471 158.601C138.538 158.521 138.62 158.46 138.712 158.42C138.803 158.379 138.901 158.361 138.999 158.368C139.097 158.375 139.193 158.404 139.28 158.456L142.11 104.337L139.007 102.619L134.22 105.798V158.877C135.492 159.465 136.175 159.827 137.42 160.384L138.036 159.827C138.109 159.503 138.205 159.185 138.322 158.877Z" fill="#6D0D4D"/>
<path d="M127.082 81.6463L123.717 79.778L119.191 82.7913V168.823L122.405 170.569" fill="#6D0D4D"/>
<path d="M405.833 262.325L459.357 298.576L353.745 366.541L299.114 331.497L405.833 262.325Z" fill="url(#paint0_linear_1_3)"/>
<path d="M414.174 260.457L236.578 148.165C234.682 146.956 232.532 146.32 230.341 146.32C228.152 146.32 226.001 146.956 224.106 148.165L129.297 209.336C128.191 210.045 127.271 211.063 126.633 212.285C125.994 213.508 125.658 214.893 125.658 216.304C125.658 217.716 125.994 219.101 126.633 220.324C127.271 221.547 128.191 222.564 129.297 223.273L305.021 335.293C307.549 336.904 310.423 337.743 313.343 337.721C316.264 337.7 319.126 336.82 321.636 335.173L414.243 274.379C415.343 273.663 416.254 272.64 416.884 271.416C417.515 270.191 417.843 268.805 417.836 267.396C417.828 265.988 417.488 264.607 416.845 263.389C416.203 262.172 415.281 261.161 414.174 260.457Z" fill="#AA3679"/>
<path d="M414.174 251.613L236.578 139.336C234.682 138.128 232.532 137.491 230.341 137.491C228.152 137.491 226.001 138.128 224.106 139.336L129.297 200.492C128.191 201.201 127.271 202.219 126.633 203.441C125.994 204.664 125.658 206.049 125.658 207.46C125.658 208.871 125.994 210.257 126.633 211.48C127.271 212.703 128.191 213.72 129.297 214.429L305.021 326.449C307.549 328.06 310.423 328.899 313.343 328.877C316.264 328.856 319.126 327.976 321.636 326.329L414.243 265.535C415.343 264.819 416.254 263.796 416.884 262.572C417.515 261.347 417.843 259.961 417.836 258.552C417.828 257.144 417.488 255.763 416.845 254.545C416.203 253.328 415.281 252.317 414.174 251.613Z" fill="#262120"/>
<path d="M246.342 155.82C245.357 156.181 155.649 213.841 155.649 213.841L305.513 310.555L396.041 252.969L246.342 155.82Z" fill="white"/>
<path d="M165.14 191.347C164.86 191.168 164.618 190.927 164.43 190.639C164.241 190.351 164.108 190.023 164.041 189.675C163.975 189.327 163.974 188.968 164.041 188.62C164.107 188.272 164.24 187.944 164.428 187.655C165.695 186.193 167.168 184.967 168.791 184.024C170.322 182.969 171.922 182.051 173.481 181.011L185.556 173.221L195.457 166.833C196.107 166.391 196.838 166.113 197.597 166.023C198.357 165.931 199.125 166.028 199.847 166.305C200.885 166.707 201.78 167.461 202.403 168.46C202.56 168.744 202.659 169.061 202.695 169.391C202.73 169.72 202.702 170.055 202.612 170.371C202.521 170.688 202.371 170.98 202.17 171.227C201.968 171.473 201.723 171.671 201.447 171.805L183.245 183.497L175.382 188.515L170.828 191.452C170.135 191.911 169.359 192.195 168.556 192.283C167.752 192.372 166.94 192.263 166.178 191.964C165.806 191.816 165.457 191.608 165.14 191.347Z" fill="#FF1D1D"/>
<path d="M210.24 164.152C211.984 164.152 213.399 162.863 213.399 161.273C213.399 159.684 211.984 158.396 210.24 158.396C208.495 158.396 207.08 159.684 207.08 161.273C207.08 162.863 208.495 164.152 210.24 164.152Z" fill="#FF1D1D"/>
<path d="M309.93 56.6205H310.833C309.325 55.6404 307.656 54.9955 305.924 54.7221H305.445H305.062H304.378C302.803 54.7252 301.257 55.1989 299.907 56.0932C295.996 58.3532 292.576 63.2197 291.058 69.4724C288.652 79.326 291.865 88.8481 298.225 90.7315C300.036 91.2363 301.944 91.1207 303.695 90.4C304.01 92.5083 303.792 94.6717 303.066 96.6527L305.185 97.5717L307.688 92.2532L306.689 91.4547C307.357 90.1789 307.867 88.8109 308.207 87.3867C311.098 84.3864 313.153 80.5395 314.129 76.2976C316.125 68.0863 314.252 60.1612 309.93 56.6205Z" fill="#68E1FD"/>
<path opacity="0.1" d="M309.93 56.6205H310.833C309.325 55.6404 307.656 54.9955 305.924 54.7221H305.445H305.062H304.378C302.803 54.7252 301.257 55.1989 299.907 56.0932C295.996 58.3532 292.576 63.2197 291.058 69.4724C288.652 79.326 291.865 88.8481 298.225 90.7315C300.036 91.2363 301.944 91.1207 303.695 90.4C304.01 92.5083 303.792 94.6717 303.066 96.6527L305.185 97.5717L307.688 92.2532L306.689 91.4547C307.357 90.1789 307.867 88.8109 308.207 87.3867C311.098 84.3864 313.153 80.5395 314.129 76.2976C316.125 68.0863 314.252 60.1612 309.93 56.6205Z" fill="#1D1616"/>
<path d="M312.42 53.7405C303.069 51.4056 292.634 59.3444 289.123 71.6355C285.611 83.9265 290.306 95.6573 299.638 97.9923C302.296 98.6181 305.096 98.4748 307.665 97.5813C308.127 100.195 307.808 102.877 306.742 105.333C310.348 102.235 312.942 98.2539 314.226 93.8455C318.47 90.1259 321.483 85.3564 322.916 80.0973C326.467 67.8623 321.791 56.0755 312.42 53.7405Z" fill="black"/>
<path d="M318.936 65.1179C318.064 61.6533 315.631 60.3875 312.97 62.0753C309.831 64.0519 308.002 68.5601 306.733 73.1795C305.881 69.4707 304.384 66.2949 301.245 67.0723C298.626 67.7384 295.986 71.0031 294.78 74.9784C294.239 76.3796 293.968 77.8831 293.982 79.3988C293.998 80.9145 294.298 82.4115 294.867 83.8003C295.435 85.1891 296.261 86.4414 297.292 87.482C298.323 88.5228 299.54 89.3309 300.872 89.8579C302.056 90.4812 303.377 90.7524 304.692 90.6429C306.009 90.5336 307.274 90.0476 308.355 89.236C311.202 86.7212 313.641 83.7193 315.568 80.3528C318.417 75.5557 320.038 69.7816 318.936 65.1179Z" fill="#FF0000"/>
<path d="M106.123 174.397C110.221 162.877 106.554 150.52 97.9332 146.797C89.3122 143.076 79.0016 149.397 74.9039 160.917C70.8061 172.437 74.4729 184.795 83.0938 188.517C91.7149 192.239 102.025 185.917 106.123 174.397Z" fill="black"/>
<path d="M109.517 175.852C113.615 164.332 109.948 151.975 101.327 148.252C92.706 144.531 82.3954 150.852 78.2976 162.372C74.1998 173.892 77.8667 186.249 86.4876 189.972C95.1086 193.693 105.419 187.372 109.517 175.852Z" fill="#FF1D1D"/>
<path d="M88.1081 159.903V177.983C88.1111 178.207 88.1709 178.425 88.2803 178.613C88.3898 178.803 88.5449 178.953 88.728 179.051C88.9111 179.148 89.1152 179.187 89.3173 179.163C89.5193 179.139 89.7115 179.053 89.8721 178.917L102.945 167.391C103.09 167.261 103.203 167.093 103.273 166.904C103.343 166.713 103.367 166.507 103.343 166.303C103.32 166.099 103.25 165.905 103.14 165.739C103.029 165.573 102.883 165.443 102.713 165.357L89.6397 158.817C89.4745 158.739 89.2943 158.705 89.1146 158.721C88.9351 158.737 88.7618 158.801 88.6103 158.908C88.4588 159.016 88.3336 159.163 88.2461 159.336C88.1583 159.509 88.111 159.704 88.1081 159.903Z" fill="white"/>
<path d="M122.405 85.4129V170.569L127.082 167.24V81.6463L122.405 85.4129Z" fill="#AA3679"/>
<path d="M137.434 107.35V160.415L142.125 157.191V104.337C140.538 105.331 138.966 106.31 137.434 107.35Z" fill="#AA3679"/>
<path d="M148.825 97.1649V154.539L153.502 151.239V93.7599C151.971 94.92 150.425 96.0952 148.825 97.1649Z" fill="#AA3679"/>
<path d="M162.431 81.9777V147.397L167.108 144.097V78.5877C165.549 79.7479 164.018 80.908 162.431 81.9777Z" fill="#AA3679"/>
<path d="M173.987 88.3208V137.649L178.664 134.349V85.5184C177.159 86.4827 175.6 87.4168 173.987 88.3208Z" fill="#AA3679"/>
<path d="M187.813 92.434V130.402L192.49 127.102V89.27C190.957 90.3548 189.399 91.4095 187.813 92.434Z" fill="#AA3679"/>
<path d="M204.797 90.5055C203.757 91.2739 202.718 92.0121 201.651 92.7504V121.904L206.329 118.605V89.4809C205.808 89.8124 205.289 90.1439 204.797 90.5055Z" fill="#AA3679"/>
<path opacity="0.57" d="M256.215 185.155L310.97 220.305L270.123 246.596L215.505 211.536L256.215 185.155Z" fill="url(#paint1_linear_1_3)"/>
<path d="M269.753 201.532C269.729 200.88 269.641 200.235 269.493 199.603C268.495 194.405 263.791 182.125 241.774 181.221C216.024 180.152 211.293 194.616 210.431 199.965C210.334 200.461 210.274 200.965 210.253 201.472C210.253 201.743 210.253 201.893 210.253 201.893C210.253 211.371 223.587 219.039 240.023 219.039C256.461 219.039 269.794 211.355 269.794 201.893C269.781 201.893 269.781 201.757 269.753 201.532Z" fill="black"/>
<path opacity="0.1" d="M225.364 204.093C220.387 194.857 225.883 186.224 233.418 181.493C214.958 183.512 211.196 195.279 210.431 199.98C210.334 200.476 210.274 200.98 210.253 201.487C210.253 201.757 210.253 201.908 210.253 201.908C210.253 211.385 223.587 219.055 240.023 219.055C242.194 219.057 244.363 218.921 246.519 218.648C237.945 217.125 230.027 212.756 225.364 204.093Z" fill="black"/>
<path d="M239.709 195.023C240.59 195.265 241.516 195.219 242.374 194.891C243.231 194.561 243.983 193.963 244.537 193.169L249.486 163.684L241.104 161.981L235.976 192.552C236.927 193.821 238.245 194.693 239.709 195.023Z" fill="#42210B"/>
<path d="M230.328 117.204C229.699 121.814 229.075 126.424 228.454 131.035C228.004 134.38 227.47 137.936 227.005 141.356C226.434 144.887 226.078 148.455 225.939 152.037C226.144 162.509 235.005 168.973 243.798 170.54C243.798 170.54 260.837 172.951 265.993 156.98C271.148 141.009 272.133 119.855 272.133 119.855" fill="#FFE920"/>
<path d="M251.06 134.952C262.69 134.952 272.119 128.193 272.119 119.855C272.119 111.518 262.69 104.759 251.06 104.759C239.428 104.759 230 111.518 230 119.855C230 128.193 239.428 134.952 251.06 134.952Z" fill="#B80077"/>
<path d="M232.092 130.673C232.092 130.673 233.582 127.283 237.562 128.91C241.541 130.538 240.598 138.613 240.598 138.613C240.598 138.613 238.123 151.707 237.945 154.931C237.767 158.155 235.511 168.008 240.585 169.832C239.972 170.233 239.286 170.481 238.576 170.553C237.867 170.627 237.151 170.524 236.482 170.253C233.883 169.44 234.034 154.871 234.034 154.871" fill="#6D2F0C"/>
<path d="M229.206 141.295C229.426 140.015 229.645 138.733 229.863 137.468C230.423 134.108 231.736 127.569 236.126 129.709C238.725 130.99 239.203 135.359 239.203 135.359C239.532 138.523 238.164 142.184 237.644 145.273C236.817 150.257 236.233 155.287 235.893 160.34C235.634 164.076 235.333 168.415 238.628 170.691C237.92 170.435 237.185 170.272 236.44 170.208C235.563 169.985 234.696 169.715 233.843 169.395C228.564 167.391 226.854 162.208 227.128 156.437C227.486 151.341 228.181 146.28 229.206 141.295Z" fill="#42210B"/>
<path d="M234.758 138.403C235.906 138.403 236.838 137.377 236.838 136.112C236.838 134.848 235.906 133.823 234.758 133.823C233.611 133.823 232.68 134.848 232.68 136.112C232.68 137.377 233.611 138.403 234.758 138.403Z" fill="#B54747"/>
<path d="M272.242 96.3061C272.242 96.3061 275.88 76.2072 258.841 73.5555C241.802 70.9037 239.586 88.2455 239.586 88.2455C239.586 88.2455 236.687 107.697 235.264 116.872C235.18 117.369 235.139 117.873 235.141 118.379C235.141 125.038 242.676 130.432 251.975 130.432C260.4 130.432 267.346 126.003 268.59 120.217V119.87C268.59 119.72 268.59 119.569 268.59 119.418L272.242 96.3061Z" fill="black"/>
<path opacity="0.55" d="M332.563 256.48L387.795 289.325L354.62 308.881L300.002 273.836L332.563 256.48Z" fill="url(#paint2_linear_1_3)"/>
<path d="M325.56 266.183L331.304 263.155L328.979 256.48L324.481 258.484" fill="#68351F"/>
<path d="M332.959 248.705H326.49C326.354 251.583 325.766 255.109 323.51 256.239C322.62 256.827 319.161 257.987 318.04 257.52C316.918 257.052 313.39 256.088 312.966 256.449C312.542 256.812 310.901 257.881 314.211 261.151C317.52 264.42 324.645 266.589 325.602 266.243C326.559 265.896 324.425 259.388 327.093 260.383C330.005 261.467 328.323 268.593 328.76 269.165C329.662 269.767 330.645 270.199 331.674 270.447C332.416 270.033 333.137 269.576 333.834 269.076C333.889 262.236 333.41 255.471 332.959 248.705Z" fill="#FF681D"/>
<path d="M310.668 278.176L316.399 275.148L314.073 268.457L309.589 270.477" fill="#68351F"/>
<path d="M318.914 258.513L311.598 260.653C311.394 265.173 310.026 268.383 305.719 269.272C303.927 269.633 302.545 268.909 300.85 268.579C300.391 268.447 299.909 268.455 299.454 268.6C298.999 268.745 298.589 269.025 298.266 269.407C297.267 270.717 298.266 272.104 299.278 273.053C302.573 276.337 309.712 278.492 310.668 278.145C311.626 277.799 309.492 271.291 312.159 272.285C315.072 273.369 313.39 280.496 313.827 281.069C314.727 281.669 315.712 282.101 316.741 282.349C317.483 281.936 318.205 281.479 318.901 280.979C318.996 274.213 319.366 265.293 318.914 258.513Z" fill="#FF681D"/>
<path d="M301.261 162.629C296.191 162.035 291.191 160.864 286.341 159.135L286.191 159.028C285.015 158.095 283.947 157.025 282.717 156.165C282.394 156.009 282.045 155.928 281.692 155.928C281.339 155.928 280.989 156.009 280.665 156.165C280.077 156.483 280.215 157.432 280.365 157.989C280.683 158.92 281.309 159.684 282.116 160.128C279.284 159.797 276.563 158.501 273.637 159.059C272.707 159.24 272.925 160.565 273.637 160.912C274.348 161.259 277.411 161.891 278.136 162.148C277.028 162.148 273.554 161.711 272.447 161.756C272.241 161.764 272.043 161.852 271.89 162.004C271.737 162.157 271.639 162.364 271.611 162.589C271.583 162.815 271.628 163.044 271.738 163.236C271.849 163.428 272.018 163.571 272.214 163.639C274.249 164.147 276.324 164.439 278.41 164.513C276.683 164.881 274.983 165.385 273.322 166.02C272.516 166.441 272.953 167.797 273.76 167.797C275.786 167.793 277.809 167.648 279.818 167.36C279.394 167.601 277.712 167.917 277.288 168.189C277.143 168.287 277.028 168.427 276.954 168.596C276.881 168.764 276.853 168.952 276.875 169.136C276.896 169.321 276.966 169.496 277.076 169.637C277.186 169.78 277.331 169.884 277.493 169.937C279.627 170.389 281.595 169.531 283.77 169.213C284.782 169.063 285.794 168.988 286.806 168.928C290.526 169.605 294.258 170.193 298.02 170.585C298.84 170.675 299.045 169.651 298.662 169.079C298.674 169 298.658 168.92 298.617 168.856C298.576 168.791 298.514 168.747 298.443 168.732L297.855 168.581C297.861 168.541 297.861 168.5 297.855 168.46C297.888 168.368 297.888 168.267 297.855 168.175L299.51 168.476C299.726 168.521 299.95 168.476 300.138 168.348C300.325 168.221 300.462 168.02 300.52 167.785C300.579 167.552 300.556 167.303 300.455 167.087C300.354 166.871 300.182 166.705 299.975 166.623C299.592 166.441 299.196 166.321 298.799 166.171C298.805 166.095 298.805 166.02 298.799 165.944H299.017C299.099 165.968 299.186 165.956 299.26 165.909C299.332 165.863 299.386 165.785 299.408 165.696C299.429 165.605 299.417 165.509 299.375 165.429C299.333 165.349 299.263 165.291 299.181 165.267L298.046 164.799C298.119 164.715 298.179 164.617 298.225 164.513C298.99 164.764 299.751 165.051 300.508 165.372C300.891 165.537 301.055 164.86 300.672 164.693L299.482 164.227C299.866 164.363 300.029 163.699 299.646 163.548C298.785 163.232 297.937 162.931 297.075 162.644C298.443 162.896 299.81 163.101 301.178 163.263C301.657 163.368 301.657 162.72 301.261 162.629Z" fill="#FFE4D7"/>
<path d="M327.694 163.096C327.694 163.096 335.339 172.016 334.025 200.372C332.986 222.611 336.857 244.969 336.351 245.828C335.845 246.687 331.851 257.685 321.308 254.792L318.053 169.409" fill="#74FA71"/>
<path d="M307.592 174.276C307.168 177.289 302.614 193.968 302.354 231.831C302.272 243.025 304.666 263.471 304.666 263.471C304.666 263.471 313.609 268.775 322.443 263.471C331.277 258.167 327.776 250.724 327.776 250.724L325.684 219.973L323.742 168.34" fill="#74FA71"/>
<path d="M314.717 175.075C308.75 176.408 302.58 176.155 296.72 174.336C295.216 173.824 289.691 172.739 288.788 171.188C287.421 168.928 289.923 159.587 289.923 159.587C291.017 159.164 303.68 161.379 304.227 159.587C304.774 157.793 304.324 150.547 304.324 145.891C304.324 141.235 314.183 134.304 314.676 133.943C314.676 133.943 321.923 127.042 326.326 128.021C330.73 129.001 330.074 153.981 328.637 162.072C327.325 169.545 321.458 173.492 314.717 175.075Z" fill="#40BCB5"/>
<path d="M307.236 114.823C307.236 114.823 306.539 129.287 308.672 130.779C310.806 132.27 315.209 129.89 316.194 127.524C317.178 125.159 316.549 124.616 314.279 124.164C312.009 123.712 313.609 123.953 312.283 123.14C309.479 121.437 314.785 113.994 307.236 114.823Z" fill="#FFE4D7"/>
<path d="M317.027 130.839C319.305 124.696 320.849 118.254 321.623 111.674C321.106 111.092 320.505 110.608 319.844 110.243C318.28 109.057 316.462 108.341 314.571 108.164C312.679 107.987 310.778 108.356 309.055 109.233C308.15 109.612 307.339 110.223 306.692 111.017C306.045 111.811 305.58 112.763 305.336 113.796C305.09 114.828 305.073 115.909 305.285 116.951C305.497 117.992 305.931 118.962 306.553 119.78C308.46 122.362 309.974 125.267 311.038 128.383C311.245 129.41 311.72 130.347 312.406 131.08C312.777 131.342 313.198 131.507 313.636 131.562C314.808 131.742 316.001 131.488 317.027 130.839Z" fill="#801DFF"/>
<path d="M310.997 128.338C311.348 132.876 310.682 137.44 309.055 141.627C307.195 146.312 311.954 146.749 312.473 148.844C312.994 150.937 307.195 155.127 314.635 158.155C318.614 159.767 323.017 157.733 326.367 155.368C330.06 152.761 333.971 149.777 334.245 144.504C334.436 140.813 332.877 137.453 331.4 134.244C329.955 130.75 328.802 127.119 327.954 123.396C326.939 118.704 324.901 114.355 322.019 110.725C319.653 107.998 316.002 107.501 312.83 108.058" fill="#801DFF"/>
<path d="M309.739 130.402C312.118 130.402 314.047 128.041 314.047 125.129C314.047 122.216 312.118 119.855 309.739 119.855C307.36 119.855 305.431 122.216 305.431 125.129C305.431 128.041 307.36 130.402 309.739 130.402Z" fill="black"/>
<path d="M309.889 119.855C309.11 119.837 308.345 120.073 307.688 120.533C308.737 120.934 309.657 121.661 310.339 122.626C311.022 123.591 311.436 124.754 311.53 125.972C311.586 126.692 311.494 127.417 311.256 128.091C311.019 128.765 310.645 129.37 310.162 129.86C309.984 130.033 309.791 130.19 309.589 130.327H309.848C311.03 130.187 312.123 129.572 312.917 128.598C313.711 127.625 314.149 126.362 314.149 125.053C314.149 123.745 313.711 122.482 312.917 121.508C312.123 120.535 311.03 119.919 309.848 119.78L309.889 119.855Z" fill="#8EB3FB"/>
<path d="M312.268 110.74C312.47 110.266 312.708 109.813 312.979 109.384C313.503 108.668 314.229 108.165 315.042 107.955C315.854 107.744 316.707 107.839 317.465 108.224H317.602C316.235 106.099 313.103 106.22 311.161 107.199C310.086 107.846 309.168 108.768 308.485 109.888C307.802 111.008 307.374 112.292 307.236 113.633C307 115.239 307 116.878 307.236 118.484C307.236 118.665 307.483 120.548 307.674 120.594L311.353 121.362C310.761 118.827 310.761 116.168 311.353 113.633C311.574 112.639 311.88 111.67 312.268 110.74Z" fill="#8EB3FB"/>
<g style="mix-blend-mode:darken" filter="url(#filter0_f_1_3)">
<path d="M100.281 225.317C102.866 227.019 104.5 228.831 105.184 230.752C105.871 232.668 105.63 234.713 104.461 236.889C103.786 238.145 103.041 239.081 102.225 239.699C101.418 240.313 100.546 240.667 99.6097 240.76C98.6826 240.849 97.6983 240.701 96.657 240.316C95.6217 239.935 94.5366 239.371 93.402 238.624L88.1046 235.139L89.0679 233.345L89.5139 233.639C89.702 233.763 89.8651 233.833 90.0032 233.852C90.1449 233.863 90.2683 233.84 90.3735 233.781C90.4821 233.717 90.5786 233.621 90.663 233.495C90.7533 233.373 90.8418 233.231 90.9284 233.071C90.9393 233.049 91.0042 232.929 91.1232 232.708C91.2459 232.479 91.3999 232.185 91.5851 231.825C91.7763 231.469 91.9927 231.067 92.2345 230.616C92.4762 230.167 92.7216 229.709 92.9705 229.247L94.9621 225.54C95.0379 225.399 95.0943 225.263 95.1314 225.133C95.1745 225.007 95.1892 224.88 95.1755 224.753C95.1678 224.629 95.1219 224.509 95.0379 224.389C94.9637 224.268 94.8415 224.152 94.6716 224.04L94.2256 223.747L95.1836 221.964L100.281 225.317ZM93.3961 235.976L94.7067 236.837C95.3742 237.277 96.0054 237.569 96.6005 237.716C97.2014 237.865 97.7687 237.857 98.3019 237.691C98.845 237.52 99.359 237.191 99.8439 236.7C100.335 236.215 100.804 235.556 101.252 234.723C102.096 233.152 102.38 231.789 102.105 230.635C101.839 229.479 101.03 228.456 99.6768 227.565L98.3752 226.708L93.3961 235.976ZM120.032 238.315L118.062 241.98L116.287 240.812L116.509 240.4C116.682 240.077 116.785 239.809 116.818 239.595C116.852 239.38 116.833 239.2 116.764 239.055C116.698 238.901 116.59 238.767 116.439 238.649C116.289 238.532 116.116 238.409 115.922 238.281L112.873 236.276L110.908 239.932L112.701 241.112C112.835 241.2 112.951 241.267 113.049 241.313C113.157 241.357 113.26 241.371 113.36 241.355C113.459 241.337 113.564 241.28 113.675 241.18C113.792 241.084 113.925 240.936 114.075 240.733L114.848 241.243L112.933 244.809L112.15 244.293C112.229 244.055 112.281 243.857 112.308 243.703C112.334 243.547 112.329 243.416 112.295 243.312C112.265 243.201 112.207 243.109 112.123 243.036C112.043 242.956 111.936 242.872 111.803 242.784L110.01 241.604L107.905 245.523L111.081 247.612C111.306 247.76 111.503 247.867 111.673 247.933C111.842 248 112.003 248.005 112.156 247.952C112.314 247.901 112.47 247.785 112.625 247.605C112.783 247.419 112.957 247.148 113.149 246.792L113.322 246.469L115.078 247.625L112.989 251.513L102.549 244.644L103.513 242.851L104.186 243.293C104.344 243.397 104.482 243.447 104.599 243.443C104.723 243.443 104.834 243.403 104.935 243.323C105.041 243.247 105.133 243.144 105.211 243.013C105.296 242.888 105.379 242.747 105.462 242.593L109.359 235.34C109.438 235.192 109.515 235.043 109.588 234.891C109.661 234.74 109.707 234.592 109.726 234.451C109.745 234.308 109.727 234.173 109.672 234.047C109.627 233.917 109.519 233.796 109.349 233.684L108.712 233.265L109.665 231.492L120.032 238.315ZM121.67 239.392C121.762 239.452 121.917 239.559 122.138 239.713C122.369 239.865 122.623 240.033 122.903 240.217C123.188 240.404 123.471 240.596 123.753 240.789C124.044 240.981 124.296 241.147 124.509 241.287C124.649 241.379 124.818 241.491 125.018 241.623C125.218 241.755 125.434 241.896 125.664 242.048C125.905 242.196 126.152 242.355 126.408 242.523C126.665 242.684 126.92 242.845 127.168 243.009L126.204 244.803L125.886 244.593C125.65 244.437 125.455 244.341 125.302 244.304C125.156 244.271 125.028 244.279 124.921 244.325C124.817 244.367 124.726 244.444 124.649 244.556C124.579 244.673 124.505 244.803 124.429 244.943L122.918 247.753L127.725 250.916L129.332 247.924C129.415 247.769 129.469 247.632 129.492 247.512C129.522 247.395 129.517 247.283 129.476 247.173C129.443 247.069 129.37 246.967 129.259 246.867C129.152 246.76 129.005 246.645 128.817 246.521L128.498 246.312L129.462 244.519C130.043 244.92 130.582 245.284 131.08 245.611C131.578 245.939 132.06 246.256 132.527 246.564C132.643 246.64 132.788 246.735 132.964 246.851C133.146 246.971 133.346 247.103 133.564 247.247C133.787 247.383 134.02 247.532 134.262 247.692C134.508 247.844 134.746 247.997 134.978 248.148L134.014 249.941L133.722 249.749C133.486 249.595 133.29 249.492 133.135 249.445C132.984 249.391 132.852 249.381 132.743 249.419C132.643 249.452 132.552 249.52 132.473 249.623C132.403 249.723 132.331 249.843 132.255 249.983L128.174 257.579C128.069 257.773 127.982 257.943 127.912 258.088C127.846 258.227 127.815 258.36 127.82 258.491C127.833 258.617 127.894 258.748 128.002 258.883C128.12 259.015 128.31 259.167 128.57 259.339L128.862 259.531L127.898 261.324C127.68 261.18 127.468 261.04 127.261 260.904C127.064 260.765 126.861 260.627 126.647 260.487C126.435 260.347 126.208 260.197 125.965 260.037C125.732 259.875 125.47 259.699 125.179 259.507C124.633 259.147 124.133 258.823 123.681 258.535C123.234 258.249 122.802 257.969 122.382 257.693L123.346 255.901L123.664 256.111C123.883 256.255 124.061 256.353 124.196 256.405C124.338 256.463 124.459 256.475 124.559 256.44C124.669 256.404 124.764 256.325 124.845 256.205C124.935 256.084 125.035 255.921 125.144 255.72L126.794 252.648L121.988 249.485L120.235 252.749C120.126 252.951 120.054 253.116 120.017 253.247C119.989 253.375 119.997 253.489 120.041 253.591C120.089 253.685 120.17 253.779 120.284 253.872C120.402 253.959 120.552 254.063 120.734 254.183L121.052 254.392L120.089 256.185C119.864 256.037 119.646 255.893 119.434 255.753C119.231 255.611 119.017 255.465 118.793 255.319C118.574 255.175 118.341 255.021 118.092 254.857C117.847 254.687 117.572 254.501 117.269 254.301C116.984 254.115 116.721 253.945 116.481 253.797C116.25 253.645 116.029 253.5 115.816 253.36C115.604 253.22 115.396 253.088 115.192 252.963C114.998 252.835 114.798 252.703 114.591 252.567L115.555 250.775L115.837 250.96C116.08 251.12 116.282 251.216 116.444 251.251C116.61 251.279 116.751 251.261 116.866 251.2C116.986 251.144 117.086 251.051 117.164 250.92C117.252 250.787 117.339 250.64 117.426 250.479L121.534 242.833C121.606 242.699 121.661 242.576 121.695 242.463C121.741 242.348 121.748 242.235 121.718 242.123C121.687 242.012 121.615 241.896 121.499 241.775C121.389 241.657 121.22 241.523 120.989 241.371L120.707 241.185L121.67 239.392ZM142.968 253.065C143.969 253.724 144.761 254.481 145.344 255.339C145.933 256.199 146.326 257.111 146.521 258.076C146.727 259.039 146.743 260.027 146.568 261.039C146.401 262.055 146.059 263.043 145.542 264.003C145.026 264.964 144.406 265.768 143.679 266.417C142.959 267.071 142.168 267.532 141.308 267.803C140.448 268.073 139.537 268.132 138.575 267.981C137.614 267.829 136.636 267.427 135.64 266.772C134.633 266.109 133.832 265.345 133.237 264.481C132.641 263.617 132.24 262.704 132.035 261.741C131.833 260.772 131.816 259.78 131.985 258.763C132.156 257.74 132.504 256.741 133.027 255.768C133.543 254.808 134.16 254.004 134.876 253.359C135.597 252.705 136.385 252.247 137.242 251.983C138.107 251.717 139.022 251.664 139.986 251.827C140.961 251.985 141.955 252.399 142.968 253.065ZM141.909 255.013C141.386 254.671 140.878 254.485 140.383 254.46C139.893 254.437 139.414 254.559 138.944 254.821C138.484 255.083 138.033 255.477 137.593 256.005C137.163 256.531 136.746 257.169 136.342 257.923C135.92 258.708 135.605 259.445 135.398 260.137C135.191 260.828 135.096 261.465 135.111 262.048C135.13 262.624 135.264 263.144 135.516 263.609C135.77 264.068 136.15 264.463 136.654 264.795C137.163 265.129 137.663 265.308 138.152 265.331C138.651 265.349 139.132 265.225 139.596 264.957C140.066 264.695 140.521 264.299 140.961 263.771C141.41 263.239 141.842 262.591 142.253 261.825C143.097 260.253 143.501 258.892 143.462 257.74C143.427 256.581 142.91 255.672 141.909 255.013ZM152.908 259.947C152.944 259.971 153.018 260.019 153.126 260.091C153.236 260.163 153.364 260.247 153.509 260.343C153.661 260.443 153.819 260.547 153.983 260.655C154.153 260.765 154.309 260.869 154.455 260.965C154.607 261.065 154.738 261.151 154.847 261.223C154.962 261.299 155.038 261.349 155.075 261.373L155.06 274.492L155.078 274.504L158.863 267.437C158.964 267.249 159.031 267.093 159.065 266.971C159.102 266.84 159.104 266.723 159.069 266.619C159.035 266.515 158.96 266.416 158.846 266.323C158.742 266.227 158.595 266.116 158.407 265.992L157.989 265.717L158.952 263.924C159.407 264.224 159.812 264.495 160.166 264.737C160.526 264.983 160.855 265.204 161.153 265.4C161.195 265.428 161.263 265.472 161.353 265.532C161.451 265.596 161.559 265.667 161.681 265.747C161.802 265.827 161.933 265.913 162.072 266.004C162.216 266.089 162.357 266.179 162.496 266.271C162.824 266.485 163.184 266.717 163.576 266.967L162.612 268.76L162.148 268.455C161.942 268.319 161.77 268.241 161.631 268.224C161.498 268.199 161.377 268.215 161.272 268.273C161.177 268.328 161.087 268.42 161.002 268.545C160.928 268.669 160.849 268.808 160.766 268.963C160.759 268.976 160.672 269.137 160.506 269.447C160.341 269.755 160.124 270.159 159.857 270.655C159.594 271.145 159.294 271.703 158.959 272.327C158.623 272.952 158.281 273.589 157.93 274.241L155.137 279.439L152.143 277.468L152.096 263.776L152.078 263.764L148.179 271.041C148.067 271.251 147.988 271.42 147.941 271.553C147.904 271.684 147.903 271.801 147.937 271.905C147.977 272.013 148.055 272.115 148.168 272.208C148.283 272.301 148.441 272.413 148.641 272.545L149.086 272.839L148.123 274.632C147.777 274.404 147.427 274.169 147.073 273.927C146.724 273.688 146.317 273.416 145.849 273.108C145.589 272.936 145.35 272.784 145.133 272.651C144.921 272.512 144.718 272.377 144.524 272.249C144.336 272.127 144.149 272.008 143.963 271.895C143.782 271.775 143.594 271.651 143.4 271.523L144.362 269.731L144.836 270.041C145.06 270.189 145.243 270.277 145.383 270.307C145.53 270.34 145.656 270.327 145.761 270.269C145.866 270.211 145.96 270.113 146.042 269.976C146.127 269.832 146.221 269.663 146.326 269.468L150.315 262.045C150.424 261.844 150.506 261.675 150.562 261.539C150.623 261.397 150.642 261.269 150.62 261.155C150.609 261.039 150.553 260.929 150.453 260.827C150.355 260.717 150.207 260.596 150.006 260.464L149.533 260.153L150.496 258.36L152.908 259.947ZM164.741 267.733C165.011 267.92 165.255 268.091 165.476 268.244C165.701 268.392 165.91 268.531 166.105 268.657C166.299 268.785 166.483 268.908 166.659 269.023C166.842 269.143 167.021 269.261 167.196 269.376C167.56 269.616 167.882 269.828 168.162 270.012C168.447 270.199 168.707 270.371 168.945 270.527C169.187 270.687 169.417 270.837 169.636 270.981C169.864 271.123 170.101 271.269 170.347 271.423L169.384 273.216L169.003 272.964C168.783 272.82 168.598 272.731 168.446 272.693C168.303 272.653 168.174 272.656 168.06 272.699C167.957 272.74 167.863 272.815 167.78 272.923C167.706 273.029 167.63 273.156 167.551 273.304L163.405 281.02C163.307 281.201 163.233 281.356 163.18 281.485C163.13 281.607 163.116 281.725 163.137 281.839C163.161 281.945 163.228 282.053 163.335 282.16C163.447 282.271 163.619 282.401 163.849 282.553L164.233 282.805L163.269 284.597C163.045 284.451 162.825 284.307 162.613 284.167C162.405 284.02 162.188 283.873 161.964 283.725C161.745 283.581 161.508 283.425 161.253 283.259C161.008 283.088 160.737 282.904 160.44 282.709C159.882 282.341 159.385 282.02 158.951 281.743C158.523 281.469 158.093 281.192 157.661 280.908L158.625 279.116L158.989 279.355C159.226 279.511 159.42 279.607 159.573 279.644C159.726 279.681 159.858 279.672 159.969 279.617C160.081 279.564 160.177 279.468 160.259 279.332C160.347 279.199 160.441 279.037 160.542 278.849L164.466 271.547C164.57 271.352 164.654 271.18 164.718 271.032C164.786 270.876 164.814 270.731 164.804 270.597C164.798 270.456 164.743 270.32 164.641 270.189C164.539 270.059 164.372 269.917 164.142 269.765L163.777 269.527L164.741 267.733ZM179.376 277.364C179.053 279.296 178.759 281.057 178.497 282.648C178.386 283.329 178.273 284.004 178.159 284.675C178.049 285.339 177.945 285.952 177.847 286.515C177.761 287.076 177.682 287.556 177.615 287.957C177.551 288.352 177.509 288.615 177.487 288.745C177.389 289.309 177.311 289.752 177.252 290.077C177.193 290.401 177.177 290.668 177.204 290.877C177.238 291.091 177.323 291.273 177.462 291.429C177.605 291.577 177.828 291.756 178.134 291.967L177.176 293.749C176.818 293.513 176.471 293.281 176.135 293.051C175.805 292.824 175.418 292.565 174.975 292.273C174.453 291.931 173.939 291.596 173.432 291.272C172.934 290.944 172.393 290.592 171.806 290.216L172.699 288.553C172.723 288.569 172.757 288.592 172.799 288.62C172.848 288.652 172.897 288.684 172.945 288.716C172.994 288.748 173.039 288.777 173.082 288.805C173.128 288.827 173.159 288.843 173.179 288.855C173.476 289.033 173.694 289.132 173.833 289.149C173.971 289.168 174.076 289.109 174.148 288.976C174.192 288.895 174.229 288.788 174.259 288.653C174.294 288.512 174.329 288.349 174.363 288.163L174.804 285.876L170.607 283.115C170.55 283.176 170.429 283.293 170.247 283.464C170.069 283.628 169.875 283.805 169.666 283.995C169.464 284.188 169.276 284.369 169.104 284.537C168.931 284.707 168.824 284.813 168.783 284.859C168.703 284.933 168.631 285.004 168.57 285.073C168.518 285.139 168.48 285.195 168.454 285.243C168.375 285.389 168.36 285.516 168.41 285.623C168.47 285.725 168.595 285.844 168.786 285.979C168.804 285.991 168.841 286.02 168.899 286.067C168.959 286.107 169.025 286.151 169.099 286.199C169.171 286.245 169.239 286.289 169.299 286.329C169.365 286.373 169.411 286.404 169.435 286.42L168.548 288.072C168.177 287.828 167.806 287.579 167.434 287.325C167.062 287.071 166.657 286.8 166.219 286.512C166.007 286.372 165.807 286.24 165.618 286.117C165.436 285.997 165.255 285.883 165.076 285.773C164.9 285.657 164.719 285.543 164.534 285.431C164.352 285.311 164.158 285.183 163.952 285.047L164.915 283.255C165.147 283.371 165.336 283.463 165.481 283.531C165.631 283.603 165.766 283.641 165.886 283.648C166.01 283.647 166.134 283.615 166.258 283.552C166.386 283.481 166.541 283.369 166.722 283.216C166.839 283.12 167.027 282.963 167.284 282.741C167.543 282.52 167.843 282.259 168.186 281.957C168.535 281.66 168.915 281.336 169.323 280.988C169.736 280.632 170.156 280.272 170.582 279.907C171.007 279.541 171.427 279.181 171.84 278.827C172.253 278.471 172.634 278.144 172.982 277.847C173.335 277.543 173.64 277.28 173.898 277.059C174.16 276.831 174.352 276.667 174.473 276.564L175.854 275.047L179.376 277.364ZM171.73 282.08L175.088 284.291L176.306 277.92L176.293 277.899L171.73 282.08ZM187.132 282.467C187.168 282.491 187.241 282.539 187.35 282.611C187.46 282.683 187.587 282.767 187.732 282.863C187.884 282.963 188.042 283.065 188.205 283.173C188.375 283.285 188.533 283.389 188.679 283.485C188.831 283.585 188.961 283.671 189.07 283.743C189.186 283.819 189.262 283.868 189.298 283.892L189.284 297.012L189.302 297.024L193.086 289.957C193.187 289.769 193.255 289.613 193.289 289.491C193.325 289.36 193.326 289.243 193.292 289.139C193.258 289.035 193.184 288.935 193.069 288.841C192.966 288.745 192.819 288.636 192.631 288.512L192.213 288.237L193.175 286.444C193.631 286.743 194.036 287.015 194.39 287.256C194.75 287.503 195.079 287.724 195.377 287.92C195.419 287.947 195.485 287.991 195.577 288.051C195.674 288.115 195.783 288.187 195.904 288.267C196.026 288.347 196.156 288.432 196.296 288.524C196.439 288.609 196.58 288.697 196.72 288.789C197.048 289.005 197.407 289.237 197.8 289.487L196.836 291.279L196.372 290.973C196.166 290.839 195.993 290.761 195.855 290.743C195.721 290.719 195.601 290.735 195.496 290.793C195.401 290.848 195.31 290.939 195.226 291.065C195.151 291.189 195.073 291.328 194.99 291.483C194.983 291.496 194.896 291.657 194.73 291.965C194.563 292.275 194.348 292.677 194.08 293.175C193.818 293.665 193.518 294.223 193.183 294.847C192.846 295.471 192.504 296.109 192.154 296.76L189.361 301.957L186.367 299.988L186.319 286.295L186.301 286.283L182.403 293.561C182.291 293.769 182.211 293.94 182.164 294.073C182.128 294.203 182.126 294.32 182.161 294.425C182.2 294.533 182.278 294.633 182.392 294.727C182.506 294.82 182.663 294.933 182.864 295.065L183.31 295.359L182.346 297.151C182 296.924 181.65 296.689 181.296 296.447C180.947 296.208 180.54 295.935 180.073 295.628C179.811 295.456 179.574 295.304 179.357 295.171C179.145 295.031 178.941 294.897 178.747 294.769C178.559 294.645 178.373 294.527 178.187 294.415C178.005 294.295 177.817 294.171 177.622 294.043L178.586 292.249L179.059 292.561C179.283 292.709 179.467 292.797 179.606 292.827C179.753 292.859 179.879 292.847 179.985 292.788C180.09 292.731 180.184 292.633 180.264 292.496C180.35 292.352 180.445 292.183 180.55 291.988L184.539 284.564C184.647 284.363 184.729 284.195 184.786 284.059C184.845 283.916 184.866 283.788 184.844 283.675C184.833 283.559 184.776 283.449 184.676 283.345C184.579 283.236 184.429 283.116 184.229 282.984L183.756 282.673L184.72 280.88L187.132 282.467ZM206.373 295.128C206.049 297.06 205.756 298.821 205.494 300.412C205.382 301.093 205.27 301.768 205.155 302.439C205.045 303.103 204.942 303.716 204.844 304.28C204.756 304.84 204.679 305.32 204.612 305.721C204.548 306.116 204.505 306.379 204.484 306.509C204.386 307.073 204.308 307.517 204.249 307.841C204.189 308.165 204.173 308.432 204.201 308.641C204.235 308.855 204.32 309.039 204.459 309.193C204.601 309.341 204.825 309.52 205.131 309.731L204.173 311.513C203.815 311.277 203.468 311.045 203.132 310.815C202.802 310.588 202.415 310.329 201.972 310.037C201.45 309.695 200.936 309.36 200.429 309.036C199.931 308.708 199.389 308.356 198.803 307.98L199.696 306.317C199.72 306.333 199.754 306.356 199.796 306.384C199.844 306.416 199.894 306.448 199.942 306.48C199.99 306.512 200.036 306.541 200.078 306.569C200.124 306.591 200.156 306.607 200.174 306.619C200.473 306.797 200.691 306.896 200.83 306.913C200.967 306.932 201.073 306.873 201.144 306.74C201.188 306.659 201.225 306.552 201.256 306.417C201.291 306.276 201.325 306.113 201.36 305.927L201.8 303.64L197.604 300.879C197.547 300.94 197.426 301.057 197.244 301.228C197.066 301.392 196.872 301.569 196.663 301.759C196.46 301.953 196.273 302.133 196.1 302.303C195.927 302.471 195.821 302.577 195.78 302.623C195.698 302.697 195.627 302.768 195.566 302.837C195.514 302.903 195.475 302.959 195.45 303.007C195.371 303.155 195.356 303.281 195.407 303.387C195.466 303.489 195.591 303.608 195.781 303.743C195.801 303.755 195.838 303.784 195.895 303.831C195.955 303.871 196.022 303.915 196.095 303.963C196.168 304.011 196.234 304.053 196.296 304.093C196.362 304.137 196.408 304.168 196.432 304.184L195.544 305.836C195.174 305.592 194.803 305.343 194.43 305.089C194.057 304.835 193.652 304.564 193.216 304.276C193.003 304.136 192.803 304.005 192.615 303.881C192.433 303.761 192.252 303.647 192.073 303.537C191.897 303.421 191.716 303.308 191.531 303.195C191.349 303.075 191.154 302.947 190.948 302.811L191.911 301.019C192.144 301.135 192.333 301.227 192.477 301.295C192.627 301.367 192.762 301.405 192.883 301.412C193.005 301.411 193.13 301.379 193.255 301.316C193.383 301.245 193.537 301.133 193.718 300.98C193.836 300.884 194.022 300.727 194.281 300.505C194.539 300.284 194.84 300.023 195.183 299.721C195.532 299.424 195.91 299.101 196.32 298.752C196.732 298.396 197.151 298.036 197.578 297.671C198.004 297.307 198.424 296.945 198.836 296.591C199.249 296.235 199.63 295.908 199.979 295.611C200.331 295.307 200.637 295.044 200.895 294.823C201.156 294.595 201.348 294.431 201.468 294.328L202.85 292.811L206.373 295.128ZM198.726 299.844L202.085 302.055L203.302 295.684L203.29 295.663L198.726 299.844ZM223.048 306.1L217.473 316.476C217.358 316.691 217.269 316.872 217.205 317.021C217.151 317.168 217.142 317.307 217.177 317.44C217.213 317.572 217.301 317.707 217.441 317.844C217.584 317.975 217.801 318.136 218.093 318.328L218.72 318.741L217.789 320.473C217.559 320.321 217.335 320.173 217.116 320.031C216.898 319.887 216.67 319.737 216.434 319.581C216.206 319.423 215.963 319.257 215.701 319.085C215.451 318.912 215.173 318.724 214.87 318.525C214.512 318.289 214.185 318.079 213.89 317.893C213.605 317.707 213.335 317.528 213.081 317.361C212.825 317.193 212.575 317.033 212.329 316.88C212.085 316.72 211.834 316.555 211.573 316.383L212.503 314.651L213.359 315.213C213.614 315.381 213.819 315.488 213.975 315.536C214.14 315.581 214.278 315.581 214.391 315.539C214.506 315.495 214.605 315.411 214.689 315.284C214.777 315.151 214.871 314.991 214.972 314.803L219.053 307.208C218.819 307.199 218.581 307.179 218.335 307.144C218.096 307.115 217.861 307.079 217.63 307.035C217.408 306.989 217.194 306.939 216.986 306.883C216.787 306.825 216.61 306.763 216.457 306.699L217.543 304.673C218.208 304.965 218.861 305.127 219.501 305.157C220.148 305.192 220.751 305.125 221.31 304.956L223.048 306.1ZM233.141 312.401C233.881 312.888 234.469 313.475 234.905 314.161C235.351 314.845 235.628 315.615 235.737 316.468C235.849 317.313 235.787 318.237 235.553 319.237C235.329 320.236 234.918 321.292 234.32 322.407C233.696 323.568 233.034 324.501 232.335 325.205C231.636 325.908 230.918 326.404 230.181 326.692C229.453 326.976 228.716 327.064 227.97 326.955C227.224 326.845 226.495 326.557 225.786 326.089C225.046 325.603 224.454 325.013 224.012 324.323C223.58 323.629 223.307 322.855 223.193 321.997C223.084 321.144 223.143 320.216 223.371 319.211C223.609 318.204 224.027 317.143 224.625 316.028C225.206 314.947 225.834 314.055 226.506 313.352C227.18 312.651 227.877 312.147 228.6 311.84C229.327 311.528 230.071 311.417 230.835 311.511C231.608 311.601 232.376 311.897 233.141 312.401ZM232.091 314.355C231.315 313.844 230.533 313.871 229.745 314.433C228.968 314.995 228.156 316.06 227.312 317.632C226.857 318.479 226.5 319.243 226.24 319.925C225.98 320.609 225.823 321.22 225.772 321.759C225.724 322.291 225.785 322.753 225.952 323.144C226.128 323.533 226.423 323.864 226.836 324.136C227.636 324.663 228.428 324.628 229.207 324.033C229.991 323.431 230.823 322.309 231.703 320.672C232.587 319.027 233.063 317.689 233.13 316.661C233.203 315.627 232.856 314.859 232.091 314.355ZM247.542 322.217L243.526 329.692L245.255 330.829L244.368 332.481L242.638 331.344L241.756 332.985C241.662 333.16 241.596 333.307 241.556 333.427C241.522 333.549 241.523 333.664 241.557 333.768C241.596 333.865 241.669 333.964 241.78 334.064C241.897 334.168 242.061 334.291 242.273 334.431L242.792 334.772L241.937 336.363C241.828 336.291 241.646 336.171 241.391 336.004C241.146 335.833 240.872 335.648 240.568 335.448C240.264 335.249 239.958 335.047 239.649 334.844C239.343 334.633 239.078 334.455 238.853 334.307C238.562 334.115 238.299 333.947 238.066 333.801C237.84 333.653 237.628 333.513 237.428 333.383C237.234 333.255 237.04 333.132 236.849 333.015C236.667 332.895 236.473 332.768 236.267 332.632L237.122 331.04L237.814 331.495C238.026 331.635 238.21 331.743 238.367 331.819C238.523 331.895 238.658 331.933 238.772 331.935C238.896 331.935 239 331.9 239.087 331.829C239.175 331.759 239.26 331.647 239.343 331.492L240.263 329.78L234.947 326.283C235.086 325.901 235.223 325.524 235.359 325.149C235.494 324.775 235.623 324.396 235.747 324.015L244.792 320.409L247.542 322.217ZM237.084 325.493L241.161 328.176L244.229 322.465L237.084 325.493ZM247.246 336.708C247.484 336.863 247.679 337.033 247.836 337.217C247.997 337.405 248.115 337.597 248.191 337.792C248.277 337.985 248.314 338.183 248.304 338.385C248.304 338.584 248.255 338.775 248.157 338.956C247.966 339.312 247.674 339.52 247.28 339.579C246.891 339.632 246.442 339.491 245.932 339.155C245.434 338.828 245.103 338.464 244.939 338.067C244.783 337.672 244.808 337.28 245.017 336.889C245.205 336.541 245.499 336.344 245.902 336.299C246.307 336.248 246.755 336.384 247.246 336.708ZM254.194 338.729C253.737 339.609 253.594 340.38 253.766 341.037C253.944 341.7 254.418 342.285 255.189 342.792C255.498 342.996 255.809 343.141 256.124 343.231C256.447 343.316 256.756 343.337 257.05 343.295C257.35 343.256 257.629 343.143 257.884 342.957C258.15 342.768 258.377 342.5 258.565 342.151C258.788 341.733 258.909 341.332 258.929 340.945C258.954 340.561 258.892 340.193 258.744 339.843C258.607 339.488 258.388 339.153 258.089 338.839C257.794 338.516 257.438 338.215 257.024 337.932L257.858 336.381C258.283 336.597 258.676 336.761 259.036 336.871C259.4 336.973 259.732 337.011 260.035 336.983C260.337 336.955 260.611 336.852 260.853 336.676C261.102 336.503 261.321 336.239 261.513 335.883C261.668 335.595 261.762 335.297 261.795 334.991C261.827 334.685 261.799 334.389 261.706 334.101C261.624 333.811 261.48 333.535 261.277 333.273C261.078 333.016 260.827 332.787 260.524 332.587C260.166 332.352 259.833 332.205 259.527 332.149C259.224 332.087 258.942 332.1 258.679 332.192C258.423 332.287 258.183 332.451 257.958 332.685C257.739 332.923 257.532 333.219 257.335 333.569L255.465 332.257L256.914 329.584C257.614 329.519 258.36 329.623 259.149 329.896C259.948 330.167 260.772 330.583 261.621 331.141C262.295 331.584 262.856 332.059 263.308 332.565C263.759 333.071 264.088 333.596 264.296 334.143C264.503 334.688 264.585 335.247 264.542 335.817C264.503 336.392 264.331 336.965 264.025 337.536C263.631 338.268 263.12 338.753 262.49 338.993C261.86 339.233 261.15 339.217 260.361 338.943C260.694 339.288 260.965 339.653 261.177 340.039C261.399 340.421 261.546 340.821 261.615 341.24C261.687 341.66 261.68 342.097 261.6 342.553C261.523 343.003 261.359 343.461 261.106 343.932C260.767 344.563 260.352 345.053 259.86 345.403C259.378 345.749 258.832 345.953 258.224 346.016C257.621 346.084 256.968 346.008 256.263 345.791C255.57 345.569 254.839 345.208 254.074 344.704C253.571 344.373 253.109 343.979 252.69 343.52C252.271 343.063 251.953 342.54 251.734 341.951C251.527 341.36 251.45 340.7 251.504 339.972C251.565 339.249 251.816 338.451 252.261 337.58L254.194 338.729ZM278.398 342.521L276.374 346.288L274.607 345.127L274.868 344.643C275.04 344.321 275.143 344.052 275.177 343.837C275.21 343.623 275.196 343.441 275.136 343.293C275.081 343.139 274.986 343.008 274.853 342.903C274.731 342.795 274.594 342.691 274.442 342.591L271.357 340.56L269.387 344.227L270.988 345.281C271.14 345.381 271.27 345.461 271.376 345.523C271.493 345.581 271.6 345.611 271.698 345.612C271.8 345.605 271.902 345.56 272.006 345.473C272.11 345.388 272.226 345.247 272.357 345.049L273.04 345.499L271.248 348.833L270.565 348.384C270.648 348.184 270.698 348.016 270.713 347.881C270.728 347.745 270.717 347.629 270.678 347.532C270.645 347.427 270.576 347.332 270.475 347.247C270.382 347.159 270.263 347.067 270.117 346.971L268.488 345.899L266.75 349.132C266.653 349.313 266.589 349.472 266.558 349.605C266.531 349.733 266.537 349.851 266.578 349.959C266.622 350.061 266.696 350.16 266.8 350.256C266.911 350.356 267.054 350.464 267.23 350.579L267.785 350.944L266.822 352.737C266.561 352.565 266.31 352.4 266.066 352.24C265.824 352.081 265.572 351.915 265.311 351.743C265.06 351.569 264.791 351.388 264.506 351.2C264.225 351.005 263.914 350.797 263.574 350.573C263.277 350.377 263.008 350.205 262.767 350.056C262.537 349.904 262.319 349.761 262.113 349.625C261.912 349.493 261.713 349.367 261.515 349.245C261.327 349.123 261.127 348.991 260.914 348.851L261.878 347.057L262.488 347.459C262.652 347.567 262.794 347.647 262.914 347.699C263.037 347.743 263.152 347.745 263.255 347.705C263.365 347.668 263.473 347.58 263.581 347.443C263.688 347.304 263.812 347.104 263.953 346.841L267.86 339.569C267.979 339.348 268.072 339.159 268.14 339.003C268.207 338.847 268.237 338.708 268.229 338.584C268.225 338.455 268.175 338.335 268.077 338.225C267.99 338.113 267.846 337.992 267.646 337.86L267.054 337.471L268.012 335.688L278.398 342.521ZM279.262 343.091C279.347 343.147 279.494 343.247 279.703 343.393C279.921 343.537 280.159 343.699 280.416 343.877C280.677 344.049 280.941 344.223 281.209 344.399C281.475 344.573 281.703 344.724 281.891 344.847C282.054 344.955 282.246 345.081 282.464 345.224C282.688 345.372 282.922 345.527 283.165 345.685C283.417 345.843 283.668 346.003 283.917 346.167C284.169 346.324 284.411 346.479 284.641 346.629L283.546 352.153C283.405 352.843 283.269 353.517 283.138 354.175C283.011 354.837 282.895 355.429 282.788 355.949C282.685 356.463 282.6 356.88 282.534 357.2C282.479 357.519 282.451 357.677 282.451 357.677C282.628 357.485 282.912 357.2 283.305 356.821C283.7 356.436 284.15 356.005 284.653 355.527C285.167 355.047 285.704 354.541 286.268 354.012C286.832 353.484 287.369 352.979 287.882 352.499C288.399 352.011 288.862 351.571 289.27 351.176C289.686 350.785 289.993 350.488 290.193 350.283C290.412 350.427 290.652 350.591 290.916 350.772C291.19 350.952 291.461 351.135 291.729 351.321C292.009 351.505 292.276 351.681 292.531 351.849C292.786 352.016 293.004 352.16 293.186 352.28C293.332 352.376 293.523 352.501 293.76 352.657C294.003 352.817 294.245 352.977 294.487 353.136C294.734 353.289 294.955 353.429 295.149 353.557C295.346 353.679 295.479 353.761 295.545 353.805L294.582 355.597L294.117 355.292C293.929 355.169 293.772 355.088 293.645 355.049C293.527 355.008 293.425 355 293.338 355.024C293.261 355.047 293.192 355.097 293.133 355.176C293.074 355.256 293.014 355.352 292.952 355.467L290.798 359.475C290.174 360.637 289.468 361.959 288.681 363.44C288.583 363.621 288.511 363.779 288.464 363.911C288.417 364.044 288.402 364.165 288.417 364.275C288.441 364.383 288.502 364.485 288.596 364.584C288.691 364.683 288.829 364.792 289.011 364.912L289.457 365.205L288.493 366.997C288.263 366.847 288.039 366.699 287.82 366.555C287.605 366.404 287.38 366.251 287.142 366.096C286.912 365.944 286.667 365.783 286.405 365.611C286.155 365.436 285.88 365.251 285.582 365.055C285.322 364.884 285.086 364.733 284.876 364.604C284.676 364.472 284.485 364.347 284.303 364.227C284.127 364.111 283.952 364 283.779 363.896C283.615 363.788 283.442 363.673 283.26 363.555L284.223 361.761L284.597 362.007C284.803 362.143 284.979 362.221 285.122 362.244C285.276 362.263 285.412 362.239 285.53 362.172C285.658 362.101 285.775 361.992 285.88 361.843C285.985 361.693 286.091 361.517 286.199 361.316L290.762 352.825L289.393 354.065L280.803 361.937L279.128 360.835C279.159 360.637 279.211 360.336 279.282 359.928C279.353 359.52 279.435 359.047 279.528 358.508C279.63 357.967 279.74 357.38 279.858 356.748C279.978 356.109 280.099 355.467 280.217 354.817C280.34 354.161 280.457 353.516 280.569 352.88C280.686 352.248 280.791 351.663 280.883 351.124C280.986 350.583 281.072 350.108 281.144 349.7C281.224 349.289 281.281 348.987 281.312 348.789L281.48 347.836C281.5 347.721 281.517 347.605 281.532 347.488C281.556 347.367 281.575 347.261 281.591 347.172C281.607 347.064 281.624 346.963 281.644 346.867L276.887 355.72C276.778 355.921 276.701 356.088 276.654 356.221C276.617 356.352 276.61 356.465 276.631 356.561C276.66 356.661 276.721 356.756 276.812 356.844C276.911 356.936 277.048 357.04 277.224 357.156L277.66 357.443L276.698 359.236C276.522 359.12 276.352 359.008 276.188 358.9C276.028 358.785 275.859 358.671 275.683 358.555C275.507 358.439 275.319 358.316 275.119 358.184C274.929 358.049 274.715 357.904 274.478 357.748C274.223 357.581 273.992 357.432 273.781 357.303C273.575 357.168 273.381 357.04 273.199 356.92C273.017 356.8 272.836 356.685 272.657 356.576C272.487 356.465 272.311 356.349 272.128 356.229L273.092 354.436L273.537 354.729C273.757 354.873 273.936 354.96 274.076 354.989C274.221 355.011 274.342 354.991 274.441 354.929C274.54 354.867 274.629 354.771 274.707 354.64C274.792 354.513 274.883 354.365 274.983 354.195L279.062 346.627C279.148 346.465 279.211 346.32 279.247 346.189C279.291 346.063 279.301 345.943 279.281 345.829C279.27 345.713 279.218 345.601 279.127 345.496C279.036 345.391 278.903 345.28 278.727 345.164L278.299 344.883L279.262 343.091Z" fill="black"/>
</g>
<defs>
<filter id="filter0_f_1_3" x="84.1046" y="217.964" width="215.44" height="153.033" filterUnits="userSpaceOnUse" color-interpolation-filters="sRGB">
<feFlood flood-opacity="0" result="BackgroundImageFix"/>
<feBlend mode="normal" in="SourceGraphic" in2="BackgroundImageFix" result="shape"/>
<feGaussianBlur stdDeviation="2" result="effect1_foregroundBlur_1_3"/>
</filter>
<linearGradient id="paint0_linear_1_3" x1="391.515" y1="330.864" x2="299.597" y2="233.216" gradientUnits="userSpaceOnUse">
<stop stop-color="#42210B" stop-opacity="0"/>
<stop offset="1" stop-color="#662D91"/>
</linearGradient>
<linearGradient id="paint1_linear_1_3" x1="273.5" y1="229.164" x2="196.624" y2="147.49" gradientUnits="userSpaceOnUse">
<stop stop-color="#42210B" stop-opacity="0"/>
<stop offset="1" stop-color="#662D91"/>
</linearGradient>
<linearGradient id="paint2_linear_1_3" x1="354.114" y1="294.764" x2="277.619" y2="213.492" gradientUnits="userSpaceOnUse">
<stop stop-color="#42210B" stop-opacity="0"/>
<stop offset="1" stop-color="#662D91"/>
</linearGradient>
</defs>
</svg>
