<svg width="784" height="600" viewBox="0 0 784 600" fill="none" xmlns="http://www.w3.org/2000/svg">
<path d="M752.139 378.726L476 564.763C469.101 569.409 461.276 571.856 453.309 571.856C445.345 571.856 437.519 569.409 430.62 564.763L48.76 307.56C45.9738 305.678 43.6604 302.976 42.0523 299.721C40.4442 296.467 39.5977 292.777 39.5977 289.021C39.5977 285.265 40.4442 281.575 42.0523 278.323C43.6604 275.068 45.9738 272.365 48.76 270.482L322.76 84.96C329.26 80.5703 336.64 78.2588 344.15 78.2588C351.662 78.2588 359.04 80.5703 365.54 84.96L752.139 345.244C754.657 346.943 756.745 349.384 758.197 352.322C759.651 355.261 760.414 358.594 760.414 361.984C760.414 365.377 759.651 368.709 758.197 371.648C756.745 374.586 754.657 377.027 752.139 378.726Z" fill="#BCBCF7"/>
<path d="M299.461 135.08L301.76 88.5767L296.819 85.6834L290.22 90.35V137.157L294.92 138.79C296.247 137.268 297.781 136.015 299.461 135.08Z" fill="#6D0D4D"/>
<path d="M218.479 186.833C218.536 186.621 218.641 186.431 218.788 186.284C218.932 186.14 219.11 186.047 219.3 186.018C219.461 185.433 219.581 184.826 219.679 184.219C219.699 184.06 219.75 183.909 219.831 183.779C219.91 183.649 220.018 183.544 220.139 183.474L224.5 95.18L219.84 92.66L212.96 97.5133V186.763C214.599 187.604 216.06 188.374 217.66 189.33C217.889 188.479 218.164 187.645 218.479 186.833Z" fill="#6D0D4D"/>
<path d="M238.74 176.147C238.789 176.032 238.86 175.929 238.946 175.848C239.033 175.768 239.133 175.71 239.241 175.681L244.381 71.7067L239.82 69L232.86 73.9V176.333C234.86 177.174 235.78 177.5 237.559 178.318C237.7 177.711 238.539 176.707 238.74 176.147Z" fill="#6D0D4D"/>
<path d="M255.461 161.96C255.72 160.863 255.981 161.004 256.721 160.211C256.821 160.109 256.939 160.035 257.066 159.992C257.195 159.946 257.329 159.934 257.461 159.953L261.279 82.44L256.7 79.8033L249.739 84.47V161.96C251.54 162.356 252.661 162.777 254.441 163.196L255.461 161.96Z" fill="#6D0D4D"/>
<path d="M278.539 148.59L281.521 88.25L276.58 85.59L269.981 90.2567V150.48C271.76 151.11 272.879 151.413 274.68 151.973C275.873 150.707 277.165 149.574 278.539 148.59Z" fill="#6D0D4D"/>
<path d="M202.3 196.049C202.344 195.89 202.418 195.743 202.516 195.622C202.615 195.498 202.735 195.403 202.869 195.341C203.003 195.277 203.145 195.25 203.29 195.26C203.433 195.271 203.574 195.316 203.7 195.396L207.84 111.583L203.3 108.923L196.3 113.847V196.049C198.16 196.96 199.159 197.519 200.98 198.382L201.88 197.519C201.988 197.017 202.129 196.526 202.3 196.049Z" fill="#6D0D4D"/>
<path d="M185.861 76.4434L180.939 73.55L174.32 78.2167V211.451L179.02 214.156" fill="#6D0D4D"/>
<path d="M593.54 356.256L671.82 412.396L517.36 517.653L437.461 463.381L593.54 356.256Z" fill="url(#paint0_linear_1_3)"/>
<path d="M605.739 353.363L346 179.46C343.228 177.587 340.083 176.602 336.879 176.602C333.678 176.602 330.532 177.587 327.76 179.46L189.1 274.193C187.482 275.291 186.137 276.867 185.204 278.76C184.27 280.654 183.778 282.799 183.778 284.984C183.778 287.171 184.27 289.316 185.204 291.21C186.137 293.103 187.482 294.679 189.1 295.777L446.1 469.26C449.797 471.754 454 473.053 458.271 473.02C462.543 472.987 466.729 471.624 470.4 469.074L605.84 374.923C607.448 373.814 608.781 372.23 609.702 370.334C610.626 368.437 611.105 366.291 611.094 364.109C611.084 361.928 610.585 359.789 609.646 357.904C608.707 356.019 607.359 354.453 605.739 353.363Z" fill="#AA3679"/>
<path d="M605.739 339.667L346 165.786C343.228 163.915 340.083 162.928 336.879 162.928C333.678 162.928 330.532 163.915 327.76 165.786L189.1 260.496C187.482 261.595 186.137 263.17 185.204 265.064C184.27 266.957 183.778 269.103 183.778 271.288C183.778 273.472 184.27 275.62 185.204 277.513C186.137 279.407 187.482 280.982 189.1 282.081L446.1 455.563C449.797 458.058 454 459.356 458.271 459.323C462.543 459.29 466.729 457.927 470.4 455.377L605.84 361.226C607.448 360.117 608.781 358.534 609.702 356.638C610.626 354.74 611.105 352.595 611.094 350.412C611.084 348.232 610.585 346.093 609.646 344.207C608.707 342.322 607.359 340.757 605.739 339.667Z" fill="#262120"/>
<path d="M360.28 191.314C358.841 191.874 227.641 281.17 227.641 281.17L446.819 430.947L579.219 341.767L360.28 191.314Z" fill="white"/>
<path d="M241.521 246.333C241.112 246.057 240.758 245.683 240.483 245.237C240.206 244.791 240.012 244.283 239.914 243.744C239.817 243.205 239.815 242.65 239.914 242.111C240.011 241.572 240.204 241.064 240.479 240.616C242.333 238.353 244.486 236.453 246.86 234.993C249.1 233.36 251.44 231.937 253.72 230.326L271.38 218.263L285.861 208.37C286.811 207.685 287.88 207.255 288.99 207.115C290.102 206.972 291.225 207.123 292.28 207.553C293.799 208.174 295.108 209.343 296.019 210.889C296.248 211.329 296.393 211.821 296.446 212.331C296.497 212.841 296.456 213.359 296.324 213.848C296.192 214.34 295.972 214.792 295.678 215.174C295.383 215.556 295.024 215.862 294.62 216.07L268 234.177L256.5 241.948L249.84 246.496C248.826 247.207 247.692 247.647 246.516 247.783C245.341 247.921 244.153 247.752 243.04 247.289C242.495 247.06 241.984 246.738 241.521 246.333Z" fill="#FF1D1D"/>
<path d="M307.48 204.218C310.032 204.218 312.1 202.221 312.1 199.76C312.1 197.298 310.032 195.304 307.48 195.304C304.929 195.304 302.86 197.298 302.86 199.76C302.86 202.221 304.929 204.218 307.48 204.218Z" fill="#FF1D1D"/>
<path d="M453.279 37.6866H454.601C452.395 36.1687 449.954 35.1699 447.42 34.7466H446.721H446.16H445.159C442.856 34.7514 440.596 35.4851 438.62 36.87C432.9 40.37 427.9 47.9066 425.679 57.59C422.16 72.85 426.86 87.5966 436.16 90.5133C438.809 91.2951 441.6 91.1161 444.16 90C444.622 93.265 444.303 96.6155 443.241 99.6833L446.34 101.107L450 92.87L448.539 91.6333C449.517 89.6576 450.263 87.539 450.759 85.3333C454.989 80.6869 457.993 74.7292 459.42 68.16C462.34 55.4433 459.6 43.17 453.279 37.6866Z" fill="#68E1FD"/>
<path opacity="0.1" d="M453.279 37.6866H454.601C452.395 36.1687 449.954 35.1699 447.42 34.7466H446.721H446.16H445.159C442.856 34.7514 440.596 35.4851 438.62 36.87C432.9 40.37 427.9 47.9066 425.679 57.59C422.16 72.85 426.86 87.5966 436.16 90.5133C438.809 91.2951 441.6 91.1161 444.16 90C444.622 93.265 444.303 96.6155 443.241 99.6833L446.34 101.107L450 92.87L448.539 91.6333C449.517 89.6576 450.263 87.539 450.759 85.3333C454.989 80.6869 457.993 74.7292 459.42 68.16C462.34 55.4433 459.6 43.17 453.279 37.6866Z" fill="#1D1616"/>
<path d="M456.922 33.2265C443.246 29.6104 427.984 41.905 422.849 60.9399C417.713 79.9747 424.58 98.1419 438.227 101.758C442.115 102.727 446.21 102.505 449.967 101.122C450.643 105.17 450.176 109.323 448.617 113.127C453.891 108.329 457.685 102.163 459.563 95.3359C465.769 89.5755 470.176 82.1891 472.271 74.0445C477.466 55.0964 470.627 36.8425 456.922 33.2265Z" fill="black"/>
<path d="M466.451 50.8463C465.175 45.4808 461.618 43.5204 457.725 46.1344C453.135 49.1954 450.46 56.1772 448.604 63.331C447.359 57.5873 445.168 52.6691 440.578 53.873C436.747 54.9046 432.886 59.9605 431.123 66.117C430.331 68.287 429.935 70.6154 429.956 72.9627C429.979 75.3101 430.418 77.6284 431.249 79.7792C432.081 81.93 433.288 83.8693 434.797 85.481C436.305 87.0928 438.085 88.3444 440.032 89.1604C441.764 90.1258 443.695 90.5458 445.619 90.3762C447.545 90.2069 449.396 89.4543 450.976 88.1974C455.14 84.3027 458.707 79.6538 461.526 74.4402C465.692 67.0111 468.063 58.0689 466.451 50.8463Z" fill="#FF0000"/>
<path d="M155.208 220.084C161.201 202.244 155.838 183.106 143.23 177.341C130.621 171.578 115.542 181.368 109.549 199.208C103.556 217.049 108.918 236.186 121.527 241.952C134.135 247.715 149.215 237.925 155.208 220.084Z" fill="black"/>
<path d="M160.171 222.337C166.164 204.496 160.801 185.359 148.193 179.594C135.585 173.831 120.505 183.62 114.512 201.461C108.519 219.302 113.882 238.439 126.49 244.204C139.098 249.968 154.178 240.178 160.171 222.337Z" fill="#FF1D1D"/>
<path d="M128.86 197.637V225.637C128.864 225.984 128.952 226.322 129.112 226.614C129.272 226.907 129.499 227.14 129.767 227.291C130.035 227.442 130.333 227.501 130.629 227.464C130.924 227.427 131.205 227.295 131.44 227.084L150.56 209.233C150.772 209.033 150.937 208.773 151.039 208.48C151.141 208.184 151.176 207.864 151.142 207.548C151.108 207.232 151.006 206.933 150.844 206.675C150.683 206.419 150.468 206.217 150.22 206.084L131.1 195.956C130.858 195.834 130.595 195.783 130.332 195.807C130.07 195.832 129.816 195.931 129.595 196.096C129.373 196.264 129.19 196.491 129.062 196.759C128.934 197.028 128.864 197.329 128.86 197.637Z" fill="white"/>
<path d="M179.02 82.2767V214.156L185.861 209V76.4433L179.02 82.2767Z" fill="#AA3679"/>
<path d="M201.001 116.25V198.43L207.861 193.437V111.583C205.54 113.123 203.241 114.64 201.001 116.25Z" fill="#AA3679"/>
<path d="M217.66 100.477V189.33L224.5 184.219V95.2033C222.261 97 220 98.82 217.66 100.477Z" fill="#AA3679"/>
<path d="M237.559 76.9567V178.27L244.4 173.16V71.7067C242.12 73.5033 239.88 75.3 237.559 76.9567Z" fill="#AA3679"/>
<path d="M254.46 86.78V163.174L261.3 158.063V82.44C259.1 83.9333 256.819 85.38 254.46 86.78Z" fill="#AA3679"/>
<path d="M274.68 93.15V151.95L281.521 146.84V88.25C279.279 89.93 277.001 91.5634 274.68 93.15Z" fill="#AA3679"/>
<path d="M299.521 90.1633C298 91.3533 296.479 92.4967 294.92 93.64V138.79L301.76 133.68V88.5767C300.999 89.09 300.24 89.6033 299.521 90.1633Z" fill="#AA3679"/>
<path opacity="0.57" d="M374.721 236.744L454.8 291.181L395.061 331.896L315.181 277.6L374.721 236.744Z" fill="url(#paint1_linear_1_3)"/>
<path d="M394.52 262.107C394.485 261.097 394.356 260.098 394.139 259.119C392.68 251.07 385.801 232.053 353.6 230.653C315.94 228.996 309.02 251.396 307.76 259.681C307.618 260.449 307.531 261.23 307.5 262.014C307.5 262.433 307.5 262.667 307.5 262.667C307.5 277.344 327.001 289.219 351.04 289.219C375.08 289.219 394.58 277.319 394.58 262.667C394.56 262.667 394.56 262.456 394.52 262.107Z" fill="black"/>
<path opacity="0.1" d="M329.6 266.074C322.321 251.77 330.359 238.4 341.38 231.074C314.381 234.2 308.879 252.423 307.76 259.704C307.618 260.472 307.531 261.252 307.5 262.037C307.5 262.456 307.5 262.689 307.5 262.689C307.5 277.367 327.001 289.244 351.04 289.244C354.215 289.248 357.387 289.037 360.539 288.614C348 286.256 336.419 279.489 329.6 266.074Z" fill="black"/>
<path d="M350.58 252.026C351.868 252.402 353.223 252.33 354.478 251.822C355.73 251.312 356.83 250.385 357.641 249.156L364.879 203.493L352.62 200.856L345.121 248.2C346.511 250.166 348.439 251.516 350.58 252.026Z" fill="#42210B"/>
<path d="M336.86 131.51C335.94 138.65 335.027 145.79 334.12 152.93C333.461 158.111 332.68 163.618 332 168.914C331.165 174.382 330.645 179.908 330.441 185.456C330.74 201.674 343.7 211.684 356.56 214.111C356.56 214.111 381.48 217.844 389.02 193.111C396.56 168.377 398 135.617 398 135.617" fill="#FFE920"/>
<path d="M367.181 158.996C384.19 158.996 397.981 148.529 397.981 135.617C397.981 122.704 384.19 112.237 367.181 112.237C350.169 112.237 336.381 122.704 336.381 135.617C336.381 148.529 350.169 158.996 367.181 158.996Z" fill="#B80077"/>
<path d="M339.44 152.37C339.44 152.37 341.619 147.12 347.44 149.64C353.26 152.16 351.88 164.667 351.88 164.667C351.88 164.667 348.261 184.944 348 189.937C347.739 194.93 344.441 210.189 351.861 213.014C350.964 213.636 349.961 214.02 348.923 214.131C347.886 214.245 346.839 214.086 345.861 213.667C342.06 212.407 342.28 189.844 342.28 189.844" fill="#6D2F0C"/>
<path d="M335.219 168.819C335.54 166.837 335.861 164.853 336.18 162.893C336.999 157.689 338.92 147.563 345.339 150.877C349.14 152.86 349.84 159.626 349.84 159.626C350.321 164.526 348.321 170.196 347.559 174.981C346.351 182.699 345.496 190.488 344.999 198.314C344.62 204.1 344.18 210.819 348.999 214.344C347.963 213.948 346.888 213.696 345.799 213.596C344.516 213.252 343.248 212.832 342 212.337C334.28 209.233 331.78 201.207 332.18 192.27C332.703 184.378 333.72 176.54 335.219 168.819Z" fill="#42210B"/>
<path d="M343.339 164.34C345.019 164.34 346.381 162.753 346.381 160.793C346.381 158.835 345.019 157.247 343.339 157.247C341.662 157.247 340.3 158.835 340.3 160.793C340.3 162.753 341.662 164.34 343.339 164.34Z" fill="#B54747"/>
<path d="M398.16 99.1467C398.16 99.1467 403.48 68.02 378.56 63.9133C353.641 59.8067 350.4 86.6633 350.4 86.6633C350.4 86.6633 346.16 116.787 344.079 130.997C343.956 131.766 343.896 132.547 343.9 133.33C343.9 143.643 354.92 151.997 368.52 151.997C380.841 151.997 390.999 145.137 392.819 136.177V135.64C392.819 135.407 392.819 135.173 392.819 134.94L398.16 99.1467Z" fill="black"/>
<path opacity="0.55" d="M486.381 347.203L567.159 398.07L518.64 428.356L438.759 374.082L486.381 347.203Z" fill="url(#paint2_linear_1_3)"/>
<path d="M476.139 362.23L484.539 357.54L481.14 347.203L474.56 350.307" fill="#68351F"/>
<path d="M486.96 335.163H477.5C477.301 339.619 476.441 345.081 473.14 346.83C471.84 347.74 466.781 349.537 465.14 348.814C463.5 348.089 458.34 346.596 457.72 347.156C457.1 347.718 454.7 349.374 459.54 354.437C464.381 359.5 474.8 362.86 476.201 362.323C477.6 361.786 474.479 351.707 478.381 353.248C482.64 354.926 480.18 365.963 480.819 366.849C482.138 367.78 483.575 368.449 485.08 368.833C486.166 368.193 487.221 367.485 488.24 366.711C488.321 356.118 487.619 345.64 486.96 335.163Z" fill="#FF681D"/>
<path d="M454.359 380.804L462.74 376.114L459.339 365.753L452.781 368.881" fill="#68351F"/>
<path d="M466.419 350.353L455.72 353.667C455.42 360.667 453.42 365.637 447.121 367.014C444.5 367.574 442.479 366.453 440 365.94C439.329 365.736 438.624 365.748 437.958 365.973C437.293 366.199 436.693 366.632 436.22 367.223C434.76 369.253 436.22 371.4 437.701 372.87C442.52 377.956 452.96 381.293 454.36 380.756C455.76 380.219 452.64 370.14 456.539 371.681C460.8 373.36 458.34 384.396 458.98 385.284C460.296 386.214 461.736 386.883 463.241 387.267C464.326 386.627 465.382 385.918 466.4 385.144C466.539 374.667 467.08 360.853 466.419 350.353Z" fill="#FF681D"/>
<path d="M440.601 201.86C433.186 200.939 425.873 199.126 418.781 196.447L418.56 196.282C416.841 194.837 415.279 193.181 413.48 191.849C413.008 191.607 412.497 191.481 411.981 191.481C411.464 191.481 410.953 191.607 410.479 191.849C409.619 192.34 409.82 193.811 410.041 194.674C410.506 196.115 411.42 197.298 412.601 197.986C408.46 197.474 404.479 195.467 400.201 196.33C398.841 196.611 399.16 198.663 400.201 199.2C401.241 199.737 405.72 200.716 406.781 201.114C405.16 201.114 400.079 200.437 398.46 200.507C398.159 200.519 397.87 200.656 397.646 200.891C397.422 201.129 397.278 201.449 397.237 201.798C397.197 202.147 397.262 202.502 397.424 202.799C397.586 203.096 397.833 203.317 398.12 203.423C401.096 204.209 404.13 204.662 407.181 204.777C404.656 205.347 402.169 206.128 399.739 207.111C398.56 207.763 399.2 209.863 400.381 209.863C403.343 209.857 406.301 209.632 409.241 209.186C408.62 209.56 406.16 210.049 405.54 210.47C405.329 210.621 405.16 210.838 405.052 211.1C404.945 211.36 404.904 211.651 404.936 211.936C404.967 212.223 405.07 212.494 405.23 212.713C405.39 212.934 405.604 213.095 405.84 213.177C408.96 213.877 411.84 212.547 415.02 212.056C416.5 211.823 417.981 211.707 419.461 211.614C424.9 212.663 430.36 213.574 435.861 214.181C437.061 214.319 437.36 212.733 436.8 211.847C436.818 211.726 436.795 211.602 436.735 211.503C436.675 211.401 436.583 211.333 436.479 211.311L435.619 211.077C435.628 211.015 435.628 210.951 435.619 210.889C435.669 210.747 435.669 210.59 435.619 210.447L438.041 210.914C438.356 210.984 438.684 210.914 438.959 210.716C439.232 210.52 439.433 210.208 439.517 209.845C439.604 209.483 439.57 209.097 439.422 208.763C439.274 208.428 439.024 208.172 438.721 208.044C438.16 207.763 437.581 207.577 437.001 207.344C437.01 207.226 437.01 207.111 437.001 206.993H437.32C437.44 207.03 437.567 207.011 437.674 206.939C437.78 206.867 437.859 206.747 437.891 206.609C437.923 206.468 437.905 206.32 437.843 206.196C437.782 206.072 437.679 205.981 437.56 205.944L435.9 205.219C436.005 205.089 436.093 204.938 436.16 204.777C437.279 205.165 438.393 205.609 439.5 206.107C440.06 206.363 440.3 205.314 439.739 205.056L438 204.333C438.56 204.544 438.8 203.516 438.24 203.282C436.98 202.793 435.739 202.326 434.479 201.882C436.479 202.273 438.479 202.591 440.479 202.84C441.181 203.004 441.181 202 440.601 201.86Z" fill="#FFE4D7"/>
<path d="M479.26 202.582C479.26 202.582 490.44 216.396 488.52 260.311C486.999 294.751 492.661 329.377 491.921 330.707C491.181 332.037 485.339 349.07 469.921 344.589L465.159 212.36" fill="#74FA71"/>
<path d="M449.861 219.896C449.241 224.563 442.58 250.393 442.199 309.03C442.079 326.367 445.581 358.03 445.581 358.03C445.581 358.03 458.661 366.244 471.581 358.03C484.501 349.816 479.38 338.289 479.38 338.289L476.321 290.667L473.48 210.704" fill="#74FA71"/>
<path d="M460.28 221.133C451.554 223.198 442.53 222.806 433.959 219.989C431.76 219.196 423.679 217.516 422.359 215.114C420.359 211.614 424.019 197.147 424.019 197.147C425.619 196.493 444.139 199.923 444.939 197.147C445.739 194.37 445.08 183.147 445.08 175.937C445.08 168.726 459.5 157.993 460.22 157.433C460.22 157.433 470.819 146.747 477.26 148.263C483.7 149.78 482.74 188.467 480.64 200.996C478.721 212.57 470.139 218.682 460.28 221.133Z" fill="#40BCB5"/>
<path d="M449.339 127.823C449.339 127.823 448.321 150.223 451.44 152.533C454.56 154.843 461.001 151.157 462.44 147.493C463.88 143.83 462.96 142.99 459.64 142.29C456.321 141.59 458.661 141.963 456.721 140.703C452.62 138.067 460.381 126.54 449.339 127.823Z" fill="#FFE4D7"/>
<path d="M463.66 152.627C466.99 143.114 469.249 133.137 470.381 122.947C469.625 122.045 468.745 121.296 467.78 120.73C465.492 118.894 462.833 117.785 460.067 117.511C457.3 117.237 454.52 117.807 452 119.167C450.677 119.753 449.491 120.7 448.544 121.929C447.598 123.158 446.918 124.634 446.56 126.232C446.201 127.831 446.176 129.506 446.486 131.118C446.796 132.73 447.431 134.233 448.34 135.5C451.13 139.498 453.344 143.997 454.9 148.823C455.204 150.413 455.898 151.865 456.9 153C457.443 153.405 458.06 153.661 458.7 153.747C460.414 154.026 462.159 153.632 463.66 152.627Z" fill="#801DFF"/>
<path d="M454.841 148.753C455.353 155.781 454.379 162.85 452 169.333C449.279 176.589 456.24 177.267 456.999 180.511C457.76 183.753 449.279 190.24 460.16 194.93C465.981 197.426 472.419 194.277 477.32 190.614C482.721 186.577 488.441 181.956 488.841 173.789C489.121 168.074 486.841 162.87 484.68 157.9C482.567 152.489 480.881 146.866 479.641 141.1C478.155 133.834 475.175 127.099 470.96 121.477C467.5 117.253 462.16 116.483 457.521 117.347" fill="#801DFF"/>
<path d="M453.001 151.95C456.479 151.95 459.3 148.294 459.3 143.783C459.3 139.273 456.479 135.617 453.001 135.617C449.521 135.617 446.7 139.273 446.7 143.783C446.7 148.294 449.521 151.95 453.001 151.95Z" fill="black"/>
<path d="M453.219 135.617C452.081 135.589 450.962 135.954 450 136.667C451.535 137.287 452.881 138.412 453.878 139.907C454.878 141.402 455.482 143.202 455.619 145.09C455.702 146.205 455.567 147.327 455.219 148.371C454.872 149.414 454.326 150.351 453.619 151.11C453.359 151.379 453.077 151.621 452.781 151.833H453.159C454.888 151.618 456.486 150.664 457.648 149.157C458.809 147.649 459.45 145.694 459.45 143.667C459.45 141.64 458.809 139.684 457.648 138.177C456.486 136.669 454.888 135.716 453.159 135.5L453.219 135.617Z" fill="#8EB3FB"/>
<path d="M456.7 121.5C456.994 120.767 457.343 120.064 457.739 119.4C458.506 118.291 459.567 117.512 460.756 117.186C461.944 116.861 463.191 117.008 464.3 117.603H464.5C462.5 114.313 457.921 114.5 455.08 116.017C453.508 117.018 452.166 118.446 451.167 120.181C450.167 121.915 449.542 123.904 449.339 125.98C448.994 128.468 448.994 131.005 449.339 133.493C449.339 133.773 449.7 136.69 449.981 136.76L455.36 137.95C454.495 134.024 454.495 129.906 455.36 125.98C455.685 124.44 456.132 122.94 456.7 121.5Z" fill="#8EB3FB"/>
<g style="mix-blend-mode:darken" filter="url(#filter0_f_1_3)">
<path d="M146.663 298.943C150.443 301.578 152.834 304.384 153.833 307.359C154.839 310.327 154.487 313.494 152.777 316.864C151.79 318.809 150.7 320.259 149.506 321.215C148.326 322.167 147.051 322.714 145.681 322.858C144.325 322.997 142.886 322.768 141.363 322.171C139.849 321.58 138.262 320.707 136.602 319.55L128.855 314.153L130.264 311.376L130.916 311.83C131.191 312.022 131.43 312.131 131.632 312.16C131.839 312.177 132.019 312.142 132.173 312.051C132.332 311.952 132.473 311.803 132.597 311.607C132.729 311.419 132.858 311.198 132.985 310.95C133.001 310.917 133.096 310.731 133.27 310.389C133.449 310.033 133.674 309.579 133.945 309.022C134.225 308.47 134.541 307.847 134.895 307.149C135.248 306.453 135.607 305.745 135.971 305.028L138.884 299.288C138.995 299.069 139.078 298.858 139.132 298.658C139.195 298.462 139.216 298.265 139.196 298.069C139.185 297.877 139.118 297.691 138.995 297.506C138.887 297.318 138.708 297.138 138.459 296.965L137.807 296.51L139.208 293.75L146.663 298.943ZM136.594 315.45L138.511 316.783C139.487 317.465 140.41 317.917 141.28 318.144C142.159 318.376 142.989 318.363 143.769 318.105C144.563 317.841 145.315 317.331 146.024 316.571C146.742 315.819 147.428 314.799 148.083 313.509C149.318 311.076 149.734 308.966 149.331 307.178C148.942 305.387 147.758 303.804 145.78 302.424L143.876 301.096L136.594 315.45ZM175.549 319.071L172.668 324.748L170.072 322.939L170.397 322.301C170.65 321.801 170.801 321.386 170.85 321.054C170.898 320.721 170.872 320.442 170.77 320.217C170.673 319.98 170.515 319.771 170.295 319.59C170.075 319.408 169.823 319.218 169.539 319.02L165.079 315.914L162.206 321.576L164.828 323.404C165.024 323.54 165.193 323.643 165.337 323.715C165.494 323.783 165.646 323.804 165.791 323.779C165.936 323.753 166.09 323.664 166.252 323.509C166.424 323.36 166.619 323.131 166.837 322.817L167.968 323.606L165.167 329.129L164.022 328.33C164.137 327.961 164.214 327.655 164.252 327.416C164.29 327.174 164.284 326.972 164.234 326.811C164.189 326.639 164.106 326.497 163.983 326.383C163.866 326.259 163.71 326.129 163.514 325.993L160.892 324.165L157.813 330.234L162.459 333.47C162.787 333.699 163.075 333.864 163.324 333.968C163.572 334.071 163.807 334.079 164.03 333.996C164.262 333.918 164.491 333.738 164.716 333.46C164.947 333.17 165.203 332.751 165.482 332.2L165.736 331.7L168.305 333.491L165.25 339.512L149.981 328.873L151.39 326.096L152.375 326.782C152.605 326.943 152.807 327.019 152.979 327.013C153.159 327.013 153.323 326.951 153.469 326.827C153.625 326.709 153.76 326.55 153.874 326.348C153.997 326.154 154.12 325.935 154.241 325.698L159.94 314.465C160.056 314.235 160.168 314.004 160.275 313.769C160.382 313.535 160.45 313.306 160.477 313.087C160.505 312.866 160.478 312.658 160.398 312.462C160.332 312.261 160.174 312.073 159.926 311.9L158.994 311.252L160.387 308.505L175.549 319.071ZM177.945 320.74C178.079 320.833 178.307 320.998 178.629 321.237C178.967 321.473 179.339 321.733 179.748 322.018C180.166 322.307 180.58 322.604 180.992 322.904C181.417 323.201 181.785 323.457 182.097 323.674C182.301 323.817 182.55 323.99 182.842 324.194C183.135 324.399 183.45 324.618 183.787 324.853C184.139 325.082 184.5 325.328 184.874 325.588C185.251 325.838 185.623 326.088 185.986 326.342L184.576 329.119L184.111 328.795C183.766 328.553 183.48 328.405 183.256 328.347C183.043 328.295 182.856 328.308 182.7 328.38C182.548 328.444 182.414 328.564 182.301 328.737C182.199 328.919 182.092 329.119 181.981 329.336L179.771 333.689L186.8 338.587L189.151 333.953C189.272 333.714 189.352 333.501 189.385 333.315C189.429 333.133 189.422 332.96 189.362 332.791C189.313 332.63 189.207 332.47 189.045 332.316C188.888 332.15 188.673 331.973 188.398 331.781L187.931 331.457L189.341 328.679C190.19 329.301 190.98 329.865 191.707 330.37C192.435 330.878 193.14 331.37 193.824 331.847C193.993 331.965 194.206 332.111 194.463 332.291C194.73 332.477 195.022 332.681 195.341 332.904C195.667 333.115 196.007 333.346 196.361 333.594C196.721 333.829 197.07 334.067 197.408 334.3L195.998 337.077L195.572 336.78C195.226 336.54 194.939 336.381 194.714 336.309C194.492 336.224 194.3 336.21 194.139 336.268C193.993 336.319 193.861 336.425 193.744 336.584C193.642 336.739 193.537 336.924 193.426 337.141L187.457 348.905C187.304 349.207 187.177 349.469 187.075 349.694C186.978 349.909 186.932 350.115 186.939 350.317C186.959 350.514 187.048 350.716 187.205 350.924C187.378 351.129 187.656 351.364 188.037 351.631L188.463 351.928L187.054 354.705C186.735 354.482 186.425 354.265 186.122 354.055C185.834 353.84 185.537 353.625 185.225 353.409C184.915 353.192 184.582 352.96 184.227 352.713C183.885 352.461 183.503 352.188 183.077 351.891C182.278 351.333 181.547 350.832 180.886 350.386C180.233 349.944 179.6 349.51 178.987 349.083L180.396 346.307L180.862 346.632C181.182 346.855 181.441 347.007 181.639 347.088C181.847 347.177 182.025 347.195 182.171 347.142C182.331 347.086 182.47 346.964 182.589 346.778C182.721 346.59 182.867 346.338 183.026 346.027L185.44 341.269L178.411 336.371L175.846 341.426C175.687 341.738 175.581 341.994 175.527 342.196C175.487 342.394 175.499 342.572 175.563 342.729C175.633 342.876 175.751 343.02 175.918 343.165C176.09 343.299 176.31 343.46 176.576 343.646L177.041 343.97L175.633 346.747C175.304 346.518 174.985 346.295 174.674 346.078C174.378 345.857 174.065 345.632 173.737 345.405C173.418 345.182 173.076 344.945 172.712 344.691C172.353 344.426 171.952 344.139 171.509 343.83C171.091 343.54 170.707 343.278 170.356 343.049C170.019 342.814 169.695 342.589 169.384 342.372C169.073 342.155 168.769 341.95 168.471 341.756C168.187 341.558 167.894 341.354 167.592 341.143L169.001 338.368L169.414 338.655C169.769 338.903 170.065 339.051 170.303 339.105C170.545 339.148 170.751 339.122 170.919 339.027C171.095 338.94 171.241 338.795 171.355 338.593C171.484 338.386 171.611 338.159 171.738 337.909L177.746 326.069C177.852 325.861 177.931 325.671 177.982 325.495C178.049 325.318 178.06 325.142 178.016 324.969C177.97 324.797 177.864 324.618 177.695 324.43C177.535 324.248 177.286 324.04 176.95 323.804L176.537 323.517L177.945 320.74ZM209.094 341.915C210.559 342.935 211.716 344.108 212.569 345.436C213.431 346.768 214.005 348.18 214.291 349.675C214.592 351.166 214.615 352.696 214.359 354.263C214.115 355.837 213.614 357.367 212.858 358.854C212.104 360.342 211.196 361.588 210.134 362.593C209.08 363.605 207.924 364.319 206.666 364.739C205.408 365.158 204.076 365.249 202.67 365.015C201.263 364.78 199.833 364.156 198.377 363.142C196.904 362.116 195.732 360.933 194.862 359.595C193.991 358.257 193.404 356.842 193.105 355.352C192.809 353.85 192.784 352.314 193.031 350.739C193.281 349.155 193.79 347.608 194.555 346.101C195.309 344.614 196.211 343.369 197.26 342.37C198.314 341.358 199.466 340.647 200.719 340.239C201.984 339.828 203.323 339.745 204.733 339.997C206.159 340.243 207.612 340.883 209.094 341.915ZM207.545 344.932C206.781 344.401 206.037 344.114 205.313 344.075C204.597 344.04 203.896 344.228 203.209 344.635C202.536 345.04 201.877 345.651 201.233 346.468C200.604 347.282 199.995 348.271 199.403 349.438C198.786 350.654 198.326 351.796 198.023 352.868C197.72 353.937 197.581 354.924 197.604 355.827C197.63 356.719 197.827 357.524 198.196 358.245C198.567 358.955 199.122 359.566 199.859 360.08C200.604 360.599 201.336 360.875 202.051 360.91C202.781 360.939 203.484 360.747 204.162 360.332C204.849 359.925 205.515 359.312 206.159 358.494C206.816 357.671 207.447 356.667 208.048 355.482C209.283 353.047 209.873 350.939 209.817 349.155C209.766 347.36 209.01 345.952 207.545 344.932ZM223.632 352.572C223.685 352.609 223.792 352.684 223.951 352.795C224.111 352.907 224.298 353.037 224.511 353.186C224.733 353.34 224.964 353.501 225.204 353.669C225.452 353.84 225.681 354.001 225.894 354.15C226.116 354.305 226.308 354.437 226.467 354.548C226.636 354.666 226.747 354.745 226.8 354.782L226.779 375.098L226.805 375.117L232.34 364.173C232.488 363.882 232.587 363.64 232.636 363.45C232.691 363.248 232.693 363.066 232.641 362.905C232.592 362.744 232.483 362.591 232.315 362.447C232.164 362.298 231.949 362.127 231.674 361.935L231.063 361.509L232.47 358.732C233.137 359.196 233.729 359.616 234.247 359.991C234.774 360.371 235.255 360.714 235.69 361.018C235.752 361.061 235.85 361.129 235.982 361.222C236.125 361.321 236.284 361.431 236.462 361.555C236.64 361.678 236.83 361.813 237.034 361.953C237.244 362.085 237.45 362.224 237.655 362.366C238.134 362.699 238.661 363.058 239.233 363.444L237.824 366.221L237.145 365.748C236.844 365.538 236.592 365.418 236.389 365.391C236.194 365.352 236.018 365.377 235.864 365.468C235.725 365.552 235.593 365.695 235.47 365.889C235.36 366.081 235.246 366.296 235.124 366.535C235.114 366.556 234.987 366.806 234.744 367.285C234.502 367.762 234.185 368.387 233.794 369.155C233.41 369.915 232.971 370.778 232.481 371.745C231.989 372.713 231.489 373.7 230.976 374.71L226.892 382.759L222.513 379.707L222.444 358.503L222.418 358.484L216.715 369.754C216.552 370.078 216.435 370.341 216.367 370.547C216.314 370.75 216.312 370.931 216.361 371.092C216.419 371.26 216.534 371.417 216.7 371.561C216.867 371.706 217.098 371.879 217.39 372.083L218.042 372.538L216.633 375.315C216.127 374.962 215.616 374.599 215.098 374.223C214.587 373.853 213.991 373.432 213.307 372.955C212.927 372.688 212.578 372.453 212.261 372.247C211.951 372.032 211.653 371.823 211.369 371.625C211.094 371.435 210.821 371.251 210.55 371.076C210.284 370.89 210.009 370.698 209.725 370.5L211.133 367.725L211.826 368.206C212.153 368.435 212.421 368.571 212.626 368.617C212.841 368.668 213.026 368.647 213.179 368.559C213.332 368.468 213.47 368.317 213.589 368.104C213.715 367.881 213.852 367.619 214.005 367.318L219.84 355.822C219.998 355.511 220.118 355.248 220.201 355.038C220.289 354.819 220.317 354.621 220.285 354.443C220.27 354.263 220.187 354.094 220.041 353.935C219.898 353.766 219.681 353.578 219.387 353.373L218.696 352.892L220.104 350.115L223.632 352.572ZM240.937 364.631C241.332 364.92 241.69 365.185 242.012 365.422C242.342 365.651 242.647 365.866 242.932 366.062C243.216 366.26 243.485 366.45 243.743 366.628C244.011 366.814 244.271 366.998 244.529 367.175C245.061 367.547 245.531 367.875 245.94 368.16C246.358 368.449 246.738 368.716 247.085 368.957C247.44 369.205 247.776 369.438 248.097 369.661C248.43 369.88 248.777 370.107 249.137 370.345L247.729 373.122L247.17 372.732C246.849 372.509 246.578 372.371 246.356 372.313C246.146 372.251 245.958 372.255 245.792 372.321C245.641 372.385 245.503 372.501 245.381 372.668C245.274 372.833 245.163 373.029 245.047 373.258L238.983 385.208C238.841 385.489 238.731 385.728 238.654 385.929C238.582 386.117 238.56 386.3 238.592 386.476C238.627 386.641 238.724 386.808 238.881 386.973C239.045 387.145 239.297 387.347 239.633 387.583L240.194 387.973L238.784 390.748C238.456 390.521 238.136 390.298 237.826 390.081C237.521 389.854 237.204 389.627 236.876 389.398C236.555 389.175 236.21 388.933 235.836 388.675C235.478 388.411 235.082 388.126 234.647 387.824C233.831 387.254 233.105 386.757 232.469 386.327C231.843 385.904 231.214 385.474 230.583 385.035L231.993 382.259L232.525 382.629C232.872 382.871 233.156 383.019 233.38 383.077C233.604 383.135 233.796 383.12 233.958 383.036C234.122 382.953 234.263 382.804 234.382 382.594C234.511 382.387 234.648 382.137 234.796 381.846L240.536 370.537C240.687 370.235 240.811 369.969 240.904 369.74C241.003 369.498 241.045 369.273 241.029 369.067C241.02 368.848 240.941 368.637 240.791 368.435C240.641 368.232 240.398 368.014 240.062 367.778L239.528 367.409L240.937 364.631ZM262.342 379.546C261.87 382.538 261.44 385.266 261.056 387.729C260.893 388.784 260.728 389.829 260.562 390.868C260.4 391.896 260.248 392.846 260.106 393.717C259.979 394.587 259.864 395.33 259.766 395.952C259.672 396.563 259.611 396.97 259.579 397.172C259.436 398.045 259.322 398.731 259.235 399.235C259.149 399.737 259.126 400.15 259.165 400.474C259.214 400.804 259.339 401.087 259.542 401.329C259.752 401.558 260.078 401.835 260.525 402.161L259.124 404.922C258.601 404.556 258.093 404.197 257.602 403.84C257.119 403.489 256.553 403.088 255.905 402.636C255.142 402.105 254.389 401.587 253.648 401.085C252.92 400.577 252.129 400.032 251.27 399.45L252.576 396.875C252.611 396.899 252.661 396.935 252.722 396.978C252.795 397.027 252.865 397.077 252.936 397.127C253.008 397.176 253.073 397.222 253.137 397.265C253.204 397.298 253.249 397.323 253.278 397.341C253.713 397.618 254.032 397.771 254.234 397.798C254.437 397.827 254.59 397.736 254.696 397.529C254.759 397.403 254.814 397.238 254.858 397.03C254.909 396.811 254.96 396.559 255.01 396.27L255.655 392.728L249.517 388.452C249.433 388.547 249.256 388.729 248.99 388.993C248.73 389.247 248.446 389.522 248.141 389.815C247.845 390.114 247.57 390.395 247.318 390.655C247.066 390.917 246.909 391.083 246.849 391.153C246.731 391.268 246.627 391.378 246.537 391.485C246.462 391.586 246.405 391.673 246.368 391.748C246.252 391.975 246.231 392.171 246.303 392.336C246.391 392.495 246.574 392.679 246.853 392.887C246.879 392.906 246.934 392.951 247.018 393.024C247.107 393.086 247.204 393.154 247.311 393.228C247.417 393.3 247.515 393.368 247.604 393.43C247.7 393.499 247.767 393.546 247.803 393.571L246.506 396.129C245.963 395.751 245.42 395.365 244.876 394.973C244.331 394.578 243.739 394.159 243.1 393.713C242.789 393.496 242.497 393.292 242.22 393.102C241.954 392.916 241.69 392.739 241.427 392.569C241.17 392.39 240.906 392.212 240.634 392.039C240.368 391.853 240.085 391.655 239.783 391.444L241.191 388.669C241.531 388.848 241.808 388.991 242.019 389.096C242.24 389.208 242.437 389.268 242.611 389.278C242.793 389.276 242.974 389.226 243.156 389.129C243.343 389.02 243.57 388.846 243.834 388.609C244.005 388.46 244.28 388.217 244.657 387.874C245.036 387.531 245.475 387.126 245.975 386.66C246.486 386.199 247.041 385.697 247.639 385.158C248.243 384.607 248.856 384.05 249.48 383.484C250.102 382.918 250.715 382.36 251.32 381.811C251.924 381.26 252.481 380.754 252.99 380.294C253.507 379.823 253.952 379.416 254.33 379.073C254.714 378.72 254.994 378.466 255.17 378.307L257.191 375.957L262.342 379.546ZM251.159 386.85L256.07 390.273L257.852 380.407L257.833 380.374L251.159 386.85ZM273.685 387.448C273.737 387.486 273.845 387.56 274.004 387.671C274.164 387.783 274.351 387.913 274.562 388.062C274.784 388.217 275.015 388.376 275.255 388.543C275.503 388.716 275.734 388.877 275.947 389.026C276.169 389.181 276.359 389.313 276.52 389.425C276.689 389.542 276.8 389.619 276.853 389.656L276.832 409.974L276.858 409.993L282.393 399.049C282.541 398.758 282.64 398.516 282.689 398.326C282.742 398.124 282.744 397.942 282.694 397.781C282.645 397.62 282.536 397.465 282.368 397.321C282.217 397.172 282.002 397.003 281.727 396.811L281.115 396.385L282.523 393.608C283.189 394.071 283.781 394.492 284.3 394.866C284.826 395.248 285.307 395.59 285.743 395.894C285.804 395.935 285.901 396.003 286.035 396.096C286.178 396.195 286.337 396.307 286.515 396.431C286.693 396.555 286.883 396.687 287.087 396.829C287.297 396.961 287.503 397.098 287.707 397.24C288.187 397.575 288.712 397.934 289.286 398.32L287.877 401.095L287.198 400.622C286.897 400.414 286.645 400.294 286.442 400.265C286.247 400.228 286.07 400.253 285.917 400.344C285.778 400.428 285.646 400.569 285.522 400.765C285.413 400.957 285.299 401.172 285.177 401.411C285.167 401.432 285.04 401.682 284.796 402.159C284.553 402.638 284.238 403.261 283.847 404.032C283.463 404.791 283.024 405.655 282.534 406.621C282.042 407.587 281.542 408.576 281.029 409.584L276.944 417.633L272.566 414.583L272.495 393.377L272.469 393.358L266.768 404.63C266.604 404.953 266.488 405.217 266.419 405.423C266.367 405.624 266.363 405.805 266.414 405.968C266.472 406.136 266.585 406.291 266.752 406.435C266.92 406.58 267.149 406.755 267.443 406.96L268.095 407.414L266.685 410.189C266.18 409.838 265.667 409.475 265.149 409.099C264.64 408.729 264.044 408.306 263.36 407.831C262.978 407.565 262.631 407.329 262.314 407.123C262.004 406.906 261.706 406.699 261.422 406.501C261.147 406.309 260.874 406.125 260.603 405.952C260.337 405.766 260.062 405.574 259.776 405.376L261.186 402.599L261.878 403.082C262.206 403.311 262.474 403.447 262.678 403.493C262.893 403.542 263.077 403.524 263.232 403.433C263.385 403.344 263.522 403.193 263.641 402.981C263.766 402.758 263.905 402.495 264.058 402.194L269.893 390.696C270.051 390.385 270.171 390.125 270.254 389.914C270.34 389.693 270.37 389.495 270.338 389.319C270.322 389.14 270.24 388.97 270.093 388.809C269.951 388.64 269.732 388.454 269.44 388.25L268.747 387.768L270.157 384.991L273.685 387.448ZM301.826 407.057C301.352 410.049 300.923 412.776 300.539 415.24C300.375 416.295 300.211 417.34 300.044 418.378C299.884 419.407 299.732 420.357 299.589 421.23C299.461 422.097 299.348 422.841 299.249 423.462C299.156 424.073 299.093 424.48 299.063 424.683C298.92 425.556 298.805 426.244 298.719 426.745C298.631 427.247 298.608 427.66 298.648 427.984C298.698 428.315 298.823 428.6 299.026 428.839C299.233 429.068 299.561 429.345 300.009 429.671L298.608 432.432C298.085 432.067 297.577 431.707 297.085 431.35C296.603 430.999 296.037 430.599 295.389 430.146C294.626 429.616 293.873 429.097 293.131 428.596C292.404 428.088 291.611 427.542 290.754 426.96L292.06 424.385C292.095 424.41 292.144 424.445 292.206 424.489C292.277 424.538 292.349 424.588 292.419 424.637C292.49 424.687 292.557 424.732 292.619 424.776C292.685 424.809 292.733 424.833 292.759 424.852C293.196 425.129 293.515 425.281 293.718 425.308C293.919 425.337 294.074 425.246 294.178 425.04C294.241 424.914 294.296 424.749 294.342 424.54C294.393 424.321 294.442 424.069 294.493 423.78L295.137 420.239L289.001 415.963C288.916 416.058 288.74 416.239 288.474 416.504C288.213 416.758 287.93 417.032 287.625 417.325C287.327 417.627 287.054 417.906 286.8 418.168C286.548 418.428 286.393 418.593 286.333 418.663C286.213 418.779 286.109 418.889 286.019 418.996C285.944 419.097 285.887 419.184 285.85 419.258C285.734 419.487 285.713 419.683 285.787 419.847C285.873 420.006 286.056 420.189 286.335 420.398C286.363 420.417 286.418 420.462 286.5 420.534C286.589 420.596 286.687 420.664 286.793 420.739C286.9 420.813 286.997 420.879 287.087 420.941C287.184 421.009 287.251 421.057 287.286 421.081L285.988 423.64C285.447 423.262 284.904 422.876 284.358 422.484C283.813 422.089 283.221 421.67 282.583 421.224C282.271 421.007 281.979 420.805 281.704 420.613C281.438 420.427 281.174 420.249 280.911 420.08C280.654 419.9 280.389 419.725 280.118 419.549C279.852 419.363 279.567 419.165 279.265 418.955L280.675 416.179C281.015 416.359 281.292 416.501 281.501 416.607C281.722 416.718 281.919 416.778 282.095 416.789C282.275 416.786 282.456 416.737 282.64 416.64C282.826 416.53 283.052 416.357 283.316 416.119C283.489 415.971 283.762 415.727 284.141 415.384C284.518 415.042 284.959 414.637 285.459 414.17C285.97 413.71 286.523 413.21 287.122 412.669C287.725 412.118 288.338 411.56 288.962 410.994C289.586 410.431 290.199 409.871 290.802 409.322C291.406 408.771 291.963 408.265 292.474 407.804C292.989 407.333 293.436 406.927 293.813 406.584C294.196 406.231 294.476 405.977 294.652 405.818L296.673 403.468L301.826 407.057ZM290.641 414.36L295.554 417.784L297.334 407.918L297.316 407.885L290.641 414.36ZM326.213 424.049L318.06 440.118C317.891 440.45 317.76 440.731 317.667 440.962C317.588 441.189 317.575 441.404 317.626 441.611C317.679 441.815 317.808 442.024 318.012 442.236C318.222 442.439 318.539 442.689 318.966 442.986L319.884 443.626L318.522 446.308C318.185 446.073 317.857 445.844 317.537 445.623C317.218 445.4 316.885 445.168 316.539 444.927C316.206 444.681 315.85 444.425 315.468 444.159C315.101 443.89 314.696 443.599 314.252 443.291C313.729 442.926 313.251 442.6 312.819 442.313C312.402 442.024 312.007 441.747 311.635 441.489C311.262 441.229 310.895 440.981 310.536 440.743C310.18 440.496 309.811 440.24 309.431 439.973L310.791 437.291L312.042 438.162C312.416 438.422 312.715 438.588 312.943 438.662C313.184 438.732 313.387 438.732 313.552 438.666C313.72 438.598 313.864 438.468 313.988 438.272C314.116 438.065 314.254 437.817 314.402 437.526L320.37 425.765C320.028 425.75 319.679 425.719 319.32 425.666C318.971 425.62 318.627 425.564 318.289 425.496C317.965 425.426 317.651 425.348 317.346 425.261C317.055 425.172 316.796 425.075 316.573 424.976L318.162 421.839C319.135 422.291 320.09 422.541 321.026 422.589C321.972 422.642 322.853 422.539 323.67 422.277L326.213 424.049ZM340.974 433.807C342.056 434.561 342.916 435.47 343.554 436.533C344.206 437.592 344.611 438.784 344.77 440.105C344.934 441.414 344.844 442.845 344.502 444.394C344.174 445.941 343.574 447.576 342.698 449.302C341.785 451.101 340.818 452.546 339.796 453.637C338.774 454.725 337.723 455.493 336.645 455.939C335.581 456.379 334.502 456.515 333.411 456.346C332.321 456.176 331.255 455.73 330.217 455.006C329.135 454.252 328.27 453.339 327.623 452.27C326.99 451.196 326.592 449.996 326.425 448.668C326.266 447.347 326.352 445.91 326.685 444.353C327.033 442.794 327.644 441.15 328.52 439.424C329.369 437.749 330.287 436.368 331.27 435.28C332.256 434.194 333.276 433.413 334.333 432.938C335.396 432.455 336.485 432.283 337.602 432.428C338.731 432.568 339.856 433.027 340.974 433.807ZM339.438 436.832C338.303 436.042 337.159 436.083 336.007 436.954C334.87 437.824 333.683 439.473 332.449 441.908C331.783 443.219 331.262 444.402 330.881 445.46C330.5 446.519 330.271 447.465 330.197 448.299C330.127 449.123 330.215 449.839 330.46 450.444C330.717 451.047 331.149 451.559 331.753 451.981C332.923 452.796 334.081 452.742 335.221 451.822C336.367 450.888 337.584 449.152 338.87 446.616C340.164 444.068 340.86 441.997 340.959 440.405C341.064 438.802 340.557 437.613 339.438 436.832ZM362.035 449.009L356.162 460.585L358.691 462.346L357.394 464.905L354.863 463.143L353.574 465.685C353.436 465.956 353.339 466.183 353.281 466.369C353.232 466.559 353.233 466.736 353.283 466.897C353.339 467.048 353.447 467.201 353.609 467.356C353.78 467.517 354.019 467.707 354.33 467.924L355.089 468.452L353.838 470.916C353.679 470.804 353.413 470.618 353.04 470.36C352.682 470.096 352.28 469.809 351.836 469.499C351.392 469.191 350.944 468.878 350.492 468.564C350.044 468.237 349.656 467.961 349.329 467.732C348.902 467.434 348.518 467.174 348.176 466.949C347.847 466.72 347.537 466.503 347.244 466.301C346.96 466.102 346.677 465.912 346.396 465.731C346.13 465.545 345.847 465.349 345.545 465.138L346.796 462.673L347.808 463.377C348.118 463.594 348.388 463.761 348.617 463.878C348.846 463.996 349.043 464.056 349.209 464.058C349.39 464.058 349.544 464.004 349.67 463.895C349.799 463.786 349.922 463.612 350.044 463.373L351.39 460.721L343.616 455.305C343.818 454.714 344.019 454.13 344.218 453.55C344.416 452.97 344.604 452.383 344.786 451.793L358.014 446.209L362.035 449.009ZM346.74 454.083L352.703 458.237L357.191 449.393L346.74 454.083ZM361.604 471.45C361.951 471.69 362.236 471.954 362.465 472.239C362.701 472.53 362.874 472.828 362.985 473.129C363.11 473.429 363.165 473.734 363.151 474.048C363.151 474.356 363.078 474.651 362.936 474.932C362.656 475.483 362.229 475.805 361.653 475.896C361.084 475.979 360.426 475.76 359.681 475.24C358.953 474.734 358.469 474.17 358.229 473.555C358 472.943 358.037 472.336 358.344 471.731C358.618 471.192 359.048 470.887 359.637 470.817C360.229 470.738 360.885 470.949 361.604 471.45ZM371.764 474.581C371.096 475.944 370.886 477.137 371.138 478.155C371.399 479.181 372.092 480.088 373.219 480.873C373.672 481.189 374.127 481.414 374.587 481.552C375.059 481.684 375.512 481.717 375.942 481.651C376.381 481.591 376.788 481.416 377.161 481.129C377.551 480.835 377.882 480.42 378.157 479.879C378.483 479.233 378.661 478.612 378.689 478.013C378.726 477.418 378.636 476.848 378.419 476.305C378.218 475.756 377.898 475.237 377.461 474.75C377.029 474.25 376.509 473.784 375.903 473.346L377.122 470.945C377.744 471.279 378.319 471.533 378.846 471.702C379.378 471.861 379.864 471.919 380.307 471.876C380.749 471.832 381.149 471.673 381.503 471.401C381.868 471.132 382.189 470.724 382.469 470.172C382.696 469.726 382.833 469.266 382.881 468.791C382.929 468.318 382.886 467.86 382.751 467.414C382.631 466.963 382.421 466.536 382.123 466.131C381.833 465.733 381.466 465.378 381.022 465.068C380.499 464.704 380.012 464.477 379.565 464.391C379.121 464.294 378.708 464.314 378.324 464.457C377.949 464.603 377.598 464.857 377.269 465.221C376.95 465.588 376.647 466.047 376.358 466.59L373.623 464.558L375.743 460.418C376.766 460.317 377.857 460.478 379.011 460.901C380.18 461.32 381.385 461.964 382.627 462.83C383.612 463.515 384.433 464.25 385.094 465.035C385.753 465.817 386.234 466.631 386.539 467.478C386.842 468.322 386.962 469.187 386.899 470.071C386.842 470.961 386.59 471.849 386.143 472.733C385.567 473.866 384.819 474.618 383.898 474.99C382.976 475.361 381.938 475.337 380.784 474.911C381.27 475.446 381.667 476.012 381.977 476.609C382.301 477.201 382.516 477.821 382.618 478.469C382.722 479.119 382.714 479.797 382.596 480.503C382.483 481.199 382.243 481.909 381.873 482.638C381.378 483.615 380.77 484.375 380.051 484.916C379.346 485.453 378.548 485.768 377.658 485.866C376.777 485.971 375.822 485.853 374.791 485.517C373.776 485.174 372.708 484.614 371.589 483.834C370.853 483.322 370.178 482.71 369.565 482C368.952 481.292 368.486 480.482 368.167 479.57C367.864 478.655 367.752 477.633 367.831 476.505C367.919 475.386 368.287 474.149 368.937 472.801L371.764 474.581ZM407.163 480.453L404.203 486.287L401.619 484.488L402 483.739C402.252 483.241 402.404 482.824 402.453 482.491C402.5 482.159 402.481 481.878 402.393 481.649C402.312 481.409 402.173 481.207 401.979 481.044C401.801 480.877 401.6 480.716 401.378 480.561L396.865 477.416L393.984 483.094L396.326 484.728C396.548 484.883 396.738 485.007 396.893 485.102C397.064 485.192 397.221 485.238 397.364 485.24C397.514 485.23 397.663 485.159 397.815 485.025C397.966 484.893 398.137 484.674 398.328 484.368L399.327 485.064L396.707 490.229L395.707 489.533C395.829 489.223 395.901 488.963 395.924 488.754C395.945 488.544 395.93 488.364 395.873 488.213C395.824 488.05 395.723 487.904 395.575 487.771C395.44 487.635 395.265 487.493 395.052 487.344L392.67 485.684L390.129 490.691C389.986 490.972 389.893 491.218 389.847 491.424C389.808 491.622 389.817 491.804 389.877 491.971C389.94 492.13 390.049 492.283 390.201 492.432C390.363 492.587 390.573 492.754 390.83 492.932L391.642 493.497L390.233 496.275C389.852 496.008 389.484 495.752 389.128 495.504C388.774 495.259 388.405 495.001 388.023 494.734C387.656 494.466 387.263 494.185 386.846 493.894C386.435 493.592 385.981 493.27 385.484 492.923C385.048 492.62 384.655 492.353 384.303 492.122C383.966 491.887 383.648 491.666 383.346 491.455C383.052 491.251 382.761 491.055 382.472 490.867C382.197 490.677 381.905 490.472 381.593 490.255L383.003 487.478L383.894 488.1C384.134 488.267 384.342 488.391 384.518 488.471C384.698 488.54 384.865 488.544 385.017 488.482C385.177 488.424 385.336 488.288 385.492 488.075C385.649 487.86 385.831 487.55 386.037 487.144L391.752 475.882C391.926 475.539 392.062 475.246 392.16 475.004C392.259 474.763 392.303 474.548 392.291 474.356C392.285 474.155 392.211 473.97 392.069 473.8C391.942 473.627 391.73 473.439 391.438 473.235L390.573 472.632L391.974 469.871L407.163 480.453ZM408.426 481.335C408.552 481.422 408.766 481.577 409.071 481.804C409.39 482.027 409.739 482.277 410.115 482.553C410.497 482.82 410.883 483.088 411.274 483.361C411.663 483.631 411.996 483.865 412.271 484.055C412.511 484.222 412.791 484.418 413.11 484.639C413.438 484.868 413.78 485.108 414.136 485.353C414.504 485.597 414.87 485.845 415.235 486.099C415.604 486.343 415.958 486.582 416.294 486.815L414.692 495.37C414.486 496.438 414.287 497.483 414.095 498.501C413.91 499.527 413.741 500.444 413.584 501.249C413.433 502.044 413.309 502.69 413.212 503.186C413.131 503.679 413.091 503.925 413.091 503.925C413.35 503.628 413.766 503.186 414.34 502.599C414.918 502.003 415.575 501.336 416.312 500.594C417.063 499.851 417.848 499.068 418.673 498.249C419.498 497.431 420.284 496.648 421.034 495.905C421.79 495.149 422.467 494.468 423.064 493.857C423.672 493.252 424.122 492.791 424.414 492.473C424.735 492.696 425.085 492.95 425.471 493.231C425.871 493.51 426.268 493.793 426.661 494.082C427.07 494.367 427.461 494.639 427.833 494.899C428.206 495.158 428.525 495.381 428.791 495.566C429.004 495.715 429.285 495.909 429.63 496.151C429.986 496.399 430.34 496.646 430.694 496.892C431.056 497.13 431.378 497.346 431.662 497.545C431.951 497.732 432.144 497.861 432.241 497.929L430.833 500.704L430.153 500.231C429.878 500.041 429.648 499.915 429.463 499.855C429.29 499.791 429.14 499.779 429.013 499.816C428.9 499.851 428.8 499.93 428.714 500.051C428.627 500.175 428.539 500.324 428.449 500.502L425.299 506.709C424.386 508.509 423.353 510.555 422.203 512.85C422.06 513.13 421.954 513.374 421.885 513.579C421.817 513.785 421.794 513.973 421.817 514.142C421.852 514.309 421.94 514.468 422.078 514.621C422.217 514.774 422.419 514.943 422.685 515.129L423.337 515.583L421.928 518.359C421.591 518.125 421.263 517.896 420.943 517.673C420.629 517.44 420.3 517.202 419.952 516.963C419.616 516.727 419.256 516.478 418.874 516.211C418.507 515.941 418.106 515.654 417.67 515.35C417.29 515.086 416.944 514.853 416.638 514.652C416.345 514.448 416.065 514.254 415.799 514.068C415.542 513.888 415.286 513.717 415.033 513.556C414.793 513.389 414.541 513.211 414.275 513.027L415.683 510.25L416.229 510.63C416.53 510.84 416.788 510.962 416.997 510.997C417.223 511.026 417.422 510.989 417.595 510.886C417.781 510.776 417.952 510.607 418.106 510.376C418.259 510.145 418.414 509.872 418.573 509.56L425.246 496.411L423.244 498.331L410.68 510.522L408.231 508.815C408.277 508.509 408.352 508.043 408.456 507.411C408.56 506.779 408.68 506.046 408.816 505.212C408.966 504.373 409.126 503.465 409.299 502.486C409.475 501.497 409.651 500.502 409.824 499.496C410.004 498.48 410.174 497.481 410.338 496.496C410.509 495.517 410.663 494.61 410.798 493.776C410.948 492.938 411.075 492.203 411.179 491.571C411.297 490.935 411.38 490.466 411.426 490.161L411.67 488.684C411.7 488.507 411.725 488.327 411.746 488.145C411.781 487.957 411.81 487.794 411.833 487.656C411.857 487.489 411.882 487.332 411.91 487.183L404.953 500.894C404.795 501.206 404.682 501.464 404.613 501.67C404.559 501.873 404.548 502.048 404.58 502.197C404.622 502.352 404.71 502.498 404.844 502.635C404.989 502.777 405.189 502.938 405.447 503.118L406.085 503.562L404.677 506.339C404.419 506.159 404.171 505.986 403.931 505.819C403.697 505.641 403.45 505.463 403.193 505.284C402.936 505.104 402.661 504.914 402.368 504.71C402.09 504.501 401.776 504.276 401.431 504.035C401.057 503.776 400.719 503.545 400.411 503.345C400.109 503.136 399.826 502.938 399.559 502.752C399.293 502.566 399.029 502.389 398.767 502.22C398.518 502.048 398.261 501.868 397.993 501.683L399.403 498.905L400.055 499.36C400.375 499.583 400.638 499.717 400.842 499.762C401.054 499.795 401.232 499.764 401.376 499.669C401.521 499.572 401.651 499.424 401.766 499.221C401.889 499.025 402.023 498.796 402.169 498.532L408.134 486.811C408.261 486.561 408.352 486.336 408.405 486.134C408.469 485.938 408.485 485.752 408.455 485.576C408.439 485.397 408.363 485.223 408.229 485.06C408.097 484.897 407.901 484.726 407.644 484.546L407.018 484.11L408.426 481.335Z" fill="black"/>
</g>
<defs>
<filter id="filter0_f_1_3" x="124.855" y="289.75" width="311.386" height="232.609" filterUnits="userSpaceOnUse" color-interpolation-filters="sRGB">
<feFlood flood-opacity="0" result="BackgroundImageFix"/>
<feBlend mode="normal" in="SourceGraphic" in2="BackgroundImageFix" result="shape"/>
<feGaussianBlur stdDeviation="2" result="effect1_foregroundBlur_1_3"/>
</filter>
<linearGradient id="paint0_linear_1_3" x1="572.599" y1="462.4" x2="429.989" y2="319.327" gradientUnits="userSpaceOnUse">
<stop stop-color="#42210B" stop-opacity="0"/>
<stop offset="1" stop-color="#662D91"/>
</linearGradient>
<linearGradient id="paint1_linear_1_3" x1="400" y1="304.9" x2="280.727" y2="185.232" gradientUnits="userSpaceOnUse">
<stop stop-color="#42210B" stop-opacity="0"/>
<stop offset="1" stop-color="#662D91"/>
</linearGradient>
<linearGradient id="paint2_linear_1_3" x1="517.9" y1="406.493" x2="399.218" y2="287.413" gradientUnits="userSpaceOnUse">
<stop stop-color="#42210B" stop-opacity="0"/>
<stop offset="1" stop-color="#662D91"/>
</linearGradient>
</defs>
</svg>
