<svg width="549" height="562" viewBox="0 0 549 562" fill="none" xmlns="http://www.w3.org/2000/svg">
<path d="M24.3173 0C24.3173 0 -30.3966 98.6301 24.3173 114.226C71.6082 127.706 82.5998 51.5153 131.961 59.5747C199.955 70.6763 65.9037 167.322 124.871 195.464C186.221 224.743 210.54 106.175 280.858 119.149C377.113 136.91 165.852 287.761 259.587 312.152C343.943 334.102 340.379 201.801 429.109 195.464C567.816 185.558 199.147 487.202 333.068 457.888C424.523 437.869 390.211 321.581 484.543 312.152C612.693 299.341 295.083 589.954 418.152 559.805C507.172 537.997 549 406.683 549 406.683V0H24.3173Z" fill="white"/>
</svg>
